<svg id="Layer_1" xmlns="http://www.w3.org/2000/svg" preserveAspectRatio="meet" viewBox="0 0 480 44"><style>.st0{fill:#000;stroke:#000}</style><path class="st0" d="M387.5 37.2l-.4-10.4c0-.3 0-.4.3-.4h.1c.2 0 .3.1.3.4l.1 1c.2 5.3 3.3 10.6 9.5 10.6 4.5 0 7.1-2.2 7.1-5.4 0-4.6-3.2-6.5-8.4-9.2-4.5-2.4-8.2-4.7-8.2-10.1 0-5.2 3.8-8.9 9.9-8.9 3 0 6.7.9 8.3 1.5.2.1.3.2.3.4v9c0 .3 0 .4-.3.4h-.1c-.2 0-.3-.1-.3-.4v-.9c0-6.6-3.7-9.1-8.2-9.1-3.9 0-5.8 2.2-5.8 5 0 4 3.1 5.8 7.6 8.1 5.4 2.9 9.2 5.2 9.2 11.1 0 5.6-4.4 9.4-11.2 9.4-3.3 0-7.2-.9-9.4-1.6-.3-.2-.4-.2-.4-.5m52.6-31.1c-2 0-3.1 1.4-3.1 9.8v9.7c0 9-2.9 13.6-11.4 13.6-7.5 0-12.2-3.8-12.2-12V9.9c0-3.6-.1-3.7-1.2-3.7h-2.6c-.3 0-.4-.1-.4-.3v-.2c0-.2.1-.3.4-.3h13c.3 0 .4.1.4.3v.1c0 .3-.1.3-.4.3h-2.5c-1.1 0-1.2.1-1.2 3.7v16.6c0 7.5 1.8 11.3 8.6 11.3 5.7 0 8.5-3.4 8.5-12.1v-9.7c0-8.4-1.3-9.8-4.2-9.8h-2.1c-.3 0-.4-.1-.4-.3v-.1c0-.2.1-.3.4-.3h11.4c.3 0 .4.1.4.3v.1c0 .3-.1.3-.4.3h-1zm26.3 24.8l.1-14.9c0-8.4-1.3-9.8-4.2-9.8h-2.1c-.3 0-.4-.1-.4-.3v-.2c0-.2.1-.3.4-.3h11.4c.3 0 4.1.1 4.1.3v.1c0 .3-3.8.3-4.1.3h-1c-2 0-3.1 1.4-3.1 9.8v23c0 .2-.1.3-.5.3h-1c-.3 0-.4-.1-.6-.3l-19.8-25.8h-.1v15c0 8.4 1.3 9.8 4.2 9.8h2.1c.3 0 .4.1.4.3v.1c0 .2-.1.3-.4.3h-11.4c-.3 0-.4 0-.4-.3v-.1c0-.3.1-.3.4-.3h1c2 0 3.1-1.4 3.1-9.8v-23c0-.2.1-.3.5-.3h1c.3 0 .4.1.6.3l19.8 25.8zm-455 7.7c-.3 0-.4 0-.4-.3v-.1c0-.3.1-.4.4-.4h2.5c1.1 0 1.2-.1 1.2-3.7V6.3h-3.4C7.5 6.3 5 9 5 14.3v1.3c0 .3-.1.4-.3.4h-.1c-.3 0-.3-.1-.3-.4V5.8c0-.3 0-.4.4-.4h26.4c.4 0 .4.1.4.4v9.9c0 .3-.1.4-.3.4h-.1c-.2 0-.3-.1-.3-.4v-1.3c0-5.4-2.5-8-6.7-8h-3.4v27.7c0 3.6 0 3.7 1.2 3.7h2.6c.3 0 .4.1.4.4v.1c0 .2-.1.3-.4.3H11.4zm41.4 0c-.3 0-.4 0-.4-.3v-.1c0-.3.1-.4.4-.4h2.5c1.1 0 1.2-.1 1.2-3.7V21.3H41.7v12.8c0 3.6 0 3.7 1.2 3.7h2.6c.3 0 .4.1.4.4v.1c0 .2-.2.3-.4.3h-13c-.3 0-.4 0-.4-.3v-.1c0-.3.1-.4.4-.4H35c1.1 0 1.2-.1 1.2-3.7V9.9c0-3.6-.1-3.7-1.2-3.7h-2.6c-.3 0-.4 0-.4-.3v-.2c0-.2.2-.3.4-.3h13c.3 0 .4 0 .4.3v.1c0 .3-.1.3-.4.3h-2.5c-1.1 0-1.2.1-1.2 3.7v10.5h14.8V9.9c0-3.6 0-3.7-1.2-3.7h-2.6c-.3 0-.4 0-.4-.3v-.2c0-.2.1-.3.4-.3h13c.3 0 .4 0 .4.3v.1c0 .3-.1.3-.4.3h-2.5c-1.1 0-1.2.1-1.2 3.7V34c0 3.6.1 3.7 1.2 3.7h2.6c.3 0 .4.1.4.4v.1c0 .2-.1.3-.4.3h-13zm34.9-18.1c.3 0 .4 0 .4.3v.6c0 .3-.2.4-.4.4L77 21.6v16h7.1c4.9 0 6.8-4 7-7.5l.2-3.3c0-.3.1-.4.3-.4h.1c.3 0 .3.2.3.4l-.6 11.4c0 .3-.1.4-.4.4H67.8c-.3 0-.4 0-.4-.3v-.1c0-.3.1-.4.4-.4h2.5c1.1 0 1.2-.1 1.2-3.7V9.9c0-3.6-.1-3.7-1.2-3.7h-2.6c-.3 0-.4 0-.4-.3v-.2c0-.2.1-.3.4-.3h21.5c.4 0 .4.1.4.4v9.9c0 .3 0 .4-.3.4h-.1c-.2 0-.3-.1-.3-.4v-1.5c0-5.4-2.5-7.9-6.7-7.9H77v14.3l10.7-.1zm23.6 18.1c-.3 0-.4 0-.4-.3v-.1c0-.3.2-.3.4-.3h2.5c1.1 0 1.2-.2 1.2-3.7V10.1c0-3.6 0-3.7-1.2-3.7h-2.5c-.3 0-.4-.1-.4-.4v-.1c0-.2.1-.3.4-.3h13.4c5.3 0 12.4 1.1 12.4 7.8 0 4.4-3.4 6.6-8.4 7.7v.1c4.9.1 10.3 1.9 10.3 8 0 6.9-6.7 9.4-13.2 9.4h-14.5zm9.2-17.7h3.8c4.6 0 6.7-1.8 6.7-7.3 0-5.9-2.3-7-6.4-7h-4.1v14.3zm5.3 16.8c4.5 0 6.8-2.2 6.8-8 0-6-2.2-7.9-8.4-7.9h-3.6v15.9h5.2z"/><path class="st0" d="M158 32.1l-2.2-6.2h-11l-.2.7c-.8 2.2-1.7 5.1-1.7 7.4 0 2.4 1.1 3.8 3.3 3.8h1.5c.3 0 .4 0 .4.3v.1c0 .2-.1.3-.4.3h-11c-.3 0-.4 0-.4-.3v-.1c0-.3.1-.3.4-.3h.6c1.5 0 1.8-.6 3.5-4.5.7-1.6 1.7-4.2 2.5-6.4l8.1-21.6c.1-.3.2-.4.6-.4h1c.4 0 .5 0 .6.4L164.2 32c2 5 2.3 5.8 4.2 5.8h.4c.3 0 .4 0 .4.3v.1c0 .2-.1.3-.4.3h-8.3c-.3 0-.4-.1-.4-.3-.5-1.4-1.3-3.9-2.1-6.1M150.4 11l-5.3 14h10.3l-5-14zM171 38.6c-.3 0-.4 0-.4-.3v-.1c0-.3.2-.3.4-.3h2.5c1.1 0 1.2-.2 1.2-3.7V10.1c0-3.6 0-3.7-1.2-3.7H171c-.3 0-.4-.1-.4-.4v-.1c0-.2.2-.3.4-.3h13.9c.3 0 .4 0 .4.3V6c0 .3-.1.4-.4.4h-3.5c-1.1 0-1.2.1-1.2 3.7v27.6h6.1c4.1 0 6.7-3.3 6.9-8.9l.1-1.9c0-.3 0-.4.3-.4h.1c.3 0 .3.2.3.4l-.5 11.3c0 .3 0 .4-.4.4H171zm28.5 0c-.3 0-.4 0-.4-.3v-.1c0-.3.1-.3.4-.3h2.5c1.1 0 1.2-.2 1.2-3.7V6.5h-3.4c-4.2 0-6.7 2.6-6.7 8v1.3c0 .3-.1.4-.3.4h-.1c-.3 0-.3-.2-.3-.4V6c0-.3 0-.4.4-.4h26.3c.4 0 .4.1.4.4v9.8c0 .3 0 .4-.3.4h-.1c-.2 0-.3-.2-.3-.4v-1.3c0-5.3-2.5-8-6.7-8h-3.4v27.6c0 3.6.1 3.7 1.2 3.7h2.5c.3 0 .4 0 .4.3v.1c0 .2-.1.3-.4.3h-12.9zm21.8 0c-.3 0-.4 0-.4-.3v-.1c0-.3.1-.3.4-.3h2.5c1.1 0 1.2-.2 1.2-3.7V10.1c0-3.6-.1-3.7-1.2-3.7h-2.5c-.3 0-.4-.1-.4-.4v-.1c0-.2.1-.3.4-.3h13c.3 0 .4 0 .4.3V6c0 .3-.2.4-.4.4h-2.5c-1.1 0-1.2.1-1.2 3.7v24.1c0 3.6 0 3.7 1.2 3.7h2.5c.3 0 .4 0 .4.3v.1c0 .2-.1.3-.4.3h-13zm46.8-33.2c.1-.3.3-.4.6-.4h1.5c.3 0 .4.1.4.3l1 28.9c.1 3.6.2 3.7 1.3 3.7h2.2c.3 0 .4 0 .4.3v.1c0 .2-.1.3-.4.3h-12.6c-.3 0-.4 0-.4-.3v-.1c0-.3.1-.3.4-.3h2.4c1.1 0 1.2-.2 1.1-3.7l-.6-19.7h-.1L255 38.9c-.1.2-.2.3-.5.3h-1.1c-.3 0-.4 0-.5-.3l-10.4-24.8h-.1l-.5 14c-.3 8.4.8 9.7 3.7 9.7h1.3c.3 0 .4 0 .4.3v.1c0 .2-.1.3-.4.3h-9.7c-.3 0-.4 0-.4-.3v-.1c0-.3.2-.3.4-.3h.6c2 0 2.8-1.4 3.1-9.7l1-22.8c0-.2.1-.3.4-.3h1.5c.3 0 .5 0 .6.4l11.8 28h.1l11.8-28zm23.4 33.9c-9.9 0-15.2-6.3-15.2-16.5C276.3 12.3 282 5 291.9 5c9.9 0 15.2 6.3 15.2 16.5.1 10.4-5.6 17.8-15.6 17.8m.3-33.5c-8 0-9.1 7.8-9.1 16.8 0 8.2 1 15.8 9 15.8s9.1-7.8 9.1-16.7c-.1-8.2-1.1-15.9-9-15.9M328.1 31c-2.3-6.8-3.4-8.7-7-8.7h-2.9v11.9c0 3.6.1 3.7 1.2 3.7h2.6c.3 0 .4 0 .4.3v.1c0 .2-.2.3-.4.3h-13c-.3 0-.4 0-.4-.3v-.1c0-.3.2-.3.4-.3h2.5c1.1 0 1.2-.2 1.2-3.7V10.1c0-3.6 0-3.7-1.2-3.7H309c-.3 0-.4-.1-.4-.4v-.1c0-.2.2-.3.4-.3h16.7c4.4 0 9.9 1.8 9.9 8.3 0 4.6-4.3 7.4-8.7 7.9v.1c3.9 1.5 5 4 6.9 8.4l1.6 3.9c1.4 3.3 1.8 3.7 3.2 3.7h1.1c.3 0 .4 0 .4.3v.1c0 .2-.1.3-.4.3h-8.4c-.3 0-.3 0-.4-.3l-2.8-7.3zm-3.6-9.6c2.6 0 4.9-2 4.9-7.4 0-6.1-2.5-7.4-5.1-7.4h-6.2v14.8h6.4zm37.1-.7c.3 0 .4.1.4.3v.6c0 .3-.1.3-.4.3l-10.6-.2v15.9h7.1c4.8 0 6.8-4 6.9-7.5l.2-3.3c0-.3.1-.4.3-.4h.1c.3 0 .3.2.3.4l-.6 11.3c0 .3-.1.4-.4.4h-23.1c-.3 0-.4 0-.4-.3v-.1c0-.3.1-.3.4-.3h2.5c1.1 0 1.2-.2 1.2-3.7v-24c0-3.6 0-3.7-1.2-3.7h-2.5c-.3 0-.4-.1-.4-.4v-.1c0-.2.2-.3.4-.3h21.4c.4 0 .4.1.4.4v9.8c0 .3-.1.4-.3.4h-.1c-.2 0-.3-.2-.3-.4v-1.5c0-5.3-2.5-7.8-6.7-7.8H351v14.3l10.6-.1z"/></svg>
