<?xml version="1.0" encoding="utf-8"?>
<!-- Generator: Adobe Illustrator 21.1.0, SVG Export Plug-In . SVG Version: 6.00 Build 0)  -->
<svg version="1.1" id="Layer_1" xmlns="http://www.w3.org/2000/svg" xmlns:xlink="http://www.w3.org/1999/xlink" x="0px" y="0px"
	 preserveAspectRatio="meet" viewBox="0 0 360 90" style="enable-background:new 0 0 360 90;" xml:space="preserve">
<path d="M241.7,18.2c0,2.2,1.8,3.9,4,3.9c2.2,0,4.2-1.7,4.2-3.9s-1.8-3.9-4.2-3.9C243.6,14.4,241.7,16,241.7,18.2 M66,38.3
	c0.2,7-6.1,10.9-17.5,10.9c-9.8,0.2-16.7-1.8-16.7-1.8L31.3,37h2.9l2.4,6.3c2.2,1.1,5.7,2.6,11.2,2.6c4.4,0,8.5-0.7,8.5-3.9
	c0-2.8-2.2-4.8-6.4-6.1l-9-2.9c-4.8-1.5-8.6-4-8.6-9.4c0-5.3,5-10.3,17.3-10.3c8.3,0,13.2,1.7,13.2,1.7l0.6,9.6h-2.6l-2.4-5.9
	c-1.3-0.7-4.6-2.2-8.6-2.2s-7.7,1.1-7.7,3.9c0,2.2,2.2,3.9,5.2,4.8l10.7,3.7C63.6,30.8,66,34.1,66,38.3 M96.8,48.4H84.6V46
	c-1.8,1.5-4.2,3.1-8.8,3.1c-4,0-6.1-1.8-6.1-6.3v-14L65.3,28v-2.2l12.1-0.9l-0.2,16.7c0,2,1.7,2.8,3.3,2.8c2.2,0,3.7-1.5,4.6-2.4
	l0.2-12.9L80.8,28v-2.2l12.1-0.9l-0.2,20.4l3.9,0.9L96.8,48.4z M131.2,48.4H119v-16c0-2.4-1.3-3.3-3.1-3.3c-1.5,0-3.7,1.7-4.8,2.8
	v13.2l4.6,0.9l0.2,2.4H99V46l4.6-0.9V28.9l-5-1.1v-2.2l12.3-1.1v3.9l0.7-0.6c2.6-2,5.2-3.9,8.6-3.9c4.6,0,6.3,1.8,6.3,6.8v14.2
	l4.8,0.9v2.6C131.3,48.4,131.2,48.4,131.2,48.4z M163.7,38.3c0.2,6.8-5.5,10.9-15.8,10.9c-8.6,0-15.1-2-15.1-2L132.3,37h2.6l2,6.3
	c2,1.1,5.2,2.6,10.1,2.6c4,0,7.7-0.7,7.5-3.9c0-2.8-1.8-4.8-5.9-6.1l-8.1-2.9c-3.9-1.5-7.5-4-7.5-9.4c0-5.3,4.4-10.3,15.5-10.3
	c7.5,0,12,1.7,12,1.7l0.6,9.4h-2.4l-2.2-5.9c-1.1-0.7-4-2.2-7.7-2.2c-3.7,0-7,1.1-7,3.9c0,2.2,2,3.7,4.6,4.8l9.6,3.7
	C161.3,30.8,163.5,33.9,163.7,38.3 M188.4,35.9h-16.2c0,5.9,3.1,8.6,7.9,8.6c2.6,0,5-0.9,6.8-2.9l1.7,1.5c-2,2.8-5.9,6.1-11.8,5.9
	c-6.4-0.2-12.3-5.2-12.3-12.3c0-7.7,5-12.7,12.5-12.5C185.4,24.3,188.4,29.5,188.4,35.9 M181,33.5c0-5-2-7.5-4.2-7.5
	c-2.2,0-4.6,2.4-4.6,7.5H181z"/>
<path d="M220.4,48.4h-12.1v-16c0-2.4-1.3-3.3-3.1-3.3c-1.5,0-3.7,1.7-4.8,2.8v13.2l4.6,0.9l0.2,2.4h-16.9V46l4.6-0.9V28.9l-5-1.1
	v-2.2l12.3-1.1v3.9l0.7-0.6c2.6-2,5.2-3.9,8.6-3.9c4.6,0,6.3,1.8,6.3,6.8v14.2l4.8,0.9v2.6C220.6,48.4,220.4,48.4,220.4,48.4z
	 M238.4,45.3c-2.2,1.8-4.8,3.7-10.1,3.7c-5,0-6.3-2.4-6.3-7.4V28.4h-4.6v-2c3.5-1.5,7.2-5,10.1-10.3h1.8v9.4h7.4v2.9h-7.4v14
	c0,2.2,1.8,2.8,3.7,2.8c1.5,0,3.1-0.6,4.4-1.5L238.4,45.3L238.4,45.3z M255.7,48.4h-16.9v-2.2l4.8-1.1v-16L239,28v-2.2l12.1-0.9
	v20.4l4.6,0.9C255.7,46.2,255.7,48.4,255.7,48.4z M290.3,48.4h-12.1v-16c0-2.4-1.3-3.3-3.1-3.3c-1.5,0-3.7,1.7-4.8,2.8v13.2l4.6,0.9
	l0.2,2.4h-16.9V46l4.6-0.9V28.9l-5-1.1v-2.2l12.3-1.1v3.9l0.7-0.6c2.6-2,5.2-3.9,8.6-3.9c4.6,0,6.3,1.8,6.3,6.8v14.2l4.8,0.9v2.6
	L290.3,48.4L290.3,48.4z"/>
<path d="M312,35.2h-16.2c0,5.9,3.1,8.6,7.9,8.6c2.6,0,5-0.9,6.8-2.9l1.7,1.5c-2,2.8-5.9,6.1-11.8,5.9c-6.4-0.2-12.3-5.2-12.3-12.3
	c0-7.7,5-12.7,12.5-12.5C309.1,23.6,312,28.7,312,35.2 M304.6,32.8c0-5-2-7.5-4.2-7.5c-2.4,0-4.6,2.4-4.6,7.5H304.6z"/>
<path d="M328.7,48.4h-16.9V46l4.8-1.1V17.3l-4.6-0.9v-2l12-1.1v31.6l4.8,1.1L328.7,48.4L328.7,48.4z M94,60C94,60,94,60.2,94,60z
	 M227.4,67.7c-32.4-3.7-66.2-7.7-102.7-9.2c-17.5-0.7-35.7-0.9-53.2,0c-14.9,0.7-28.5,1.8-40.5,3.7v2.2c20.4-2.2,62.9-5.3,99.7-3.1
	c41.8,2.6,63.7,8.1,96.4,12c21.7,2.6,46.9,4.2,71.9,3.1c10-0.3,19.9-1.2,29.8-2.6v-8.1c-9,1.7-18.9,2.9-29.8,3.9
	C275,71.2,249.6,70.3,227.4,67.7z"/>
<path d="M267.7,63.1c-39,1.3-72.5-1.1-104.7-4c-14.5-1.3-30-2.4-45.8-2.9c-28.5-1.7-58.3-1.8-85.9-0.2v2.9
	c16.9-1.7,35.1-2.6,53.7-2.8c27-0.2,53.5,1.5,78,3.9c11,1.1,46.5,3.7,46.5,3.7c19.1,1.3,38.8,2,58.7,1.5c23.9-0.6,44.7-3.3,60.9-7
	v-4.4C313.3,58.3,293,62.4,267.7,63.1z"/>
</svg>
