<?xml version="1.0" encoding="utf-8"?>
<!-- Generator: Adobe Illustrator 21.1.0, SVG Export Plug-In . SVG Version: 6.00 Build 0)  -->
<svg version="1.1" id="Layer_1" xmlns="http://www.w3.org/2000/svg" xmlns:xlink="http://www.w3.org/1999/xlink" x="0px" y="0px"
	 preserveAspectRatio="meet" viewBox="0 0 440 68" style="enable-background:new 0 0 440 68;" xml:space="preserve">
<path d="M106.7,9.6c-1.6,1.2-3.5,3-4.4,4.7c-1.2-1.4-3.3-3.3-4.7-4.2c1.4-1.4,3.7-3.7,4.7-4.9C103.2,6.3,105.3,8.4,106.7,9.6z
	 M134,21.2c-0.2,3-2.6,6.3-5.8,6.3c-3,0-4.9-1.2-6.1-3.5l-0.5,0.2v20.7c1.9,0.9,4.4,2.6,6.1,3.5l3.3-3.5l0.5,0.5l-7.9,8.6
	c-3.5-2.6-8.4-5.4-11.2-6.8V47c1.4-0.9,1.9-2.3,1.9-5.6V27.2c5.4-2.1,9.8-5.1,12.8-7.7c0.7,0.9,1.9,2.3,3.7,2.3c1.4,0,2.6-0.2,3-0.7
	H134z M111.6,47.3l-6.8,6.8c-1.6-1.4-4.7-3.5-7.5-4.9v-0.2c0.9-0.5,1.6-2.1,1.6-4V26.1l-2.3-1.6l-1.9,1.9l-0.5-0.2l6.5-6.8
	c1.6,1.2,4.7,3.3,7.2,4.9c-1.2,0.7-1.6,2.6-1.6,5.1v17.9l2.6,1.6l1.9-2.1C110.9,46.8,111.6,47.3,111.6,47.3z M96.5,47.3L90,54
	c-1.4-0.9-4-2.8-5.8-3.7V27.7c-1.4-0.7-3.3-2.1-4.2-2.8l-2.3,2.3V47l3.3,1.9v0.2L76,54c-1.9-1.6-4.9-3.5-7.5-4.9
	c0.9-0.9,1.4-2.3,1.4-5.1V10.3c0-2.6-0.5-3.3-0.9-4.2l0.5-0.2c1.2,0.9,1.9,1.9,2.1,3.5c1.6-2.8,3.7-4.7,7.7-5.1v0.2
	c-1.2,1.4-1.9,2.8-1.9,5.1v16.8l6.3-6.8c2.1,1.9,5.8,4.7,9.1,6.3v0.2c-0.9,0.9-1.4,2.8-1.4,5.8v15.6l2.3,1.6l1.9-2.1
	C95.5,47,96.5,47.3,96.5,47.3z M56.4,13.7h0.5v38.2h-0.5V13.7z"/>
<path d="M67.4,46.3c-3.3,4-9.5,10.2-19.3,10.2c-13.3,0-22.8-9.1-22.8-24.2c0-14,11.6-21.9,19.1-24.7L45,7.9
	c-7,4.7-10.9,10.5-10.9,20.3c0,8.8,3,14.9,7.9,18.6l1.6-1.2V23.8c0-4-0.7-6.8-1.9-7.7v-0.5c5.8-2.8,11.9-7,16.1-10.7
	C59.2,6.3,60.6,7,62.7,7c2.1,0,3.7-0.7,4.7-1.4l0.5,0.2c-0.7,4.4-3,8.6-8.6,8.6c-3.5,0-5.4-1.2-7.2-3.3h-0.2v29.6
	c-2.8,1.6-7.2,4.7-9.3,6.3c3.3,2.3,7.9,2.6,12.6,2.6c4.4,0,8.4-1.9,12.1-4.2L67.4,46.3z M212.7,25.9c-0.9,0.5-1.6,1.9-1.6,4.9v15.4
	c-3,1.4-10,5.1-13.5,7.9c-3.7-2.6-5.6-4.2-9.5-6.3v-0.2c0.9-0.7,1.6-2.3,1.6-4.9V27.5c4.7-2.3,9.8-5.4,13.3-8.1
	C205.2,21.2,209.9,24.2,212.7,25.9z M203.4,49.4V28.2c-1.6-1.2-4.7-3.3-5.6-4.2l-0.9,0.5v21.2c1.2,0.7,3.5,2.6,5.6,4.2
	C202.4,49.8,203.4,49.4,203.4,49.4z M185.7,51.7c0,2.1-2.8,4.2-5.8,6.5c-4,3.3-6.1,4.9-6.1,4.9c-1.9-1.2-3-1.4-6.1-1.4
	c-3.7,0-5.8,0.5-8.4,1.4h-0.2c2.1-4,6.3-7.2,12.1-7.2c2.6,0,5.6,1.2,7.5,2.3c0.5-0.2,2.1-1.6,2.1-2.3c0-2.6-4.9-2.3-5.6-7.2
	l-5.6,5.4c-2.3-1.9-7.5-5.1-10-6.5v-0.2c1.2-0.7,1.6-1.6,1.6-4.2V27.5c5.4-2.8,10.5-5.8,13.5-8.1c2.3,2.1,7,4.9,9.5,6.3v0.2
	c-1.2,0.7-1.6,1.9-1.6,6.1v12.3C182.6,48.4,185.7,48.2,185.7,51.7z M175.2,47.5V27.7c-2.6-1.6-4.7-3-5.8-4l-0.7,0.5v21.2
	c1.2,0.7,4,2.6,5.1,3.5C173.8,48.9,175.2,47.5,175.2,47.5z M158.9,47.3l-6.8,6.8c-1.6-1.4-4.7-3.5-6.5-4.4c-2.3,1.6-4,3-6.3,4.4
	c-4-1.4-7-4.9-7-8.8c0-5.6,4.4-8.4,8.6-9.8c-3.5-1.6-6.5-4.9-7.2-8.8l11.4-7c2.3,1.9,7.2,5.1,10.2,6.8v0.2c-1.4,0.9-1.9,2.1-1.9,4.9
	V47l3,1.9l1.9-1.9C158.4,47,158.9,47.3,158.9,47.3z M145.8,34.2v-6.1c-1.9-1.2-4.9-3.3-6.3-4.4l-0.9,0.5c0.2,3.7,0.7,8.4,3.3,10.7
	C142.8,34.7,144.9,34.2,145.8,34.2z M145.8,48.4V34.7c-4.4,0.5-7,3.7-7,7.7c0,3,2.1,6.1,5.4,7.2L145.8,48.4z M391.7,47.5l-6.5,6.8
	c-1.6-1.4-4.4-3-5.8-4V27.5c-1.2-0.7-2.8-1.9-3.5-2.6l-3,3V47c0.9,0.5,2.6,1.4,3.3,1.9v0.2l-4.9,4.9c-1.6-1.4-4.9-3.5-7.5-4.9v-0.2
	c1.2-0.7,1.6-1.9,1.6-4.9V27.2l-3.5-2.8l-1.9,1.9l-0.5-0.5l6.5-6.8c1.2,1.2,4.4,4,6.8,5.4v2.1l7-7.4c2.3,1.9,6.3,4.4,8.6,5.8v0.2
	c-1.2,0.7-1.6,2.3-1.6,5.4V47l2.6,1.6l1.9-1.9L391.7,47.5z M362.4,47.3l-6.5,6.8c-1.9-1.4-4.7-3.5-6.5-4.4v-2.3l-7.5,6.8
	c-3-2.6-5.6-4-8.1-5.4v-0.2c1.4-0.7,1.6-2.1,1.6-5.4V26.3l-2.3-1.6l-2.1,2.1l-0.5-0.5l6.5-6.8c1.2,1.2,4,3,5.8,4v23.3
	c0.7,0.5,2.3,1.4,3.5,2.3l3-2.8v-20c-0.7-0.7-2.3-1.4-3-1.9v-0.2c1.4-1.2,3.7-3.5,4.9-4.9c1.9,1.4,5.6,3.7,7.5,4.7
	c-1.2,0.5-1.6,1.9-1.6,4.4v18.2l3.3,1.9l1.9-1.9L362.4,47.3L362.4,47.3z M299.5,9.6c-1.6,1.2-3.5,3.3-4.4,4.7
	c-0.7-0.9-2.6-2.8-4.7-4.4c1.4-1.2,3.5-3.5,4.7-4.9C296,6.3,298.1,8.6,299.5,9.6z M304.2,47.3l-6.5,6.8c-1.9-1.6-5.4-3.7-7.5-4.9
	v-0.2c1.2-0.7,1.6-2.1,1.6-4.4V26.1l-2.3-1.6l-1.9,1.9l-0.5-0.5l6.5-6.8c1.9,1.6,5.4,3.7,7.2,4.9c-1.2,0.7-1.6,1.6-1.6,4.4V47
	l2.6,1.6l1.9-2.1L304.2,47.3L304.2,47.3z M287.6,21.7c-0.2,2.6-2.6,6.1-5.6,6.1c-2.1,0-4-0.9-4.9-2.6l-0.7,0.7v20
	c1.9,0.9,4.2,2.3,5.1,3l1.9-1.9l0.5,0.5l-6.8,6.8c-3-2.3-7.2-5.1-9.8-6.3c1.2-0.5,1.6-1.4,1.6-3V27.7l-3.3-2.8l-1.9,2.1l-0.5-0.5
	l6.3-6.8c1.9,2.1,5.1,4.4,6.5,5.6l5.4-5.6c0.9,1.2,2.1,2.3,4,2.3C286.2,22.1,286.9,21.9,287.6,21.7L287.6,21.7z"/>
<path d="M267.6,5.4c-0.7,5.6-3,10.7-9.1,10.7c-0.7,0-2.1,0-2.6-0.2v33.8c3.7-0.5,8.1-2.3,9.8-3.7l0.2,0.7c-2.8,4-10.2,10-19.8,10
	c-11.9,0-21.2-7.9-21.2-20.5c0-10.9,9.1-18.9,14.9-20.7l0.5,0.2c-4.2,3.7-7,8.8-7,16.8c0,6.8,2.8,11.2,7,14.4l1.9-1.2V29.1
	c0-3.5-0.2-6.1-2.3-6.8v-0.2c2.8-1.2,7.7-3.5,10.7-5.4v24.4c-2.6,1.2-7.2,4.4-9.5,6.1c2.6,1.9,6.5,2.8,10.7,2.8c1.4,0,2.1,0,3.5-0.2
	V16.1c-7.2-0.7-15.1-3.7-21.2-3.7c-4.2,0-7.5,1.9-7.5,4.9c0,1.9,1.6,2.8,2.6,3.3l-0.9,0.5c-1.9-0.9-4-2.8-4-7c0-6.1,4.9-10,11.4-10
	c9.1,0,17.5,4.9,25.6,4.9c2.6,0,4.7-1.4,5.8-3.7L267.6,5.4L267.6,5.4z M414.8,29.3c-4.2,2.6-9.3,6.1-13.3,8.8v7.2
	c1.6,0.7,4.7,2.6,6.1,3.5l3.5-3.5l0.5,0.5l-8.1,8.4c-2.6-1.9-7.5-4.9-10.9-7V47c1.2-0.2,1.9-1.9,1.9-5.6v-14
	c4.9-2.1,9.3-5.1,12.8-8.1C407.1,19.3,414.8,29.3,414.8,29.3z M408,32.8c-1.2-1.4-4.4-6.5-5.8-8.8l-0.5,0.5V37L408,32.8z M330,26.1
	c-1.2,0.5-1.6,2.1-1.6,5.8v14.4c-3.3,1.2-10.2,4.9-13.5,7.9c-2.6-1.6-6.5-4.4-9.5-6.3v-0.2c1.4-0.9,1.6-2.1,1.6-6.3v-31
	c0-2.3-0.5-3.5-0.9-4.4l0.2-0.2c1.2,0.9,1.9,2.1,2.1,3.5c1.6-2.8,3.7-4.4,7.7-5.1v0.2c-1.2,1.4-1.9,2.6-1.9,5.4v16.3l6.3-6.8
	C322.8,21.2,327.7,24.2,330,26.1z M320.9,49.1V27.5l-4-2.8l-2.3,2.3v18.4l5.6,4.2L320.9,49.1L320.9,49.1z"/>
</svg>
