<svg xmlns="http://www.w3.org/2000/svg" preserveAspectRatio="meet" viewBox="0 0 442 49"><g fill="#000"><path d="M371.24 7.689c1.75 5.47 3.507 10.937 5.248 16.41 1.391 4.374 2.748 8.754 4.147 13.125.491 1.534 1.149 2.034 2.548 2.104 2.301.111 3.133-.678 3.135-3.002.004-7.557 0-15.114 0-22.671 0-2.796-.262-3.113-3.027-3.617V8.925h13.845c.021.347.037.684.062 1.099-.188.048-.328.094-.474.121-2.034.366-2.559.974-2.561 3.049-.006 7.997.017 15.994-.022 23.99-.005 1.144.348 1.621 1.514 1.521.833-.072 1.683-.07 2.517-.004 3.633.286 6.094-1.456 7.832-4.468.318-.553.533-1.172.898-1.688.258-.361.688-.6 1.045-.893.121.097.241.192.36.289-.446 2.854-.895 5.709-1.35 8.609h-37.675c-.027-.351-.054-.689-.084-1.099.247-.05.428-.097.612-.121 2.157-.274 2.818-1.142 2.277-3.25-.477-1.853-1.079-3.675-1.691-5.489-.09-.27-.539-.588-.828-.594a201.102 201.102 0 0 0-7.076-.007c-.283.005-.737.228-.815.452-.614 1.77-1.292 3.533-1.69 5.355-.506 2.317.283 3.241 2.656 3.524.193.022.39.036.652.06l.063 1.145h-10.885l-.068-1.09c2.709-.346 4.07-2.219 4.91-4.44a913.623 913.623 0 0 0 7.363-20.24c.211-.602-.342-1.471-.507-2.09l6.827-4.978.242.001zm-5.123 9.456l-3.576 10.673h6.994l-3.418-10.673zM8.6 15.849c.384-2.071.824-4.133 1.125-6.216.123-.849.385-1.128 1.26-1.125 7.994.033 15.988.03 23.982.003.829-.003 1.178.185 1.294 1.087.305 2.368.75 4.718 1.141 7.089-.816.353-1.297.144-1.672-.612-.389-.783-.883-1.518-1.372-2.246-1.756-2.616-4.262-3.591-7.518-3.304v1.138c0 8.034-.004 16.067.002 24.103.002 2.588.343 2.93 3.248 3.264l.069 1.183H15.771v-1.125c.106-.06.171-.125.239-.128 2.605-.143 3.027-.579 3.028-3.174.002-7.954.001-15.908 0-23.862v-1.396c-2.337-.169-4.464.07-6.065 1.759-1.031 1.087-1.881 2.372-2.664 3.658-.444.729-.89 1.065-1.709.864v-.96z"/><path d="M433.4 32.889l-1.189 6.441c-.07.388-.143.775-.225 1.214h-23.683v-1.132c.349-.04.658-.064.965-.114 1.406-.226 2.037-.892 2.039-2.345.021-8.153.023-16.307-.002-24.459-.004-1.649-.547-2.049-2.987-2.458-.027-.316-.058-.656-.097-1.094h14.013c.028.315.061.649.098 1.059-.273.072-.49.14-.713.185-1.699.344-2.332 1.058-2.334 2.78-.012 8.153.004 16.306-.019 24.459-.002.933.345 1.312 1.271 1.272.957-.041 1.922-.061 2.877.001 3.359.214 5.742-1.317 7.449-4.087.334-.541.692-1.09.897-1.686.281-.824.804-1.208 1.64-1.236v1.2zM184.96 26v9.555c.005 2.653.446 3.15 3.087 3.414v1.178h-13.979l-.074-1.178c.406-.033.752-.054 1.097-.093 1.12-.125 1.859-.7 2.06-1.838a9.095 9.095 0 0 0 .124-1.547c.007-7.439.006-14.879.005-22.318 0-2.778-.389-3.21-3.211-3.434l-.065-1.33h1.875c4.28 0 8.559-.004 12.839.001 2.26.003 4.467.32 6.535 1.286 5.594 2.611 6.311 9.325 1.354 13.022-1.072.799-2.338 1.337-3.6 2.043 2.029 3.114 4.106 6.332 6.219 9.527.793 1.198 1.605 2.396 2.521 3.499 1.292 1.557 3.238 1.479 4.276-.275.586-.99 1.024-2.232 1.041-3.369.098-6.838.085-13.679.034-20.518-.012-1.534-1.332-2.288-2.436-3.039-.641-.436-1.442-.634-2.297-.991V8.41c3.497 0 6.969-.028 10.44.039.396.007.871.48 1.157.854 4.383 5.708 8.74 11.435 13.104 17.156.216.283.445.555.771.959.059-.307.12-.479.12-.65.005-4.081.026-8.161-.003-12.24-.02-2.712-1.545-4.432-4.25-4.823-.021-.369-.046-.754-.074-1.219h10.469V9.66c-2.685.556-3.968 2.173-3.973 5.031-.012 8.039-.004 16.079-.004 24.118v1.289c-1.1.445-1.794.276-2.523-.671-5.734-7.442-11.535-14.834-17.314-22.241-.242-.31-.495-.612-.868-1.073-.062.42-.128.663-.128.906-.006 5.4-.026 10.799.016 16.199a8.81 8.81 0 0 0 .465 2.696c.623 1.854 1.827 2.761 3.835 3.054v1.245c-.49 0-.92-.007-1.349.001-3.875.077-7.754.088-11.626.255-4.226.182-7.468-1.393-9.657-5.029-1.689-2.806-3.34-5.635-5.009-8.455-.216-.364-.435-.728-.653-1.09-.12.032-.235.069-.351.105zm0-1.636c3.939.34 6.496-1.594 6.989-5.267.178-1.325.183-2.707.03-4.036-.404-3.503-2.458-5.056-6.008-4.769-.767.062-1.031.355-1.022 1.11.03 2.552.011 5.104.011 7.656v5.306zM134.66 8.45h10.656v1.237c-2.445.404-3.411 1.558-3.373 4.369.045 3.275.227 6.549.394 9.821.183 3.591.415 7.18.625 10.771.014.238.022.479.044.718.243 2.558 1.027 3.348 3.632 3.597v1.178H131.82v-1.098c2.697-.552 3.326-1.333 3.216-4.02-.235-5.707-.477-11.416-.722-17.124-.011-.269-.078-.536-.178-1.184-.27.652-.418.977-.542 1.312-2.604 7.039-5.209 14.076-7.797 21.121-.232.633-.415 1.101-1.276 1.099-.828-.002-1.077-.397-1.327-1.046-2.667-6.93-5.354-13.85-8.038-20.772-.139-.357-.299-.706-.661-1.028-.087 2.004-.185 4.008-.26 6.013-.139 3.713-.313 7.427-.377 11.143-.047 2.717 1.195 4.043 3.945 4.396.034.16.099.341.106.525.008.192-.04.388-.081.732h-10.809v-1.169c2.663-.636 3.858-1.838 4.029-4.446.459-7.019.861-14.04 1.212-21.063.115-2.306-1.01-3.496-3.353-3.798V8.41c3.44 0 6.87-.027 10.296.044.324.007.776.578.931.979 2.266 5.885 4.49 11.786 6.726 17.683.137.359.292.713.559 1.361L134.66 8.45zm-64.23.174v1.181c-.424.045-.816.06-1.196.133-1.394.268-2.031 1.184-2.032 2.936-.005 7.358-.002 14.717-.002 22.076 0 .44-.003.88 0 1.319.017 1.905.652 2.56 2.577 2.662.192.01.383.043.639.07l.062 1.188H56.322l-.072-1.021c.153-.111.211-.191.276-.197 2.457-.203 2.829-.609 2.832-3.121.003-3.08.001-6.16.001-9.24v-1.34H48.881v10.264c0 2.922.142 3.088 3.04 3.519v1.173H37.924v-1.221c.295-.027.565-.061.835-.074 1.611-.082 2.27-.703 2.272-2.295.014-8.117.013-16.237.001-24.354-.002-1.658-.668-2.313-2.313-2.392-.273-.013-.547-.037-.885-.061v-1.23h14.105v1.166c-.496.102-1.115.053-1.459.337-.603.499-1.448 1.186-1.472 1.82-.138 3.702-.068 7.411-.068 11.181h10.417v-1.672c0-2.8.002-5.599 0-8.398-.003-2.563-.402-3-3.04-3.214l-.082-1.193c4.746-.002 9.399-.002 14.195-.002z"/><path d="M144.319 24.611c.078-7.195 3.975-13.366 10.005-15.725 8.613-3.368 18.219 1.868 20.305 11.217 1.374 6.159.461 11.932-4.243 16.506-4.542 4.416-10.084 5.354-15.997 3.455-5.705-1.832-8.6-6.194-9.693-11.888-.224-1.168-.257-2.375-.377-3.565zm22.676-.974c-.125-1.289-.24-3.287-.534-5.258-.331-2.223-.935-4.385-2.327-6.222-2.577-3.4-7.224-3.214-9.424.435-.628 1.042-1.088 2.235-1.38 3.419-1.086 4.4-1.007 8.871-.564 13.343.258 2.6.725 5.16 2.291 7.35 2.136 2.986 6.219 3.197 8.544.363.818-.998 1.45-2.209 1.924-3.418 1.17-2.98 1.365-6.14 1.47-10.012zm141.25-4.788c-1.047.384-1.527.096-1.896-.857-.574-1.483-1.246-2.949-2.058-4.314-1.667-2.803-4.292-3.798-7.446-3.603-2.923.181-4.875 1.854-5.91 4.404a24.456 24.456 0 0 0-1.607 6.221c-.473 3.902-.475 7.85.814 11.627.518 1.517 1.307 3.021 2.289 4.282 1.691 2.178 4.821 2.846 7.41 1.875 1.528-.572 2.141-1.435 2.155-3.075.011-1.28.003-2.56.002-3.839-.001-2.488-.312-2.862-2.813-3.344v-1.123h13.205c.019.354.035.703.051 1.041-2.561.791-2.641.902-2.641 3.606 0 1.96.032 3.92-.027 5.878-.012.369-.306.953-.602 1.057-5.427 1.881-10.958 2.996-16.695 1.656-6.875-1.605-11.39-6.951-11.938-14.023-.465-5.998 1.195-11.167 6.057-14.986 3.725-2.927 8.075-3.648 12.68-3.324 2.537.178 4.979.723 7.246 1.9.36.188.767.641.816 1.016.351 2.613.611 5.236.908 7.925z"/><path d="M276.239 27.512V20.83c-.001-2.16.04-4.32-.017-6.479-.067-2.572-1.654-4.304-4.226-4.625l-.095-1.222h10.59v1.152c-2.44.288-4.121 2.042-4.127 5.17-.018 7.998-.006 15.996-.006 23.994v1.291c-1.215.588-1.939.25-2.726-.782-5.659-7.446-11.396-14.835-17.108-22.242-.24-.312-.5-.608-.871-1.053-.062.41-.131.658-.131.906-.006 5.398-.014 10.796.006 16.196.003.714.089 1.442.248 2.14.498 2.185 1.73 3.276 4.166 3.744v1.105h-10.846l-.048-1.061c3.194-.795 4.3-2.213 4.306-5.53.012-6.279.004-12.558.004-18.836 0-2.3-1.731-4.382-4.041-4.854-.227-.046-.459-.063-.739-.1V8.407c2.997 0 5.989.093 8.974-.04 1.493-.066 2.365.44 3.246 1.618 4.188 5.602 8.48 11.125 12.737 16.676.147.191.303.366.704.851zM96.877 32.463l-1.206 7.77H72.034v-1.235c.288-.024.557-.052.827-.07 1.396-.1 2.038-.685 2.155-2.071.064-.754.022-1.518.022-2.277V13.228c0-2.723-.342-3.119-3.015-3.434V8.529h1.204c6.637 0 13.275.017 19.912-.019.93-.005 1.317.213 1.434 1.212.273 2.33.703 4.642 1.069 6.966-.761.356-1.142.1-1.451-.57-.35-.758-.786-1.482-1.242-2.184-1.529-2.358-3.646-3.563-6.527-3.5-4.362.096-3.56-.365-3.617 3.642-.041 2.873-.008 5.746-.008 8.589 3.444 1.155 6.737-.887 6.962-4.321h1.142v11.231l-1.127.061c-.001-1.774-.522-3.337-2.155-4.002-1.433-.583-3.029-.766-4.746-1.171-.038.768-.073 1.15-.073 1.533-.004 3.599-.005 7.197-.001 10.796.001 1.505.119 1.614 1.66 1.619.719.002 1.44-.022 2.159.004 4.012.149 6.941-1.5 8.658-5.181.302-.645.616-1.261 1.601-.771zm255.965-2.074c-.387 2.603-.75 5.168-1.173 7.725-.054.326-.364.73-.664.876-5.491 2.646-11.118 3.295-16.735.554-5.592-2.729-8.252-7.537-8.551-13.59-.298-6.054 1.6-11.278 6.766-14.903 3.594-2.522 7.687-3.078 11.91-2.504 2.067.281 4.076 1.028 6.096 1.621.736.216 1.078.736 1.152 1.598.209 2.5.562 4.987.857 7.484-.988.387-1.475.097-1.904-.814-.815-1.725-1.615-3.51-2.757-5.017-3.487-4.606-9.646-3.989-12.276 1.123-1.192 2.316-1.687 4.816-1.879 7.379-.308 4.092-.207 8.155 1.316 12.044 1.16 2.959 3.135 5.019 6.473 5.308 3.203.276 5.696-1.076 7.438-3.701.943-1.42 1.678-2.984 2.43-4.522.305-.632.61-.997 1.501-.661zm-103.791 9.754h-13.154v-1.105c2.266-.479 2.5-.766 2.5-3.116.004-7.799.006-15.599-.002-23.399-.002-2.131-.353-2.526-2.451-2.814l-.077-1.221h12.778v1.149c-2.041.491-2.44.994-2.442 3.133-.007 7.8-.004 15.599-.001 23.399 0 2.066.104 2.148 2.138 2.762.267.08.39.639.711 1.212z"/></g></svg>
