<svg id="Layer_1" xmlns="http://www.w3.org/2000/svg" viewBox="0 0 360 44.8"><style>.st0{fill:#000}</style><path class="st0" d="M272.2 0c1.8.4 3.5 1 5.3 1.3 2.1.4 4.2.8 6.3.9 1.1.1 2.2-.5 3.3-.7.3-.1.6-.2 1-.3l.3.3c-.3.6-.4 1.4-.9 1.9-.9 1-1.9 1.9-3 2.6-1 .7-1.5 1.5-1.5 2.7v19.8c0 .2.1.4.1.7 2.2-.5 3.3-2.5 4.8-3.9.4 1.4-.3 2.2-.9 3.1-6.1 7.9-16.5 6.8-21.7 2.7-3.1-2.5-4.5-5.8-4.6-9.6-.1-6.5 2.3-11.7 8-15 .2-.1.4-.3.6-.3.3 0 .6.1.9.1-.1.3-.1.7-.4.9-3.7 2.5-5.2 6.1-5.4 10.3-.2 7.3 5.9 15.1 15.6 12.9 1.1-.3 1.6-.9 1.6-2.1 0-6.6 0-13.1.1-19.7 0-1.1-.4-1.7-1.5-1.8-.2 0-.3-.1-.5-.1-2.9-.5-3.7.1-3.7 3.1v13c0 2-.6 3.8-2.5 4.9-.6.3-1.3.5-2.3.8 1.4-6 .5-11.7.6-17.7-1.2.8-2.1 1.4-3.1 2.1-.2-.3-.3-.6-.6-1 2.5-1.9 5-3.8 7.5-5.6v-.4c-2.4-.6-4.8-1.3-7.3-1.7-1.8-.3-3.7-.3-5.5-.2-1.9.1-3.2 1.3-4.1 3-.9 1.8-.6 3.1.7 4.6.2.2.2.6.3 1-.3 0-.7 0-1-.1-1.2-.6-1.8-2.4-1.5-4.1.5-2.6 1.8-4.7 4.2-6 1.3-.7 2.7-1.1 4-1.6.4-.2.7-.4 1.1-.6 2.1-.2 3.9-.2 5.7-.2zM0 15.8c.3-.7.6-1.3.8-2 1.3-5.3 4.4-9.2 9.1-12 .5-.3 1-.4 1.5-.6.1.1.1.2.2.3-.2.3-.4.7-.7.9C7.2 4.6 5.3 8 4.5 12.1c-.8 4.6-.2 9.1 2.3 13.2 1.5 2.5 3.6 4.4 6.6 4.9 2 .3 4.1.3 6.2.4.8 0 1-.4 1-1.2V7.1c0-1-.3-1.5-1.3-1.8-.8-.2-1.6-.6-2.3-.9-1.6-.6-2.1-.3-2.1 1.4v13.6c0 1.1-.1 2.2-.2 3.3-.4 2.6-1.8 4.3-4.7 5.1 0-.5 0-.9.1-1.3.7-2 .7-4 .6-6.1-.2-3.5-.1-7-.1-10.6V8.3C9.3 9.4 8 10.4 6.5 11.4c-.2-1.1.5-1.7 1.1-2.2 2.4-2 4.8-3.9 7.2-5.9 1.3-1 2.4-2.2 3.7-3.2h1c1.5 1.6 3.3 2 5.3 1.4.7-.2 1.3-.3 2.1-.5.2 1.3-.6 2.1-1.4 2.7-.8.6-1.7 1.1-2.5 1.6-.7.4-1.2.9-1.1 1.8v22c0 .3.1.6.1 1.3 2-1.4 3.8-2.6 5.6-3.8.1.1.2.2.4.3-.4.6-.6 1.3-1.1 1.9-3 3.4-6.6 5.5-11.3 5.6-6.1.1-13.7-3.6-15.1-12-.1-.3-.3-.6-.4-.9-.1-2.1-.1-3.9-.1-5.7zM149.3 0c1.6 1.2 3.2 2.2 5.3 1.3.6-.3 1.3-.4 2.2-.7-.2.6-.2 1.1-.4 1.4-1 .9-2 1.9-3.1 2.7-1 .6-1.7 1.3-1.7 2.5v22c0 .3.1.5.2 1 1.9-1.4 3.7-2.7 5.5-4 .1.1.2.1.3.2-.2.6-.4 1.2-.7 1.7-5.8 7.3-16.3 8-23.1 1.6-2.2-2.1-3.1-4.9-3.7-7.8-1.3-6.3 1.2-15.6 9.3-20 .5-.3 1.1-.4 1.7-.6.1.1.1.2.2.3-.3.3-.6.6-1 .9-4.2 2.8-6 7-6.4 11.9-.3 3.8.5 7.4 2.5 10.8 2 3.4 5.1 5 8.9 5.3 1.2.1 2.5 0 3.7 0 1.1 0 1.5-.5 1.5-1.5V6.6c0-.4-.3-.9-.7-1-1.1-.5-2.3-.9-3.4-1.4-.9-.4-1.4 0-1.5.8-.2.9-.2 1.7-.2 2.6.1 4.2.2 8.3.2 12.5 0 .9-.1 1.8-.2 2.6-.3 2.6-2 4-4.2 5-.2.1-.5.1-.6 0-.1-.1-.2-.5-.1-.6 1.2-2.1.8-4.4.9-6.6V8.3c-1.6 1.2-2.9 2.2-4.3 3.3-.4-1.2.4-1.7 1-2.2 2.7-2.3 5.5-4.6 8.2-7 .8-.7 1.6-1.5 2.4-2.3.5-.1.9-.1 1.3-.1zM306 18.7c1.7-1.2 3.3-2.4 4.9-3.5 1.6-1.1 2.2-1 3.3.6.6.9 1.1 1.9 1.7 3 1.8-1.3 3.5-2.5 5.1-3.8.9-.7 1.5-.7 2.4.2 1.2 1.3 1.8 1.4 3.5.7.3-.1.7-.1 1.2 0-.4.4-.7.9-1.2 1.2-1.2.8-1.9 1.9-1.9 3.4.1 2.3.1 4.6.3 6.8.2 2.5.3 2.6 3 2.4-1.2 1.3-2.2 2.4-3.4 3.4-.3.2-1.3 0-1.7-.3-1.5-1.1-1.8-2.8-1.8-4.6V20c0-1-.4-1.8-1.4-2.1-.2-.1-.4-.1-.6-.1-1.1 0-3.8 2.6-3.9 3.7V28c0 1.1.6 1.6 1.7 1.5.4 0 .9-.1 1.3-.1.1 0 .2.1.6.3-1.6 1.2-3.1 2.4-4.7 3.4-.3.2-1 0-1.4-.3-1-.6-1.9-1.4-3-2.2 2-.8 1.8-2.5 1.8-4-.1-2.1-.1-4.2-.3-6.3-.1-.8-.7-1.6-1.2-2.4-.1-.2-.8-.2-1.1 0-.9.6-1.8 1.2-2.6 1.9s-1.2 1.5-1.2 2.6c.1 1.6 0 3.1 0 4.7 0 1.9.6 2.5 2.5 2.5.4 0 .8.1 1.5.2-.7.6-1.1 1-1.6 1.4l-2.7 1.8c-.8.5-1.6.5-2.1-.3-.9-1.3-1.9-2.1-3.5-1.1-.1.1-.3 0-.5 0-.1 0-.2-.1-.5-.2.5-.4.8-.8 1.2-1 1.5-.9 2.2-2.3 2.2-4-.1-2.2-.2-4.4-.4-6.6-.1-1.6-.5-1.8-2-1.9-.3 0-.7-.1-.8-.3-.1-.2 0-.7.2-.8 1-.8 2.1-1.6 3.3-2.2.9-.5 1.7.2 2.1 1 .8 1 1.2 2 1.7 3.1zm-69 14.2c-3.6-1.8-3.9-4.8-3.7-8.1.1-1.7 0-3.4 0-5s-.2-1.8-1.8-2.2c-.4-.1-.7-.3-1.3-.5 1.4-1 2.7-1.9 4-2.6 1-.6 2.4.4 2.6 1.7.2 1.1.3 2.1.4 3.4 1.1-.8 2.1-1.5 3-2.2 1.1-.8 2.1-1.7 3.2-2.5.8-.6 1.7-.8 2.6-.1 1.1.8 2 2.1 3.9 1.1v.5c-.2.2-.4.6-.6.7-1.3.7-1.7 1.8-1.7 3.2 0 2.6-.1 5.1-.2 7.7-.1 2.7-1.3 4.2-3.9 4.8-1.8.4-3.7.7-5.5 1.1-.5.1-1.1.3-1.6.5-.8.4-1.4 1.2-1 1.9.3.5 1.3.8 1.9.7 1.7-.2 3.3-.8 5-1.1.8-.2 1.7-.2 2.5-.3 2.7-.2 4.5 2.2 3.6 4.7-.7 1.8-2 3-3.7 3.4-2 .5-4 .8-6.1 1-.7.1-1.6-.3-2.3-.5-.2-.1-.3-.5-.6-1 1.4.1 2.6.2 3.7.2 2 .1 4-.2 5.8-1.2.3-.2.6-.3.8-.5.6-.6 1.3-1.3.9-2.3-.4-1-1.3-.6-2.1-.5-2.3.4-4.5.9-6.8 1.3-2 .4-3.2-.2-4-1.8-.7-1.4-.3-3 1.2-4.2.4-.3 1-.6 1.8-1.3zm6.7-7.9c.1-1.3.1-2.6.1-4 0-.6 0-1.3-.1-1.9-.2-1.2-1.4-1.9-2.1-1.3-1.2.9-2.5 1.8-3.6 2.8-.5.4-.9 1.1-.9 1.7-.1 2.5 0 5 0 7.4 0 1 .5 1.9 1.5 2 1.2.2 2.5.1 3.7-.1 1-.2 1.3-1 1.3-2 .1-1.4.1-3 .1-4.6zm-45.9-7.4c1.3-1.1 2.7-2.2 4.1-3.2.3-.2 1.1.2 1.5.5 1.2.8 1.6 2.1 1.7 3.5 0 .4.1.8.1 1.4 1.5-1.1 2.8-2.2 4.1-3.2.8-.6 1.5-1.1 2.3-1.7.9-.7 1.8-.6 2.6.1l.5.5c1.3 1.3 1.4 1.3 3 .3.2-.1.3-.2.9-.1-.1.4-.1 1.1-.4 1.2-2.6 1.6-3.1 4-2.7 6.7.2 1.3.1 2.6.2 3.9.1 1.4.7 1.9 2.1 2 .4 0 .7.2 1.1.3-.2.3-.4.7-.7 1-.7.6-1.5 1.2-2.3 1.7-1.1.8-1.8.7-2.7-.3-1-1.1-1.4-2.5-1.4-4v-7.6c0-.4.1-.8-.1-1.1-.4-.7-.9-1.5-1.5-2-.2-.1-1 .5-1.5.8-.7.5-1.3 1.2-2 1.7-1.1.7-1.5 1.7-1.5 2.9V27c0 1.9.6 2.4 2.5 2.2h1c-.4.6-.7 1-1 1.4-.4.4-.9.8-1.4 1.2-2.2 1.6-2.2 1.6-4.3-.1-.7-.6-1.4-.7-2.2-.2-.4.3-.8.4-1.2.5l-.3-.3c.3-.3.5-.8.9-1 2-1.2 2.6-2.8 2.2-5.1-.3-1.7 0-3.5-.1-5.3 0-.7-.2-1.4-.5-2-.3-.6-.9-1.1-1.8-.5-.2.1-.6 0-.8 0-.2.2-.3 0-.4-.2z"/><path class="st0" d="M198.3 30.1c-1.4 1.1-2.6 2.1-3.7 3-.7.5-1.3.4-1.9-.2-1.1-1.2-1.8-2.5-1.9-4.4-1.9 1.3-3.6 2.6-5.3 3.8-1.9 1.5-2.1 1.5-3.8-.2-1.3-1.2-1.9-1.2-3.4-.3-.3.2-.7.1-1.1.1.2-.3.2-.7.5-.9.5-.4 1.1-.7 1.5-1.2.5-.8 1.2-1.7 1.3-2.6.2-2.1.1-4.2 0-6.3 0-.7-.2-1.4-.4-2.1-.2-.9-.8-1.3-1.8-.9-.3.1-.8-.1-1.2-.1 0-.1 0-.3-.1-.4 1.3-1 2.6-2 4-2.8.4-.2 1.4.1 1.8.4 1 .9 1.5 2 1.5 3.4v8.5c0 1.1.3 2.1 1.3 2.6 1 .6 1.8 0 2.6-.6.1-.1.2-.1.3-.2 1.8-1 2.7-2.4 2.4-4.6-.2-1.2 0-2.4-.1-3.6-.1-.7-.4-1.3-.7-2-.3-.6-.8-.9-1.6-.5-.2.1-.5-.1-.8-.2.1-.3.1-.7.2-.8l3.3-2.4c.7-.5 1.3-.3 1.8.2l.6.6c1.1 1.3 1.4 1.3 2.8.5.3-.2.7-.1 1.1-.2-.2.4-.2 1-.5 1.2-2.3 1.2-2.8 3.1-2.5 5.6.2 1.2 0 2.5 0 3.7 0 2.1.6 2.9 2.6 3.4.4.2.7.3 1.2.5zM343 17.4c.5-.2.9-.5 1.4-.5 2 0 3.6-.8 5.2-1.8 1.1-.7 2.1-.8 3.3-.2 1.6.8 3.2.7 4.9 0 .4-.2 1-.2 1.4-.3.1.1.1.2.2.3-1.9 2.2-3.9 4.5-5.9 6.9 2.3.1 4.4.3 6.5.4-1.5 2.8-1.4 5.2-.2 7.9-.7.2-1.5.4-2.3.6-1.8.4-3.5 1.1-4.9 2.3-.6.6-1.2.6-2 .3-.4-.2-.8-.3-1.2-.5-1.7-1-3.4-1-5.1.1-.3.2-.8.2-1.3.2 1.5-2.9 4-5 6-7.9h-3.7c-.5 0-1 0-1.4-.1-.8-.1-.9-.6-.4-1.2 1.2-1.7 1.2-4.4-.1-6-.2-.1-.3-.3-.4-.5zm4 11.9c0 .1.1.2.1.3 2.8-1.1 5.4-.7 8 .8v-6.1H353c-.7 0-1.6-.1-1.9.3-1.5 1.5-2.8 3.2-4.1 4.7zm8-11.5c-2.4 1.1-4.7 1.3-6.6-.9-1 2-.8 3.8-.4 5.7 3.5.5 5.6-1 7-4.8zM79.2 31.2c.4-.3.8-.7 1.2-.9 1.1-.6 1.6-1.4 1.6-2.6 0-2.4.1-4.7-.1-7.1-.1-1-.6-1.9-.9-3 .7-.1 1.6-.3 2.6-.4 2.4-.3 4.8-1 6.8-2.3.7-.5 1.4-.5 2.1.1.6.5 1.4.8 2 1.3 1 .7 1.9.8 2.8 0 .6-.5 1-.4 1.2.4 0 .1-.1.2-.1.2-1.9 1.1-2.4 2.7-2.3 4.8.1 1.4-.2 2.9-.1 4.3.1 1.1.3 2.2.7 3.2.3.9.1 1.3-.8 1.2-3.2 0-6.1.9-8.8 2.7-.4.3-1.1.1-1.7 0-.4-.1-.8-.4-1.1-.7-1.3-1-2.5-2-4.3-1.1-.1.1-.3 0-.5 0 0 .1-.1 0-.3-.1zm13-6.5v-4.1c0-.3 0-.8-.2-1-1.4-1.1-2.9-2.4-4.9-2.1-.9.1-1.6.4-1.5 1.7.1 2.7 0 5.4 0 8.1 0 .4.1.8.3 1.1 1 1.3 3.9 2.1 5.5 1.6.6-.2.9-.5.9-1.2-.1-1.3-.1-2.7-.1-4.1zm65.2 6.3c.2-.2.4-.3.7-.5 1.2-.6 1.8-1.7 1.8-3 0-2.6-.1-5.3-.3-7.9 0-.6-.5-1.2-.8-2 .9-.2 1.8-.3 2.6-.6 2.3-.7 4.6-1.4 6.8-2.3 1-.4 1.8-.4 2.7.3.3.3.7.5 1.1.8 1.5 1.1 1.9 1.1 3.5.2.2-.1.4-.1.6-.2.1.1.2.2.3.2-.3.4-.5 1-.9 1.3-1.4.9-1.9 2.1-1.8 3.8.1 2 0 4 .2 6 .1 1 .6 1.9.9 3-1 .2-2.1.4-3.2.5-2.3.2-4.4 1-6.2 2.3-.9.6-1.6.7-2.5 0-.6-.5-1.3-.9-2-1.3-.8-.6-1.6-.9-2.5-.2-.2.2-.6 0-1 0V31zm12.8-1.4v-9.2c0-.3-.2-.8-.4-.9-1.2-.7-2.4-1.5-3.7-1.9-1.5-.5-2.5.4-2.5 1.9 0 2.6 0 5.2.1 7.8 0 .5.2 1.2.6 1.5 1.7 1.2 3.6 2.3 5.9.8zM35 22.1c-1.1-1.3-2.1-2.5-3.2-3.8h2.1c2.5 0 4.7-.9 6.3-3 1.2-1.5 1.3-1.4 2.4 0 1.3 1.7 1.7 1.8 3.6.7.2-.1.5-.3.7-.4.7.5.6.9-.1 1.3-2.4 1.2-3.1 3.2-2.8 5.8.2 1.4 0 2.8 0 4.2 0 2.2.5 2.7 2.6 2.8.3 0 .5.1 1.1.3-1.6 1.2-2.9 2.2-4.3 3.2-.3.2-1 0-1.3-.3-.8-1-1.5-2.2-2.3-3.4-.3.2-1 .6-1.6 1l-2.7 1.8c-2.3 1.6-3 1.6-5-.2-1.8-1.7-2.2-3.5-.7-5.4 1-1.3 2.3-2.4 3.6-3.5.5-.4 1-.7 1.6-1.1zm3.3 2c-.1.1-.2.3-.4.4-.3-.2-.8-.4-1-.7-.6-.9-1.2-.7-1.9-.2-.3.3-.7.5-1 .8-1.3 1.2-1.5 2.4-.8 3.9.6 1.2 2.2 2.5 3 2.1 1.5-.8 2.8-2 4.1-3 .1 0 0-.2 0-.3v-7.2c0-1.1-1.3-2.3-2.4-2-1.3.4-2.5 1-4 1.5 1.7 1.7 3 3.2 4.4 4.7zm79.4-22.8c-.2.9-.2 1.6-.4 2.2-.8 2.2-1.2 4.5-1.2 6.9v16.3c0 2.7.2 2.8 2.8 3 .2 0 .4.1.7.2-1.2 1.5-2.5 2.7-4.1 3.5-.3.2-1.1-.2-1.4-.5-1.1-1.2-2.2-1.8-3.8-1.2-.3.1-.7 0-1.2-.3.8-.5 1.6-.8 2.3-1.4.5-.4 1-1.1 1-1.7.1-6.5.1-13 0-19.5 0-1.1-.2-2.2-.4-3.3-.1-.9.1-1.6.9-2 1.5-.9 3-1.5 4.8-2.2zM109 30.2c-1.3 1-2.7 2.1-4 3-.3.2-.8 0-1.2-.1-.6-.3-1.2-.7-1.7-1.1-.7-.6-1.5-.7-2.3-.3-.3.2-.8 0-1.2 0 0-.2-.1-.3-.1-.5.4-.3.8-.6 1.3-.8 1.3-.4 1.9-1.3 1.9-2.6-.1-7.3-.1-14.6-.3-21.9 0-1.9-.2-1.9 1.5-2.7 1-.5 1.9-.9 2.9-1.3.8-.3 1.1 0 1 .8 0 .2-.1.4-.2.6-1.3 2.5-1.4 5.3-1.4 8.1.1 5.3 0 10.6 0 15.8 0 2.2.4 2.6 2.7 2.6.3 0 .5.1.8.1.1 0 .2.1.3.3zm110.5 1c.8-.5 1.4-1 2.1-1.5.9-.6 1.4-1.4 1.4-2.6-.1-3.1 0-6.2 0-9.2 0-.3 0-.6-.1-1-1 .3-2 .5-2.9.8-.3-1.5.4-2.8 1.9-3.2.9-.3 1.2-.7 1.2-1.6-.1-1.1 0-2.2 0-3.4-.1-1.3.3-2.3 1.6-2.9.6-.3 1.1-.7 2-1.3v9.4c1.1-.3 2.1-.6 3-.8 1-.2 1.2 0 .9 1v.1c-.3 2.1-1.7 2.5-3.6 2.1-.1.3-.2.5-.2.7V28c0 1.7 1.3 2.4 2.8 1.6.3-.2.8-.1 1.1-.2 0 .1.1.3.1.4-1.4 1.2-2.9 2.4-4.4 3.5-.3.2-1.1.2-1.3 0-1.5-1.3-3-2.2-5-1.5-.1 0-.2 0-.3-.1 0-.2 0-.3-.3-.5zm-171.7.1c.6-.5 1.2-1 1.9-1.5 1.1-.7 1.6-1.7 1.6-3-.1-2.2 0-4.5 0-6.7 0-1.8-.6-2.3-2.4-2-.3 0-.7-.1-.8-.2-.1-.2 0-.7.2-.8.9-.8 1.8-1.6 2.8-2.2 1.1-.7 2.3-.3 3.1.9l.6 1.2c.2.3.3.7.6 1.2.9-1 1.7-1.9 2.5-2.7 1.2-1.2 1.5-1.2 2.8-.1.5.5 1.2.8 1.8 1.1 1 .5 1.1.9.3 1.7-1.4 1.7-3.3 2-5.2.8-.8-.5-2.2.1-2.3 1.3-.2 2.6-.2 5.3-.1 7.9.1 1.3 2 2 3.3 1.5.4-.2.9-.3 1.3-.5.1.1.2.2.2.4-.4.4-.7.9-1.2 1.2-1 .8-2.1 1.5-3.2 2.3-.7.5-1.3.4-1.9-.2-.5-.5-1-.9-1.5-1.4-1-.9-1.9-1-3-.1-.3.4-.9 1-1.4-.1zm282.1-.9c1.2-4.1 1.1-8.6-.1-12.8 2.6-1 5.1-2.1 7.7-3 .3-.1 1 .2 1.3.5 1.1 1.5 2.2 3.1 3.3 4.6.6.8.3 1.4-.5 1.9-2 1.2-4 2.4-6 3.7-1.9 1.2-1.7 2.7.1 4 1.6 1.2 3 1.1 4.6-.1.5-.3 1.2-.3 1.8-.4.1.2.1.4.2.5-2.3 1.4-4.6 2.8-6.9 4-.4.2-1.3-.2-1.9-.5-1.3-.7-2.3-1.5-3.6-2.4zm9.2-8.7c-1.1-1.6-2.1-3.1-3.2-4.5-.2-.2-.7-.4-.9-.4-.3.1-.7.5-.7.8-.1 2.3 0 4.5 0 7 1.7-1 3.2-1.9 4.8-2.9zM71.8 18.2c1-1.1 1.9-2 2.8-3 .7-.8 1.3-.8 2.2-.2.7.5 1.5 1 2.3 1.3.9.4.9 1 .4 1.7-1 1.3-3 1.8-4.7 1.2-2.1-.8-2.9-.3-3 1.9-.1 2-.2 4.1-.2 6.1 0 1.9 1.7 3 3.5 2.4.4-.2.9-.2 1.4-.2.1.2.1.3.2.5-1.6 1.2-3.2 2.4-4.8 3.5-.3.2-.9 0-1.3-.2-.6-.4-1.1-.9-1.6-1.4-1.3-1.3-1.4-1.3-2.9-.3-.6.4-1.1.8-1.6-.2.9-.7 1.9-1.4 2.8-2.2.4-.3.7-.9.7-1.4.1-2.4 0-4.7 0-7.1 0-.5-.2-1.1-.4-1.6-.3-.7-.9-1.2-1.8-.9-.4.1-.8-.2-1.3-.3.2-.4.3-.8.6-1 .7-.7 1.5-1.3 2.4-1.8 1.2-.8 2-.6 2.9.5.3.4.5.8.7 1.2.1.4.3.8.7 1.5zm215.1-.5c1.3-1 2.6-2.1 4-3 .4-.2 1-.2 1.5 0 .4.1.8.4 1.1.7 1.1 1 2.1.7 3-.2.8.4.9.9.2 1.4-3.4 2.6-2.6 2.1-2.7 6.4v4.1c0 2.5 1 3.2 3.4 2.4 0 .2.1.3 0 .4-1.1 1.7-2.6 2.9-4.5 3.5-.5.1-1.5-.5-1.8-1-.5-1-.8-2.2-.8-3.3-.1-3 0-6.1-.1-9.1 0-1.7-.4-2-2-1.9H287c0-.2-.1-.3-.1-.4zm.8-9.3c1.4-1.2 2.5-2.3 3.7-3.2.4-.3 1.2-.1 1.7.2.5.2.9.7 1.3 1 .7-.1 1.7-.5 1.8-.3.5.9-.5 1.1-1 1.6-.7.7-1.4 1.3-2.1 1.9-.6.6-1.3.6-1.9-.1-.7-.9-1.5-1.4-2.6-.8-.1 0-.4-.1-.9-.3z"/></svg>
