<?xml version="1.0" encoding="utf-8"?>
<!-- Generator: Adobe Illustrator 21.1.0, SVG Export Plug-In . SVG Version: 6.00 Build 0)  -->
<svg version="1.1" id="Layer_1" xmlns="http://www.w3.org/2000/svg" xmlns:xlink="http://www.w3.org/1999/xlink" x="0px" y="0px"
	 width="600px" height="50.7px" viewBox="0 0 600 50.7" style="enable-background:new 0 0 600 50.7;" xml:space="preserve">
<g>
	<path d="M278.9,43.4c0.4-1,0.2-2.3,0.9-2.2c0.4,0,0.5,1.4,0.7,2.1v1.1h-1.6V43.4z M315.8,42.9c0.3,0.2,0.2,0.8,0.3,1.2
		c0,0,0,0.1-0.2,0.3h-32.3l-0.3-0.2v-1.3c2-0.3,0.5-2.8,2.5-2.8c1.2,0,1.4,0.9,2,1.6h23.8c0.9,0,0.4-1.6,2.1-1.6
		c0.4,0,0.8,0.3,1.1,0.6C315,41.5,315.1,42.3,315.8,42.9 M317.5,29.3V15.6c0-0.9,0-1-1.5-1v15.7C317.4,30.3,317.5,30.1,317.5,29.3
		 M297.3,22.9c0,1.3,1.2,2.5,2.5,2.5c1.4,0,2.5-1.2,2.5-2.5c0-1.3-1.1-2.5-2.5-2.5C298.5,20.4,297.3,21.5,297.3,22.9 M299.8,28.6
		c-3,0-5.4-2.1-5.7-5H292v5.7c0,0.7,0.6,1.3,1.4,1.3h12.8c0.8,0,1.4-0.6,1.4-1.3V16.1c0-0.7-0.6-1.3-1.4-1.3h-12.8
		c-0.7,0-1.4,0.6-1.4,1.3v6h2.1c0.4-2.8,2.8-5,5.7-5c3.1,0,5.7,2.6,5.7,5.7C305.5,25.9,302.9,28.6,299.8,28.6 M313,33.2V12.3
		c0-1.5-1.3-2.8-2.8-2.8h-20.9c-1.5,0-2.8,1.3-2.8,2.8v9.8h2.4v-8c0-1.3,1.1-2.4,2.4-2.4H308c1.3,0,2.4,1.1,2.4,2.4v17
		c0,1.3-1.1,2.4-2.4,2.4h-16.6c-1.3,0-2.4-1.1-2.4-2.4v-7.6h-1.7c-0.2,0-0.5,0-0.7,0v9.5c0,1.5,1.3,2.8,2.8,2.8h20.9
		C311.8,35.9,313,34.7,313,33.2 M317.9,13.2c0.9,0,1.7,0.8,1.7,1.7V30c0,1-0.8,1.7-1.7,1.7H316V33c0,3.2-2.6,5.9-5.9,5.9h-20.7
		c-3.2,0-5.9-2.6-5.9-5.9v-8.5c-1.9,1.2-3,3.2-3,5.6v9c0,0.5,0.7,0.5,0.7,1c0,0.7-1.1,0.7-1.5,0.7c-0.4,0-1.2-0.2-1.2-0.7
		c0-0.5,0.7-0.6,0.7-1.1v-9.7c0-3,1.8-5.5,4.4-6.7V12.4c0-3.2,2.6-5.9,5.9-5.9h20.7c3.2,0,5.9,2.6,5.9,5.9v0.7H317.9z"/>
	<path d="M0,0.8l34.9,0c6.3,0,11.9,1,16.7,3.1c4.8,2.1,8.6,5,11.3,8.8c2.7,3.8,4.1,8.1,4.1,12.9c0,5-1.2,9.3-3.7,13
		c-2.5,3.7-6.2,6.6-11.1,8.8c-4.9,2.2-10.3,3.3-15.9,3.3H0v-3.2h5.4c1.3,0,2.3-0.3,3-0.8c0.7-0.5,1-1.3,1-2.3l0-37.5
		c0-1-0.4-1.7-1.1-2.2C7.6,4.2,6.4,4,4.8,4H0V0.8z M31.9,47.5c4,0,7.6-0.8,10.7-2.3c3.1-1.5,5.3-3.7,6.7-6.4
		c1.4-2.7,2.1-6.9,2.1-12.5c0-5.9-0.8-10.5-2.4-13.6c-1.6-3.2-3.8-5.4-6.6-6.7c-2.8-1.3-6.9-2-12.3-2c-3,0-4.8,0.2-5.6,0.6
		c-0.7,0.4-1.1,1.1-1.1,2.1l0,37.7c0,1.1,0.3,1.9,0.9,2.4c0.6,0.5,1.6,0.7,2.9,0.7H31.9z"/>
	<path d="M100,0.5l23.9,43.9c0.7,1.2,1.4,2.1,2.2,2.5c0.7,0.4,1.7,0.6,2.9,0.7c0,0.3,0,3.1,0,3.1h-27.3v-3.1h2.8
		c2.2,0,3.7-0.2,4.6-0.6c0.8-0.4,1.2-0.9,1.2-1.5c0-0.5-0.2-1-0.5-1.7l-4.9-9.1H81.1l-2.3,4.1c-1,1.7-1.4,3-1.4,3.8
		c0,1.4,0.7,2.6,2.1,3.5c1.4,0.9,3.3,1.3,5.7,1.3l2,0v3.1H62.9v-3.1h1.4c1.6,0,2.9-0.4,4.1-1.1c1.7-1.1,3-2.4,3.9-4.1L95.2,0.5H100z
		 M93,12.9L82.8,31.5h20.3L93,12.9z"/>
	<path d="M129.7,0.8l33.2,0v3.2h-6c-1.3,0-2.2,0.2-2.8,0.6c-0.6,0.4-0.9,1-0.9,1.7l0,38.6c0,0.9,0.3,1.5,0.9,1.9
		c0.8,0.5,1.9,0.7,3.4,0.7l5.3,0v3.2l-29.6,0l0-3.2l1.5,0c1.8,0,3-0.2,3.7-0.7c0.7-0.5,1.1-1.1,1.1-2l0-38.1c0-0.9-0.3-1.6-1-2.1
		c-0.7-0.4-1.7-0.7-3.1-0.7h-5.8V0.8z"/>
	<path d="M167.6,3.9V0.8l33.3,0v3.2h-5.6c-1.6,0-2.7,0.2-3.4,0.7c-0.6,0.5-1,1.2-1,2.3l0,37.1c0,1.5,0.3,2.5,0.9,2.9
		c0.6,0.4,2.1,0.6,4.3,0.6h9.3c3.5,0,6.7-1.3,9.7-3.8c3-2.5,5.3-6.6,6.9-12.2h4l-1.5,19.1h-57.1v-3.2h5.7c1.3,0,2.2-0.2,2.9-0.7
		c0.6-0.5,1-1.2,1-2.1l0-38.1c0-0.9-0.3-1.6-1-2c-0.7-0.4-1.8-0.6-3.4-0.6H167.6z"/>
	<path d="M214.1,0.8l32.3,0v3.2h-4.5c-1.6,0-2.7,0.2-3.3,0.5c-0.6,0.3-0.9,0.7-0.9,1.2c0,0.6,0.3,1.2,0.8,1.9L252,25.4l9.5-14.5
		c0.8-1.2,1.2-2.3,1.2-3.3c0-1.1-0.5-2-1.5-2.7c-1-0.7-2.6-1-4.7-1h-2V0.8h25.1v3.2c-2.9,0-5.2,0.5-7,1.3c-1.8,0.8-3.3,2.2-4.5,4.1
		l-13.1,19.8l0,15.7c0,0.9,0.3,1.6,1,2.1c0.7,0.4,1.7,0.7,3.1,0.7h6.7v3.2l-35.6,0v-3.2l6.7,0c1.5,0,2.6-0.2,3.2-0.7
		c0.6-0.4,0.9-1.1,0.9-2.1l0-13.9L223.7,7.8c-1.1-1.5-2.3-2.5-3.5-3c-1.2-0.5-2.8-0.8-4.7-0.8h-1.4V0.8z"/>
	<path d="M325,0.8l20.1,0L380.3,35V11.8c0-2.3-0.9-4.1-2.6-5.5c-1.7-1.4-4.1-2.1-7.2-2.3V0.8l23.7,0v3.2c-3.3,0.3-5.7,1-7.1,2.3
		c-1.4,1.2-2.2,3.1-2.2,5.5l0,38.9h-5l-40-39.4v27.3c0,3.1,0.9,5.4,2.8,6.8c1.9,1.4,4.2,2.1,6.9,2.1h1.1v3.2l-26.2,0l0-3.2h1.8
		c2.6,0,4.7-0.8,6.5-2.4c1.8-1.6,2.6-3.6,2.6-6.1V6.9c-2-1.9-4.4-2.9-7.5-2.9H325V0.8z"/>
	<path d="M397.2,0.8l56.5,0l1.3,17.4h-3.9c-0.9-4.1-2-7.1-3.4-8.9c-1.4-1.8-3.1-3.2-5.4-4.1c-2.2-0.9-5.1-1.3-8.7-1.3h-8.9
		c-1.4,0-2.4,0.2-3,0.6c-0.6,0.4-0.9,1-0.9,1.7v17.2h3c3.5,0,6.2-0.8,8.1-2.3c1.9-1.5,3.1-4,3.4-7.4h4v23.2h-4
		c-0.3-3.8-1.4-6.6-3.3-8.1c-1.9-1.6-4.9-2.4-8.8-2.4h-2.5V45c0,0.8,0.3,1.4,0.9,1.7c0.9,0.5,2.3,0.7,4,0.7h7.8
		c5.4,0,9.7-1.3,13.1-3.9c3.4-2.6,5.5-6.6,6.3-11.9h3.9l-1,19l-59,0l0-3.2h5.8c1.3,0,2.3-0.3,3-0.8c0.7-0.5,1-1.2,1-2.1V6.3
		c0-0.8-0.3-1.4-1-1.8c-0.7-0.4-1.9-0.6-3.7-0.6h-5.1V0.8z"/>
	<path d="M458.1,0.5l25.8,0v3.1h-2.4c-1.5,0-2.6,0.1-3.1,0.4c-0.5,0.3-0.8,0.7-0.8,1.2c0,0.4,0.1,0.9,0.3,1.4l12.7,29.1l11.1-25.4
		l-1.9-4.2c-0.4-0.9-1-1.5-1.7-1.8c-1-0.4-2.2-0.7-3.8-0.7h-3.1V0.5l29.7,0v3.1h-2.7c-2,0-3.4,0.2-4.1,0.5c-0.7,0.4-1.1,0.9-1.1,1.5
		c0,0.3,0.1,0.6,0.2,0.9L526,35.7l10.6-25.6c0.4-0.8,0.5-1.5,0.5-2.3c0-1.4-0.5-2.4-1.4-3.1c-0.9-0.7-2.2-1.1-3.7-1.1h-1.8V0.5
		l20.9,0v3.1c-2.3,0-4.2,0.5-5.5,1.2c-1.4,0.8-2.4,2-3,3.5l-17.7,42.3h-5.3l-15.1-34.6l-15.1,34.6h-5.4L464.3,6.1
		c-0.4-0.9-0.9-1.6-1.6-1.9c-0.7-0.4-1.5-0.5-2.5-0.5h-2V0.5z"/>
	<path d="M589.2,4.9l4-4.3h3.1l0.4,16.8h-3.8c-2-4.8-4.8-8.4-8.5-10.8c-3.7-2.4-7.7-3.6-12.1-3.6c-3.8,0-6.8,0.8-9.2,2.4
		c-2.4,1.6-3.6,3.5-3.6,5.7c0,1.3,0.5,2.5,1.4,3.6c0.9,1.1,2.4,2,4.5,2.8c2.1,0.8,5.7,1.6,10.9,2.4c6.1,1,10.3,1.9,12.6,2.7
		c3.7,1.3,6.5,2.9,8.3,5c1.8,2.1,2.8,4.6,2.8,7.6c0,4.5-2,8-6,10.7c-4.8,3.2-10.8,4.8-17.9,4.8c-6.6,0-12.5-1.8-18-5.3l-5,4.8H550
		l0-17.9h3.7c3.7,10.3,11.3,15.4,22.6,15.4c4.7,0,8.3-0.8,10.8-2.5c2.6-1.6,3.9-3.7,3.9-6.2c0-1.7-0.6-3.2-1.7-4.3
		c-1.1-1.2-2.9-2.1-5.3-2.8c-1.3-0.4-4.5-1-9.7-1.9c-6.9-1.2-11.9-2.4-14.9-3.7c-3-1.3-5.1-2.8-6.5-4.6c-1.4-1.8-2.1-4-2.1-6.7
		c0-4.4,1.9-8,5.8-10.8c3.8-2.8,9-4.2,15.5-4.2C578.4,0,584.1,1.7,589.2,4.9z"/>
</g>
</svg>
