<?xml version="1.0" encoding="utf-8"?>
<!-- Generator: Adobe Illustrator 21.1.0, SVG Export Plug-In . SVG Version: 6.00 Build 0)  -->
<svg version="1.1" id="Layer_1" xmlns="http://www.w3.org/2000/svg" xmlns:xlink="http://www.w3.org/1999/xlink" x="0px" y="0px"
	 viewBox="0 0 409 73.6" style="enable-background:new 0 0 409 73.6;" xml:space="preserve" preserveAspectRatio="meet">
<g>
	<path d="M141.5,46.1h-15.2v-2.9c2.8,0,3.4-0.8,3.4-3.3V27.6c0-3.1-1-4.3-2.8-4.3c-2.2,0-4.2,1.4-5.8,3.1v13.4
		c0,2.2,0.7,3.2,3.4,3.2v2.9h-15.3v-2.9c2.3,0,3.5-0.8,3.5-2.9V28.1c0-2.8-0.5-3.4-2.2-3.4h-1.3v-3c3.7-0.8,7.9-2.3,11.6-4.1
		l0.4,0.3v3.5c2-1.9,5.5-4.6,9.1-4.6c5.1,0,7.9,2.7,7.9,9.4v13.6c0,2.7,0.7,3.3,3.4,3.3V46.1z"/>
	<path d="M81,46.1H65.7v-2.9c2.5,0,3.4-0.9,3.4-2.9V11.1c0-2.6-0.5-3.1-2.3-3.1h-1.3V5.1c4.2-0.9,7.7-2.4,11.6-4.1l0.4,0.2v39
		c0,1.9,0.9,2.9,3.4,2.9V46.1z"/>
	<path d="M68.3,18.9l-4.5,6.2c-0.5-1-1.4-1.5-2.8-1.5c-2.1,0-3.4,1.2-4.7,3.4v13c0,2.2,0.8,3.2,3.4,3.2v2.9H44.6v-2.9
		c2.5,0,3.4-0.8,3.4-2.7V27.5c0-2.2-0.5-2.9-2.4-2.9h-1.2v-2.9c3.9-0.9,7.8-2.3,11.4-4.1l0.4,0.2V22h0.1c1.8-3,3.9-5.1,6.8-5.1
		C65.8,16.9,67.3,17.7,68.3,18.9z"/>
	<path d="M197.4,31.8c0,8.8-6.1,14.9-13.9,14.9c-7.7,0-14-6.1-14-14.9c0-9.7,6.1-14.9,14-14.9C191.2,16.9,197.4,22.1,197.4,31.8z
		 M188.9,31.8c0-7.8-2.3-11-5.5-11c-3.2,0-5.4,3.7-5.4,11c0,7.6,2.2,11,5.4,11C186.6,42.7,188.9,39.4,188.9,31.8z"/>
	<path d="M170.4,46.1h-10.3c-0.5-1-0.9-2.2-1-3.2c-1.5,1.7-3.8,3.5-7.5,3.5c-6.4,0-11-4.5-11-14.4c0-10,5.3-15,12.7-15
		c2.6,0,4.4,0.5,5.4,1v-6.8c0-2.5-0.5-3.1-2.7-3.1H155V5.1c3.8-0.9,8.2-2.4,11.6-4.1l0.5,0.2v39c0,2,0.9,2.9,3.4,2.9V46.1z
		 M158.6,39.4V22.2c-0.9-0.7-2.4-1.3-4-1.3c-4.3,0-5.5,4.7-5.5,10.5c0,6.7,1.6,10.3,5.2,10.3C155.9,41.7,157.7,40.6,158.6,39.4z"/>
	<path d="M108,43.3c-1.5,1.7-3.9,3.4-7,3.4c-3.4,0-4.4-1.7-5-3.5c-2.3,2.2-3.9,3.5-8,3.5c-4.1,0-7-3-7-7.1c0-5,2.4-9,14.6-11.1v-3
		c0-2.2-1-3.4-3.2-3.4c-2.8,0-4.7,0.8-7.1,2.8L83,22.2c3.3-3.1,6.9-5.3,11.8-5.3c7,0,9.1,3.7,9.1,9.2l0,14c0,1.3,0.5,1.7,1.2,1.7
		c0.6,0,1.1-0.2,1.4-0.5L108,43.3z M95.6,40v-7.9c-2.1,0-6.2,2.3-6.2,5.8c0,2.2,1.2,3.4,2.9,3.4C93.4,41.3,94.4,41,95.6,40z"/>
	<path d="M43,23.3c0,15.4-10.8,23.3-21.5,23.3C10.4,46.6,0,38.8,0,23.3C0,7.4,11.4,0,21.5,0C31.6,0,43,7.5,43,23.3z M32.5,23.3
		c0-13.2-5.2-18.9-10.8-18.9c-5.9,0-11.1,5.6-11.1,18.8c0,13.5,5.3,18.9,11.1,18.9C27.6,42.2,32.5,36.4,32.5,23.3z"/>
	<path d="M409,46h-15.2v-3c2.5,0,3.4-0.9,3.4-2.9V11.1c0-2.6-0.6-3.1-2.4-3.1h-1.2V5c4.2-1.1,8-2.4,11.6-4.1l0.5,0.2v39
		c0,1.9,0.8,2.9,3.4,2.9V46z"/>
	<path d="M370.1,46.1h-15.2v-2.9c2.8,0,3.4-0.8,3.4-3.3V27.6c0-3.1-1-4.3-2.8-4.3c-2.2,0-4,1.3-5.8,3.1v13.4c0,2.2,0.7,3.2,3.4,3.2
		v2.9h-15.3v-2.9c2.3,0,3.4-0.8,3.4-2.9V28.1c0-2.7-0.3-3.4-2.2-3.4h-1.3v-3c3.9-0.9,7.9-2.4,11.6-4.1l0.4,0.3v3.5
		c2-1.9,5.7-4.6,9.1-4.6c5.1,0,7.9,2.8,7.9,9.4v13.6c0,2.7,0.7,3.3,3.4,3.3V46.1z"/>
	<circle cx="328.3" cy="8" r="5"/>
	<path d="M336,46.1h-15.3v-2.9c2.5,0,3.4-0.8,3.4-2.9V27.8c0-2.7-0.5-3.1-2.3-3.1h-1.3v-2.9c4.3-1.1,7.9-2.4,11.6-4.1l0.5,0.2v22.3
		c0,1.9,0.9,2.9,3.4,2.9V46.1z"/>
	<path d="M319.7,42.4c-2.5,2.7-5.2,4.2-8.5,4.2c-5.5,0-7.6-3-7.6-7.5V22.4h-4.5l1.2-4.5h3.2v-6.1c3.4-1.3,7.8-4.4,7.8-4.4l0.5,0.2
		v10.4h6.7l-1,4.4h-5.7v16.2c0,2.1,0.7,2.8,2.1,2.8c1.2,0,2.5-0.5,4-1.8L319.7,42.4z"/>
	<path d="M301.4,46.1h-15.2v-2.9c2.8,0,3.4-0.8,3.4-3.3V27.6c0-3.1-1-4.3-2.8-4.3c-2.2,0-3.9,1.1-5.9,3.1v13.4
		c0,2.2,0.7,3.2,3.4,3.2v2.9H269v-2.9c2.3,0,3.5-0.8,3.5-2.9V28.1c0-2.7-0.3-3.4-2.3-3.4h-1.3v-3c3.9-0.9,7.9-2.3,11.6-4.1l0.4,0.3
		v3.5c2-1.9,5.7-4.6,9.1-4.6c5.1,0,8,2.8,8,9.4v13.6c0,2.7,0.7,3.3,3.4,3.3V46.1z"/>
	<path d="M241.5,33c0,9.2-6.4,13.7-16,13.7c-5.1,0-8.6-1.8-10.2-1.7c0,0-1.6,0.1-1.7,1.9h-3.3V32h3.2c1.9,10.6,7.6,11,11.2,11
		c5.5,0,8.6-2.2,8.6-6.2c0-3.8-2.3-6-10.7-9.7c-6.7-3-11.9-6.8-11.9-13.6c0-7.8,6.2-12,14.4-12c4.4,0,7.7,2.1,8.8,2.1
		c0.6,0,1.2-0.5,1.5-1.5h3.5v13.4h-3.2c-0.6-6.2-4.2-10-10.7-10c-4.2,0-6.9,1.8-6.9,4.7c0,3.6,2,4.7,11.2,8.6
		C235.8,21.4,241.5,25.1,241.5,33z"/>
	<path d="M394.6,31.9h-16.9c0,6.5,2.8,9.7,6.9,9.7c3.5,0,5.6-1.8,6.7-3.2l2.4,2.2c-3.3,3.7-6.1,5.8-12.1,5.8
		c-7.1,0-12.2-5.6-12.2-14.1c0-9.5,5.9-15.4,12.9-15.4C390.6,16.8,394.6,22.7,394.6,31.9z M385.9,28.3c0-4.4-0.9-7.7-3.8-7.7
		c-2.9,0-4.3,3-4.3,7.7H385.9z"/>
	<path d="M268.1,31.9h-16.9c0,6.7,3,9.7,6.9,9.7c3.6,0,5.6-1.8,6.7-3.2l2.4,2.2c-3.3,3.7-6.1,5.8-12.1,5.8
		c-7.1,0-12.3-5.6-12.3-14.1c0-9.5,5.9-15.4,13-15.4C264.1,16.8,268.1,22.7,268.1,31.9z M259.4,28.3c0-4.4-0.9-7.7-3.8-7.7
		c-2.9,0-4.3,3-4.3,7.7H259.4z"/>
</g>
<g>
	<path d="M243.1,57.9h2.9l4.7,7.3l4.7-7.3h2.9v15.4h-2.7v-11l-4.9,7.3h-0.1l-4.8-7.2v11h-2.7V57.9z"/>
	<path d="M262.5,57.9h11.4v2.4h-8.7v4h7.7v2.4h-7.7v4.1h8.8v2.4h-11.5V57.9z"/>
	<path d="M277.6,57.9h5.7c4.8,0,8.2,3.3,8.2,7.7v0c0,4.3-3.3,7.7-8.2,7.7h-5.7V57.9z M283.3,70.9c3.2,0,5.3-2.2,5.3-5.2v0
		c0-3-2.1-5.2-5.3-5.2h-3v10.5H283.3z"/>
	<path d="M295.3,57.9h2.7v15.4h-2.7V57.9z"/>
	<path d="M307.9,57.8h2.5l6.8,15.5h-2.9l-1.6-3.7h-7.3l-1.6,3.7h-2.8L307.9,57.8z M311.7,67.2l-2.7-6.2l-2.6,6.2H311.7z"/>
	<path d="M326.4,65.7L326.4,65.7c0-4.4,3.3-8,7.9-8c2.7,0,4.3,0.7,5.9,2.1l-1.7,2c-1.2-1-2.4-1.6-4.3-1.6c-2.8,0-5,2.5-5,5.4v0
		c0,3.2,2.1,5.5,5.2,5.5c1.5,0,2.8-0.5,3.7-1.2v-2.9h-3.9v-2.4h6.6v6.5c-1.5,1.3-3.7,2.4-6.4,2.4C329.5,73.6,326.4,70.2,326.4,65.7z
		"/>
	<path d="M344.6,57.9h6.9c1.9,0,3.5,0.6,4.4,1.5c0.8,0.8,1.3,2,1.3,3.3v0c0,2.5-1.5,4-3.7,4.7l4.2,5.8h-3.2l-3.8-5.4h0h-3.3v5.4
		h-2.7V57.9z M351.3,65.6c1.9,0,3.2-1,3.2-2.6v0c0-1.6-1.2-2.6-3.2-2.6h-3.9v5.2H351.3z"/>
	<path d="M360.2,65.7L360.2,65.7c0-4.4,3.3-8,8.1-8c4.7,0,8,3.6,8,7.9v0c0,4.3-3.3,8-8.1,8S360.2,70,360.2,65.7z M373.4,65.7
		L373.4,65.7c0-3-2.2-5.5-5.2-5.5s-5.2,2.4-5.2,5.4v0c0,3,2.2,5.5,5.2,5.5S373.4,68.7,373.4,65.7z"/>
	<path d="M379.6,66.8v-8.9h2.7v8.8c0,2.9,1.5,4.4,3.9,4.4c2.4,0,3.9-1.5,3.9-4.3v-8.9h2.7v8.7c0,4.6-2.6,6.9-6.6,6.9
		C382.2,73.6,379.6,71.3,379.6,66.8z"/>
	<path d="M396.9,57.9h6.1c3.6,0,5.9,2,5.9,5.1v0c0,3.5-2.8,5.3-6.2,5.3h-3.1v5h-2.7V57.9z M402.7,65.9c2,0,3.3-1.1,3.3-2.8v0
		c0-1.8-1.3-2.8-3.3-2.8h-3.1v5.5H402.7z"/>
</g>
<rect x="0" y="65.6" width="231.7" height="2.7"/>
</svg>
