<?xml version="1.0" encoding="utf-8"?>
<!-- Generator: Adobe Illustrator 21.1.0, SVG Export Plug-In . SVG Version: 6.00 Build 0)  -->
<svg version="1.1" id="Layer_1" xmlns="http://www.w3.org/2000/svg" xmlns:xlink="http://www.w3.org/1999/xlink" x="0px" y="0px"
	  preserveAspectRatio="meet" viewBox="0 0 697.8 86.7" style="enable-background:new 0 0 697.8 86.7;" xml:space="preserve" >
<g>
	<path d="M0,72"/>
	<path d="M625.8,62.2c-2.8,2.3-8.4,7.3-10.9,9.8c-2.4-2.2-7.4-6.1-10.6-8.4v-0.4c0.9-0.3,1.5-1.1,1.5-3.2v-24
		c-2.5-1.8-7.2-4.7-9.9-6.4l-2.1,2v29.6l4.2,3.2c0,0-5.9,5.1-8.4,7.6c-2.3-2.2-5.8-4.9-8.9-7.2v-0.3c0.9-0.3,1.5-1.2,1.5-3.3V36.1
		c-2.5-1.8-7.1-4.7-9.8-6.4l-2.6,2.2v29.4l4.2,3.2c0,0-5.7,4.7-8.4,7.5c-2.6-2.3-5.5-4.5-8.9-7.1v-0.2c1-0.4,1.5-1.6,1.5-3V32.7
		l-3.5-3.1l-2.7,2.3l-1.1-1.2c2.6-2.2,7.2-6.3,10.9-9.9l7.9,7.1v2l10.7-9.1c3.4,2.4,13.3,8.7,13.3,8.7l10.3-8.7
		c3.3,2.6,10.8,7.3,15,9.7V31c-1.4,0.4-1.5,2.1-1.5,3.1v26l4.4,3.4l2.6-2.3L625.8,62.2z"/>
	<path d="M551.7,11.5c-2.8,3.9-5,5.7-9.5,5.7c-3,0-5.2-1.4-7.6-4.3l-2.5,2.4l-1.1-1.3l10.8-9.7c3,6.1,6.7,7,9.6,6.9L551.7,11.5z"/>
	<path d="M554.5,62.2c-3,2.6-8.1,7-10.8,9.8c-2.6-2.3-7-5.7-10.5-8.4v-0.3c1-0.4,1.5-1.6,1.5-3V32.7l-3.5-3.1l-2.7,2.3l-1.1-1.2
		c2.6-2.2,7.2-6.3,10.9-9.9l9.4,8.4v0.4c-1.1,0.3-1.5,1.1-1.5,3.6v26.8l4.5,3.2l2.5-2.2L554.5,62.2z"/>
	<path d="M369.7,62.2c-3,2.6-8.1,7-10.8,9.8c-2.6-2.3-7-5.7-10.5-8.4v-0.3c1-0.4,1.5-1.6,1.5-3V15.6l-3.5-3.1l-2.7,2.3l-1.1-1.2
		c2.6-2.2,6.7-6.2,10.4-9.8l10,8.4v0.4c-1.1,0.3-1.5,1.1-1.5,3.6v43.9l4.5,3.2l2.6-2.2L369.7,62.2z"/>
	<path d="M266.2,62.2c-2.8,2.3-8.3,7.3-10.8,9.8c-2.4-2.2-7.4-6.1-10.5-8.4v-0.4c0.9-0.3,1.5-1.1,1.5-3.2v-24
		c-2.5-1.8-7.1-4.7-9.8-6.4c-0.5,0.4-2,1.7-2.6,2.2v29.4l4.2,3.2c0,0-5.8,4.7-8.5,7.5c-2.6-2.3-5.4-4.5-8.8-7.1v-0.2
		c1-0.4,1.5-1.6,1.5-3V32.7l-3.6-3.2l-2.6,2.3l-1.2-1.2c2.6-2.2,7.3-6.2,11-9.8L234,28v2l10.7-9.1c3.3,2.6,10.7,7.3,14.9,9.7V31
		c-1.4,0.4-1.5,2.1-1.5,3.1v26l4.5,3.3l2.5-2.3L266.2,62.2z"/>
	<path d="M697.8,59.5c-6.7,2.9-16.5,8.2-21.2,12.5c-2.4-2.3-5.6-4.5-9.8-4.5c-3.9,0-5.8,1.4-5.8,2.8c0,0.8,1.6,0.7,1.6,1.9
		c0,0.6-0.4,1.2-1.2,1.2c-0.9,0-2.1-1.3-2.1-3c0-3.1,1.6-5.8,6.5-10.9l8.6-9c-3.6-1.8-8.7-4.1-11.6-5.4v-0.4
		c0.8-0.2,1.4-1.1,1.4-2.1v-7.4c0-0.8-0.4-2.1-1.4-2.4v-0.4c7.3-2.6,16.5-7.8,21.8-11.5c1.2,1.3,4.3,4.1,7.6,4.1
		c2.8,0,3.5-1.4,3.5-2.4c0-0.6-1.1-0.9-1.1-1.7c0-0.7,0.4-1.1,1-1.1c0.8,0,1.5,0.8,1.5,2.4c0,4.7-4.4,10.8-11.4,10.8
		c-4.6,0-7.4-2.4-9.6-5.4l-0.2,0.1v11.6l6.3,3.1l2.9-3c3,1.9,9.3,5.2,12.6,6.6v0.3c-0.6,0.3-1.5,1-1.5,2.4v8.2
		c0,1.2,0.9,1.9,1.5,2.2V59.5z M684.8,64.9V51c-1.6-0.8-4.1-1.9-5.8-2.7l-13.3,13.8l0.4,0.1c2-1.1,3.8-2.5,8-2.5
		c4.2,0,8.5,3.1,10.6,5.3L684.8,64.9z"/>
	<path d="M659.9,36.7l-20.5,12.8v8.7c2.6,1.1,8.4,3.9,11.1,5.8l4.4-4.5c1.2-1.2,0.8-3.3,3-3.3c0.6,0,1.1,0.4,1.1,1.1
		c0,0.7-0.5,1.1-0.9,1.4L644.6,72c-4.6-2.9-13.9-7.2-18.4-9.1v-0.4c0.7-0.3,1.6-0.8,1.6-2.7V35.5c0-2-0.8-2.6-1.6-2.8v-0.4
		c6.9-2.2,17.5-7.9,22.5-11.4C652.1,26.1,656.6,32.5,659.9,36.7z M649,41.6c-2.4-3.4-6.7-9.5-9.4-13.4l-0.3,0.1v19.5L649,41.6z"/>
	<path d="M529.4,6.6c0,7-5.1,10.5-10.6,11.5v43.5c7-3.9,8.4-8.2,8.4-10.2c0-0.4-0.9-1-0.9-1.8c0-0.6,0.7-1.2,1.2-1.2
		c0.8,0,1.2,0.7,1.2,2c0,10.1-9.7,23.7-30.2,23.7c-15.4,0-28.5-12.1-28.5-27.7c0-22.3,18.7-30,31.7-30.8c-4.8-1-12.4-2.7-18.7-2.7
		c-7.3,0-13.3,4.4-13.3,8.3c0,1.5,1.2,1.7,1.2,2.8c0,0.6-0.3,1.2-1.1,1.2c-1.2,0-1.6-1.3-1.6-2.2c0-8.5,5.5-20.5,18.2-20.5
		c12.9,0,22.8,4.7,32.8,4.7c6.7,0,8.7-2.4,8.4-6.2l1.1,0.5C529,2,529.4,4,529.4,6.6z M517.4,62.2V18.3c-0.5,0-1.4,0.1-1.9,0.1
		c-3,0-8.2-1.2-11.5-2.1c-10,1.8-21.7,10.3-21.7,26.2c0,13.6,9.7,22.4,23.5,22.4C510.5,64.9,514.6,63.9,517.4,62.2z"/>
	<path d="M443,59.5c-6.7,2.9-16.5,8.2-21.2,12.5c-2.4-2.3-5.6-4.5-9.8-4.5c-3.9,0-5.8,1.4-5.8,2.8c0,0.8,1.6,0.7,1.6,1.9
		c0,0.6-0.4,1.2-1.2,1.2c-0.9,0-2.1-1.3-2.1-3c0-3.1,1.6-5.8,6.5-10.9l8.6-9c-3.6-1.8-8.7-4.1-11.6-5.4v-0.4
		c0.8-0.2,1.4-1.1,1.4-2.1v-7.4c0-0.8-0.4-2.1-1.4-2.4v-0.4c7.3-2.6,16.5-7.8,21.8-11.5c1.2,1.3,4.3,4.1,7.6,4.1
		c2.8,0,3.5-1.4,3.5-2.4c0-0.6-1.1-0.9-1.1-1.7c0-0.7,0.4-1.1,1-1.1c0.8,0,1.5,0.8,1.5,2.4c0,4.7-4.4,10.8-11.4,10.8
		c-4.6,0-7.4-2.4-9.6-5.4l-0.2,0.1v11.6l6.3,3.1l2.9-3c3,1.9,9.3,5.2,12.6,6.6v0.3c-0.6,0.3-1.5,1-1.5,2.4v8.2
		c0,1.2,0.9,1.9,1.5,2.2V59.5z M430,64.9V51c-1.6-0.8-4.1-1.9-5.8-2.7l-13.3,13.8l0.4,0.1c2-1.1,3.8-2.5,8-2.5
		c4.2,0,8.5,3.1,10.6,5.3L430,64.9z"/>
	<path d="M405.3,36.7l-20.4,12.8v8.7c2.6,1.1,8.4,3.9,11.1,5.8l4.4-4.5c1.2-1.2,0.8-3.3,3-3.3c0.6,0,1,0.4,1,1.1
		c0,0.7-0.5,1.1-0.9,1.4L390.1,72c-4.6-2.9-13.9-7.2-18.4-9.1v-0.4c0.7-0.3,1.5-0.8,1.5-2.7V35.5c0-2-0.7-2.6-1.5-2.8v-0.4
		c6.9-2.2,17.5-7.9,22.5-11.4C397.6,26.1,402,32.5,405.3,36.7z M394.6,41.6c-2.4-3.4-6.7-9.5-9.4-13.4l-0.3,0.1v19.5L394.6,41.6z"/>
	<path d="M346.8,36.7l-20.4,12.8v8.7c2.6,1.1,8.4,3.9,11.1,5.8l4.4-4.5c1.2-1.2,0.7-3.3,2.9-3.3c0.6,0,1.1,0.4,1.1,1.1
		c0,0.7-0.5,1.1-0.9,1.4L331.7,72c-4.6-2.9-13.9-7.2-18.4-9.1v-0.4c0.7-0.3,1.5-0.8,1.5-2.7V35.5c0-2-0.7-2.6-1.5-2.8v-0.4
		c6.9-2.2,17.5-7.9,22.5-11.4C339.2,26.1,343.6,32.5,346.8,36.7z M336,41.6c-2.4-3.4-6.7-9.5-9.4-13.4l-0.2,0.1v19.5L336,41.6z"/>
	<path d="M310.1,68.2c-0.3,11-5.7,18.5-15.9,18.5c-8,0-13.9-4.1-21.2-4.1c-4.2,0-6.6,1.3-7.8,2.8l-0.5-0.3c0.4-8,6.1-12.4,13.2-12.4
		c7.9,0,13.7,5.1,22.1,5.1c5.4,0,8.1-2.8,8.6-5.7l-0.1-0.2c-1.1,0.7-2.5,1.5-4.7,1.5c-4.3,0-9-3-9.8-8.3c-2.1,1.4-6.7,5-8.7,6.8
		c-5.1-3.3-13.2-7.4-17.2-9.1v-0.4c0.8-0.3,1.3-1.3,1.3-2.3V35.4c0-1.5-0.5-2.5-1.5-2.7v-0.4c7.3-2.7,16.8-7.6,21.9-11.6
		c4.4,3.5,12.5,8.4,17.2,11.1v0.5c-1,0.4-1.5,1.1-1.5,3.5v26.7c0,3.4,0.3,5.8,2.8,5.8c0.4,0,0.9-0.3,1.2-0.8L310.1,68.2z
		 M293.9,63.6V36.5c-3.4-1.9-8.9-5.7-12.6-8.9l-0.2,0.1V58c3.4,1.6,8.9,4.8,11.4,6.7L293.9,63.6z"/>
	<path d="M219.7,61.5L208.4,72c-3.3-2.3-6.1-4.2-10.3-6.8v-0.5c0.9-0.3,1.4-1.3,1.4-2.4c0-0.5,0-1-0.2-1.5L196,50.2h-23.3l-3.1,8.8
		c4.8,0,7.6,0.7,10,1.7l2-3.7l1.4,0.8l-7.7,14.3c-3.1-1.8-6.6-3.2-10.7-3.2c-4.7,0-8.3,1.2-10.1,2.9c-0.3,0.3-0.9,0.2-0.7-0.5
		c1.9-6.7,6.7-11.7,14-12.2l16.2-44.9c-1.8-5.3-3.8-6.3-7.9-6.3c-3.8,0-7.5,1.8-7.5,6.4c0,2.2,2.1,2,2.1,3.6c0,0.6-0.5,1.2-1.2,1.2
		c-1.4,0-2.3-1.8-2.3-5.5c0-8.2,6.2-13.1,13.1-13.1c6.2,0,8.7,2.4,10.6,5c0.6-2.4,3.1-3.5,4.9-3.8l0.2,0.3c-1.2,1.4-1.8,2.7-1.8,4.5
		c0,0.9,0.7,3.1,1,3.8l17.5,50.5l3.2,2l2.7-2.5L219.7,61.5z M193.8,43.6l-8.9-27.3l-9.7,27.3H193.8z"/>
	<path d="M135,59.5c-6.7,2.9-16.4,8.2-21.1,12.5c-2.4-2.3-5.7-4.5-9.9-4.5c-3.9,0-5.7,1.4-5.7,2.8c0,0.8,1.6,0.7,1.6,1.9
		c0,0.6-0.5,1.2-1.2,1.2c-0.9,0-2.1-1.3-2.1-3c0-3.1,1.7-5.8,6.6-10.9l8.6-9c-3.6-1.8-8.8-4.1-11.7-5.4v-0.4
		c0.8-0.2,1.5-1.1,1.5-2.1v-7.4c0-0.8-0.5-2.1-1.5-2.4v-0.4c7.3-2.6,16.5-7.8,21.8-11.5c1.2,1.3,4.3,4.1,7.6,4.1
		c2.8,0,3.5-1.4,3.5-2.4c0-0.6-1-0.9-1-1.7c0-0.7,0.3-1.1,0.9-1.1c0.8,0,1.6,0.8,1.6,2.4c0,4.7-4.5,10.8-11.5,10.8
		c-4.6,0-7.4-2.4-9.6-5.4l-0.2,0.1v11.6l6.4,3.1l2.9-3c3,1.9,9.2,5.2,12.5,6.6v0.3c-0.6,0.3-1.4,1-1.4,2.4v8.2
		c0,1.2,0.8,1.9,1.4,2.2V59.5z M121.9,64.9V51c-1.6-0.8-4-1.9-5.7-2.7l-13.4,13.8l0.5,0.1c2-1.1,3.8-2.5,8-2.5
		c4.2,0,8.4,3.1,10.5,5.3L121.9,64.9z"/>
	<path d="M95.3,59.5c-5.8,2.4-17,8.2-21.8,12.5c-5.1-3.7-12.5-8.6-17.3-11.3v-0.3c1.2-0.4,1.5-1.3,1.5-2.8V35.8c0-2-0.5-2.7-1.5-3.1
		v-0.4c7.9-2.9,15.5-7.1,21.9-11.5c4.4,3.3,12.1,8.1,17.2,11.1v0.4c-0.9,0.4-1.5,1.3-1.5,2.8v21.6c0,1.6,0.6,2.1,1.5,2.4V59.5z
		 M82.2,65V36.5c-4-2.2-9.8-6.5-12.6-8.9l-0.2,0.1v29.1c3.8,2.1,9.5,5.7,12.6,8.4L82.2,65z"/>
	<path d="M55.7,57.2l-8.2,15.1c-4.4-3.1-11.5-5-17.6-5c-11.9,0-20.2,2.1-24.4,4.8l-0.5-0.6c3.8-3.3,10.1-8.6,10.1-20.7
		c0-5.1-2.1-10.9-3.6-14.7c-1.7-4.4-3.1-6.7-3.1-12.9c0-10.7,5.7-16.7,14.8-21.3l0.8,0.9C21,5.4,19.5,8.7,19,12.1L33.5,0
		c3.7,5.2,7.2,7.2,11.7,7.2c3.7,0,4.8-1.7,4.8-3c0-1-1.2-1.1-1.2-2c0-0.9,0.6-1.2,1.2-1.2c1.1,0,1.7,1.5,1.7,2.6
		c0,7.3-6.1,12.7-12.6,12.7c-1.1,0-2,0.1-2.7,0v40.2c5.6,0,11.4,1.7,15.6,3.8l2.2-3.8L55.7,57.2z M34.9,56.5V16.1
		c-5.7-0.6-8.6-4.8-10.5-7L19,13.5c0,6.1,1.8,11.5,3.9,16.4c1.9,4.5,4,10.3,4,14.3c0,6.6-3.7,10.8-12.4,19l0.3,0.3
		C20.1,59.7,28,56.7,34.9,56.5z"/>
	<path d="M513.7,22.2c0,0.6-0.7,1.1-1.2,1.1c-0.7,0-1.4-1.4-3.5-1.4c-3.1,0-5.6,2.6-5.6,5.7c0,8,7.9,11.3,7.9,20.4
		c0,7.7-7.5,12.1-15.3,13.2l-1.4-1.1c4.3-0.6,6.2-2,6.2-7.2c0-7-7.2-12.7-7.2-20.9c0-6.7,6.2-11.8,14.8-11.8c1.7,0,3.3,0.5,4.2,1
		C513.2,21.3,513.7,21.7,513.7,22.2z"/>
</g>
</svg>
