<?xml version="1.0" encoding="utf-8"?>
<!-- Generator: Adobe Illustrator 21.1.0, SVG Export Plug-In . SVG Version: 6.00 Build 0)  -->
<svg version="1.1" id="Layer_1" xmlns="http://www.w3.org/2000/svg" xmlns:xlink="http://www.w3.org/1999/xlink" x="0px" y="0px"
	 preserveAspectRatio="meet" viewBox="0 0 300 65.7" style="enable-background:new 0 0 300 65.7;" xml:space="preserve">
<g>
	<path d="M98.8,21.4l4.9-3.6l5.5,2.9c0,0-0.9,0.6-0.9,1.7v15c0,0,0.7,0.8,1,1.1c0.3,0.3,0.7,0.6,1.1,0.7c0.4,0.1,0.6,0.1,0.8,0
		c0.2-0.1,0.5-0.3,0.5-0.4s0.2-0.2,0.2-0.2l0.6,0.6l-5.8,5.2l-6.1-4.6c0,0,0.6-0.5,0.6-1.4V23.3c0-0.4-0.3-1-0.8-1.4
		c0,0-0.3-0.2-0.6-0.3c-0.3-0.1-0.5-0.1-0.6-0.1C99.1,21.4,98.8,21.4,98.8,21.4z M104.4,9.5l-3.7,3.2l4.2,2.8l3.7-3.2L104.4,9.5z
		 M87.8,24.7v3.6c-0.7,0.1-2,0.3-3.8,0.8c-2.5,0.8-4.8,2-6.1,3c-1.2,1-2.1,3.6-2,5.4c0.1,1.8,1.1,3.8,2.4,5.1
		c1.3,1.4,3.8,1.9,3.8,1.9l5.6-4.2v0l5.4,4.2l5.7-5.2l-0.5-0.5c0,0-1.1,1-2.1,0.2c-0.5-0.4-1-0.9-1.5-1.3V23.8c0,0,0-0.5,0.2-0.8
		c0.2-0.3,0.4-0.4,0.5-0.5s0.3,0,0.3,0l-8.1-4.8L76.8,25c0,0,0.7,0.5,1.1,0.9c0.3,0.4,0.6,0.8,0.9,1.4c0.3,0.6,0.4,1.3,0.4,1.3
		s1.1-0.5,1.6-0.8c0.6-0.3,1.2-0.8,1.7-1.3c0.5-0.5,0.8-1,0.7-1.6c0-0.6-0.4-1.2-0.9-1.6c-0.4-0.4-0.6-0.4-0.6-0.4l2-1.4
		C83.7,21.5,87.8,24.7,87.8,24.7z M85.7,40.5c0,0-1.6-1.1-2.5-2.5c-0.9-1.5-1.2-3.1-0.8-4.6c0.4-1.5,1.4-2.6,2.9-3.3
		c0.8-0.4,1.6-0.6,2.5-0.7v9.4C87.8,38.8,85.7,40.5,85.7,40.5z M114.1,11.1V38c0,0.7-0.7,1.9-0.7,1.9l6,4.5l5.8-5.2l-0.5-0.6
		c0,0-0.1,0.1-0.2,0.2c-0.1,0.1-0.4,0.3-0.7,0.3c-0.2,0-0.4,0.1-0.9-0.1c-0.6-0.2-0.9-0.7-1.2-0.9c-0.3-0.3-0.6-0.7-0.6-0.7v-27
		c0-0.7,0.1-1.4,0.5-1.8c0.4-0.4,0.5-0.5,0.5-0.5l-5.4-3.4L111.4,9l0.3,0.3l0.6-0.5c0,0,0.3-0.1,0.6,0c0.3,0.1,0.6,0.2,0.9,0.7
		c0.3,0.5,0.4,0.9,0.4,1.1L114.1,11.1L114.1,11.1z"/>
	<path d="M127.1,24.2v14.1c0,0.7-0.6,1.4-0.6,1.4l7.2,4.4L139,39v2.9c0,0,2.5,0.9,3.5,1.8c1.1,0.9,2,2,2.4,3.1
		c0.4,1.2,0.1,2.3-0.5,2.9c-0.5,0.6-1.5,1.4-3.2,1.1c-1.7-0.3-3.4-1.4-4.1-1.9c-0.7-0.6-2.3-1.8-3.5-2.7s-3.1-2.1-6-1.6
		c0,0-1.7,0.3-2.7,1c-1.1,0.6-2.2,1.7-2.6,2.5c-0.4,0.8-0.5,1.4-0.5,1.8c0,0.4,0,1.1,0,1.1s0.2-1.1,0.6-1.7c0.4-0.6,1-1.1,1.9-1.3
		c0.9-0.2,2-0.1,2.6,0.3s1.8,1.3,2.5,2c0.7,0.7,2.2,2,3.1,2.6c0.9,0.6,2.1,1,3.7,1.2c1.6,0.2,3.4-0.1,4.4-0.4c0.9-0.3,2.3-1.2,3.4-2
		c1.1-0.9,2.5-2.1,3.3-3.4c0.8-1.3,1.2-2.8,1.2-4.9c0-2.1-1.3-3.9-1.8-4.5c-0.5-0.6-0.8-0.8-0.8-0.8V23.1c0-0.3,0.1-0.7,0.5-1.1
		c0.4-0.4,0.8-0.6,0.8-0.6s-0.6-0.2-1.2-0.5c-0.5-0.3-3.1-2-3.7-2.5l-0.8-0.7l-4.9,3.6c0,0,0.6-0.1,1.1,0.1s0.9,0.4,1.1,0.9
		c0.2,0.5,0.1,1.4,0.1,1.7v13.6l-2.4,2.1L134,38V21.1l-4.4-3.4l-4.1,3.5c0,0,0.5,0,0.7,0.1c0.2,0.1,0.5,0.3,0.7,0.7
		c0.2,0.4,0.2,0.9,0.2,1C127.1,23.1,127.1,24.2,127.1,24.2z M71.2,40.4c-1.2,0.9-2.3,2-3.2,3.2c-0.7,0.9-1.7,2.6-1.7,2.6
		s-2.3-3.3-5.6-4.8c-3.3-1.5-7.1-1.7-10-1.4c-2.9,0.3-5.7,2.3-7,3.4c-1.3,1.1-2.5,3.1-2.5,3.1s0.3-4.1,1.7-6.5
		c1.4-2.4,4.3-4.7,6.3-5.4c0.8-0.3,1.6-0.5,2.4-0.7V13.1h-8c-1.9,0-3.5-1.2-4.1-3c-0.5-1.9,0-3.9,0.9-4.6c0.9-0.7,1.8-0.8,3-0.9
		c0,0-0.8,0.5-0.8,1.2c0,0.8,1,1.1,1.9,1.1H67c1.6,0,7.2,1,7.2,7v24.6C74.2,38.5,72.7,39.2,71.2,40.4z M66.8,15.5
		c0-0.8-0.1-2.4-2.7-2.4H52.5v20.6c1.7-0.3,3.7-0.5,5.6-0.2c3.4,0.5,6.1,1.9,6.9,2.3c0.8,0.5,1.7,1,1.7,1S66.8,15.5,66.8,15.5z"/>
	<path d="M42.9,26.8v6.8c0,1.8-1.3,3.6-1.3,3.6s4-2.5,6-4.1c2-1.6,2.2-2.8,2.2-3.9V14c0,0-1.9,0.6-3.5,1.5c-1.9,1.1-2.8,2.9-3.1,4.2
		c-0.1,0.4-0.2,1.3-0.2,2.2c0,0-1.1,0.4-1.6,0.8c-0.6,0.4-1,0.9-1.4,1.5c-0.3,0.6-0.5,1.2-0.6,1.9c0,0.6,0,1.1,0,1.1
		s0.1-0.8,0.4-1.2c0.3-0.4,0.6-0.6,1-0.8c0.3-0.1,0.7-0.1,1,0c0.2,0.1,0.6,0.3,0.9,0.7C42.9,26.4,42.9,26.7,42.9,26.8z"/>
</g>
<g>
	<path d="M243.6,26.8l9.7-7.4c0,0,0.6,1.4,1.6,2.2c1,0.8,1.4,1.1,2.7,1.3c1.2,0.2,2.1,0,2.7-0.4c0.6-0.4,0.6-0.6,0.6-0.6
		s-0.2,1-0.9,1.9c-0.6,0.9-3.1,3.8-3.9,4.7c-0.8,1-2.8,3.3-2.8,3.3h6.5c0.8,0,2.5,1.2,2.5,2.4v4.6l-9.5,7.2c0,0-1.1-1.7-3.2-2.7
		c-2.1-1.1-3.1-0.9-4.4-0.6c-1.4,0.3-2,0.6-2.3,0.9l-0.4,0.2c0,0,0.3-1,1-2c0.7-1,5.9-7.2,5.9-7.2h-3.2c-0.9,0-2.6-1.2-2.6-2.4
		S243.6,26.8,243.6,26.8L243.6,26.8z M250.1,31.8h1.8l3.9-4.6c0,0-0.7,0-1.7-0.1s-1.6-0.4-2.4-1c-0.8-0.6-1.3-1.3-1.4-1.4
		s-0.2-0.2-0.2-0.2V31.8z M247.4,38.7c0,0,0.4-0.1,1.1-0.2c0.7-0.1,1.2-0.1,2.3,0c1.1,0.2,1.9,0.6,2.9,1.4c1,0.8,1.5,1.4,1.5,1.4
		h0.1v-6.7h-4.5L247.4,38.7L247.4,38.7z M223.9,26.8l9.7-7.4c0,0,0.6,1.4,1.6,2.2c1,0.8,1.4,1.1,2.7,1.3c1.2,0.2,2.1,0,2.7-0.4
		c0.6-0.4,0.6-0.6,0.6-0.6s-0.2,1-0.9,1.9c-0.6,0.9-3.1,3.8-3.9,4.7c-0.8,1-2.8,3.3-2.8,3.3h6.5c0.8,0,2.5,1.2,2.5,2.4v4.6l-9.5,7.2
		c0,0-1.1-1.7-3.2-2.7c-2.1-1.1-3.1-0.9-4.4-0.6c-1.4,0.3-2,0.6-2.3,0.9l-0.4,0.2c0,0,0.3-1,1-2s6-7.2,6-7.2h-3.2
		c-0.9,0-2.6-1.2-2.6-2.4S223.9,26.8,223.9,26.8z M230.5,31.8h1.8l3.9-4.6c0,0-0.8,0-1.7-0.1c-0.9-0.1-1.6-0.4-2.4-1
		c-0.8-0.6-1.3-1.3-1.4-1.4c-0.1-0.1-0.2-0.1-0.2-0.2V31.8z M227.7,38.7c0,0,0.4-0.1,1.1-0.2c0.7-0.1,1.2-0.1,2.3,0
		c1.1,0.2,1.9,0.6,2.9,1.4c1,0.8,1.5,1.4,1.5,1.4h0.1v-6.7h-4.5L227.7,38.7L227.7,38.7z"/>
	<path d="M214.9,19.9l7.9,7l-10.6,7.8v2.7c0,0,1.6,1.7,2.4,2.2c0.7,0.6,1.5,1,2.3,1.1c0.8,0.1,1.5,0.1,2.1-0.3
		c0.6-0.4,3.8-2.8,3.8-2.8l0.6,0.8L213.2,46l-7.8-6l0.1-0.4c0.1-0.4,0.3-1.1,0.3-1.1v-9.8c0-0.8-0.8-1.1-0.8-1.1L214.9,19.9
		L214.9,19.9z M212.2,25.1v8.3l5-3.8L212.2,25.1z"/>
	<path d="M206.4,23.3c-0.4,0-1.2,0.2-2.2-0.4c-1-0.5-1.4-1.4-1.7-2c-0.3-0.6-0.9-1.7-0.9-1.7l-5.8,4.9v-1.1l-4.7-3.4l-5.7,5.1
		l0.5,0.6c0,0,0.4-0.6,1-0.6c0.5,0,1.1,0.4,1.4,1c0.4,0.6,0.4,1.8,0.4,2.6v11.3c0,0-0.2,1-0.4,1.3l-0.2,0.3l5.9,4.7l5.8-5.2
		l-0.4-0.5c0,0-0.3,0.4-0.8,0.5c-0.6,0.1-1,0-1.7-0.6c-0.7-0.6-1.1-1.2-1.1-1.2V25.5l2.2-1.8c0,0,0.9,2.1,1.3,2.6
		c0.5,0.6,1.1,1,1.7,1.1c0.6,0.1,1.2,0.2,2.2-0.3s1.9-1.3,2.7-2.3c0.8-1,1-1.8,1-1.8S206.9,23.3,206.4,23.3L206.4,23.3z M183.7,11.6
		c-0.6-1.5-1.6-2.6-2.8-3.6c-1.2-1-3.3-2-3.3-2l-9.6,5.7V6.2h-0.9v44.1l-1.5,1.4v-43L161.2,6l-5.8,4.8c0,0,1.7,0.2,1.7,1.4v24
		c-0.4,0.2-1,0.6-1.5,1c-0.8,0.7-1.9,1.9-2.6,3.2c-0.7,1.3-0.9,2.1-1,3c-0.1,0.9-0.2,2.7-0.2,2.7s1-1.5,1.9-2.3
		c0.8-0.7,1.4-1.2,2.4-1.6c0.5-0.2,0.8-0.3,1.1-0.4v19.3l11-10.6V41c0.1,0,0.3,0,0.5,0.1c0.4,0.1,2.3,0.7,3.3,1.3
		c1.1,0.7,2.1,1.4,3.1,2.3c1,0.9,1.7,2.2,1.7,2.2s0.3-0.6,0.8-1.5c0.6-0.8,2.2-2.7,3.5-3.8c1.3-1.1,3.6-2.4,3.6-2.4V15.7
		C184.5,15.1,184.3,13,183.7,11.6z M176.9,37.3l-0.4-0.3c-0.4-0.3-1.4-0.9-1.4-0.9c-1.3-0.7-3-1.3-4.6-1.6c-0.8-0.2-1.7-0.3-2.6-0.3
		V13c0.5-0.3,2.6-1.4,3-1.6c0.4-0.2,0.8-0.2,1.3-0.1c0.5,0.1,1.2,0.4,1.9,1.1c0.7,0.7,1.4,1.6,1.8,2.3s0.9,1.8,0.9,2.8
		C176.9,18.4,176.9,37.3,176.9,37.3L176.9,37.3z"/>
</g>
</svg>
