<?xml version="1.0" encoding="utf-8"?>
<!-- Generator: Adobe Illustrator 20.1.0, SVG Export Plug-In . SVG Version: 6.00 Build 0)  -->
<svg version="1.1" id="Layer_1" xmlns="http://www.w3.org/2000/svg" xmlns:xlink="http://www.w3.org/1999/xlink" x="0px" y="0px"
	 viewBox="0 0 307.4 29.6" style="enable-background:new 0 0 307.4 29.6;" xml:space="preserve" preserveAspectRatio="meet" >
<style type="text/css">
	.st0{fill:#231F20;}
</style>
<g>
	<path class="st0" d="M297.1,21c-0.8,0.8-2.1,2.4-2.7,3.2c-1.8-0.6-2.9-2-2.9-3.6v-8.9c-0.9-0.5-2.3-1.7-3-2.2l0,0V20
		c0.3,0.5,0.9,0.9,1.3,0.9c0.3,0,0.4-0.1,0.9-0.5l0.3,0.2c-0.9,0.9-2.4,2.7-3.2,3.6c-1.1-1-2.2-1.9-3.3-2.6l0,0
		c0.5-0.3,0.7-0.8,0.7-1.6v-8.9c-0.2-0.4-0.7-0.8-0.9-0.8c-0.3,0-0.5,0.1-0.8,0.5l-0.3-0.3c1.2-1.1,2.6-2.5,3.2-3.3l2.2,2.1
		c0.6-0.4,1.8-1.5,2.4-2.1c1,0.8,3.1,2.3,4.9,3.3l0,0c-0.5,0.3-0.7,0.6-0.7,1.3v8.3c0,0.7,0.6,1.3,1.1,1.3c0.3,0,0.5-0.2,0.8-0.6V21
		L297.1,21z"/>
	<path class="st0" d="M283.5,20.9c-1.1,1.1-2.4,2.5-3,3.3l-2.2-2.1c-0.6,0.4-1.8,1.5-2.4,2.1c-1-0.8-3.1-2.3-4.9-3.3l0,0
		c0.5-0.3,0.7-0.6,0.7-1.3v-8.3c0-0.7-0.6-1.3-1.1-1.3c-0.3,0-0.5,0.2-0.8,0.6l-0.3-0.2c0.8-0.8,2.1-2.4,2.7-3.2
		c1.8,0.6,2.9,2,2.9,3.6v8.9c0.9,0.5,2.3,1.7,3,2.2l0,0V11.2c-0.3-0.5-0.6-0.8-1-0.8c-0.3,0-0.5,0.2-0.8,0.5l-0.3-0.3
		c1-0.9,2.5-2.4,3.3-3.2c1,1,2,2,3,3l0,0c-0.6,0.2-0.8,0.6-0.8,1.6v8.5c0.2,0.4,0.6,0.9,0.9,0.9c0.3,0,0.4-0.1,0.8-0.4L283.5,20.9
		L283.5,20.9z"/>
	<path class="st0" d="M256.3,3c-1,0.9-1.8,1.9-2.8,2.8c-1.1-1.1-1.6-1.7-2.1-1.7c-0.3,0-0.5,0.1-0.8,0.4l-0.3-0.3
		c0.9-0.9,2.3-2.3,2.8-2.8c1,1,1.7,1.7,2,1.7s0.5-0.1,0.8-0.3L256.3,3L256.3,3z"/>
	<path class="st0" d="M258.2,20.6l-3.2,3.6c-1-0.9-2.4-2.1-3.3-2.6l0,0c0.4-0.2,0.7-0.7,0.7-1.7v-8.7c-0.3-0.6-0.6-0.9-0.9-0.9
		c-0.2,0-0.5,0.1-0.8,0.5l-0.3-0.3c1-0.9,2.5-2.3,3.4-3.3c0.6,0.7,2,2.1,3,3l0,0c-0.5,0.2-0.8,0.6-0.8,1.2v8.7
		c0.5,0.6,0.9,0.9,1.3,0.9C257.5,21,257.8,21,258.2,20.6L258.2,20.6L258.2,20.6z"/>
	<path class="st0" d="M250.4,9.5c-0.6,0.6-1.4,1.7-2.1,3.5l0,0c-0.6-1.2-1.5-2.7-2.1-3.3l0,0v10.5c0.1,0.4,0.7,1,1.2,1
		c0.4,0,0.8-0.5,1.2-0.9l0.3,0.3c-0.9,1-2.6,2.8-3.4,3.7c-0.8-0.7-2.6-2.1-3.5-2.7l0,0c0.6-0.3,0.8-0.9,0.8-1.8v-8.5
		c-0.2-0.5-0.6-0.9-0.9-0.9c-0.3,0-0.5,0.1-0.8,0.5l-0.3-0.3c0.9-0.8,2.5-2.4,3.3-3.3l2,2.2l2.5-2.2C248.8,7.6,249.6,8.6,250.4,9.5
		L250.4,9.5z"/>
	<path class="st0" d="M224.8,14.3c-0.9,1-1.8,2.1-2.7,3.1c-1-0.6-3-1.7-3.5-1.7c-0.4,0-0.7,0.3-1.2,0.8l-0.3-0.3
		c0.5-0.5,2.4-2.7,2.7-3.1c1.3,0.7,3.1,1.7,3.6,1.7c0.3,0,0.7-0.2,1.1-0.8L224.8,14.3L224.8,14.3z"/>
	<path class="st0" d="M218.1,21c-0.8,0.8-2.1,2.4-2.7,3.2c-1.8-0.6-2.9-2-2.9-3.6v-8.9c-0.9-0.5-2.3-1.7-3-2.2l0,0V20
		c0.3,0.5,0.9,0.9,1.3,0.9c0.3,0,0.4-0.1,0.9-0.5l0.3,0.2c-0.9,0.9-2.4,2.7-3.2,3.6c-1.1-1-2.2-1.9-3.3-2.6l0,0
		c0.5-0.3,0.7-0.8,0.7-1.6v-8.8c-0.2-0.4-0.7-0.9-1-0.9c-0.3,0-0.5,0.2-0.8,0.5l-0.3-0.3c1.1-1,2.6-2.5,3.3-3.3l2.2,2.1
		c0.6-0.4,1.8-1.5,2.4-2.1c1,0.8,3.1,2.3,4.9,3.3l0,0c-0.5,0.3-0.7,0.6-0.7,1.3v8.3c0,0.7,0.6,1.3,1.1,1.3c0.3,0,0.5-0.2,0.8-0.6V21
		L218.1,21z"/>
	<path class="st0" d="M191.4,3c-1,0.9-1.8,1.9-2.8,2.8c-1.1-1.1-1.6-1.7-2.1-1.7c-0.3,0-0.5,0.1-0.8,0.4l-0.3-0.3
		c0.9-0.9,2.3-2.3,2.8-2.8c1,1,1.7,1.7,2,1.7c0.3,0,0.5-0.1,0.8-0.3L191.4,3L191.4,3z"/>
	<path class="st0" d="M192.8,20.6l-3.2,3.6c-1-0.9-2.4-2-3.2-2.6v-0.1c0.4-0.2,0.6-0.7,0.6-1.7v-8.7c-0.3-0.6-0.6-0.9-0.9-0.9
		c-0.2,0-0.5,0.1-0.8,0.5l-0.3-0.3c1-0.9,2.4-2.3,3.3-3.3c0.6,0.7,2,2.1,2.9,3l0,0c-0.5,0.2-0.8,0.7-0.8,1.2V20
		c0.5,0.6,0.9,0.9,1.3,0.9c0.2,0,0.5,0,0.9-0.5L192.8,20.6L192.8,20.6z"/>
	<path class="st0" d="M185.8,21c-0.8,0.8-2.1,2.4-2.7,3.2c-1.8-0.6-2.9-2-2.9-3.6v-8.9c-0.9-0.5-2.3-1.7-3-2.2l0,0V20
		c0.3,0.5,0.9,0.9,1.3,0.9c0.3,0,0.4-0.1,0.9-0.5l0.3,0.2c-0.9,0.9-2.4,2.7-3.2,3.6c-1-0.9-2.2-1.9-3.2-2.6v-0.1
		c0.4-0.2,0.6-0.5,0.6-1.6V11c-0.2-0.4-0.6-0.8-0.9-0.8s-0.5,0.1-0.8,0.5l-0.3-0.3c1.1-1,2.6-2.5,3.2-3.3l2.2,2.1
		c0.6-0.4,1.8-1.5,2.4-2.1c1,0.8,3.1,2.3,4.9,3.3l0,0c-0.5,0.3-0.7,0.6-0.7,1.3V20c0,0.7,0.6,1.3,1.1,1.3c0.3,0,0.5-0.2,0.8-0.6V21
		L185.8,21z"/>
	<path class="st0" d="M307.4,11.3c-0.9,0.5-5.7,3.7-6.1,5.5v2.3c0,1.4,2.2,2.4,3.3,2.4c0.5,0,1.1-0.7,1.8-1.3l0.3,0.3l-3.7,3.7
		c-3.3-0.7-5.1-2.5-5.1-4.5v-6.5c0-0.6-0.3-1.1-0.9-1.2l0,0c1.6-0.9,4.8-3.2,6.7-4.7C304.6,8.3,306.4,10.2,307.4,11.3L307.4,11.3z
		 M304.1,12.8c-0.9-0.9-2.2-2.5-2.8-3.3l0,0v5.9l0,0C302,14.4,303.2,13.4,304.1,12.8L304.1,12.8z"/>
	<path class="st0" d="M269.6,19.6c-1.8,1.2-4.5,3.1-6.1,4.6c-1.6-1.2-3.7-2.2-5-2.7l0,0c0.4-0.2,0.7-0.6,0.7-1.6V5.3
		c-0.3-0.6-0.6-0.9-0.9-0.9c-0.2,0-0.5,0.1-0.8,0.5l-0.3-0.3c1-0.9,2.5-2.3,3.3-3.3c0.6,0.7,2,2.1,3,3l0,0c-0.5,0.2-0.8,0.7-0.8,1.2
		v3.9c0.6-0.5,1.6-1.6,2.2-2.3c3.1,1.6,4.2,2.5,4.2,4.9v6.5C269.1,19.1,269.3,19.4,269.6,19.6L269.6,19.6L269.6,19.6z M265.6,21.7
		v-9.1c0-1.1-0.8-2.2-3-3l0,0V20C263.4,20.4,264.9,21.2,265.6,21.7L265.6,21.7L265.6,21.7z"/>
	<path class="st0" d="M243.1,3.3c0,2.2-1.4,3.8-3.8,3.8c-0.5,0-1-0.1-1.4-0.2V21c1.9-0.4,2.8-1.3,3.9-2.4l0.3,0.4
		c-1.4,2.6-3.8,5.4-7.5,5.4c-5,0-8.6-3.6-8.6-9c0-5,3.4-8,7-10l0.3,0.3c-2,1.5-3.8,4.6-3.8,8.6c0,3.1,1,4.8,2.4,5.7
		c0.7-0.7,0.8-1.5,0.8-2.7v-5.9c0-2.2,1.9-3.7,3.8-5C234.1,5.5,231.7,4,229,4c-2.5,0-3.7,0.8-3.7,2.2c0,1,0.7,1.6,1.4,1.6
		c0.5,0,0.9-0.1,1.1-0.3l-0.2,0.8c-0.2,0.1-0.5,0.1-0.7,0.1c-1.3,0-2.2-0.9-2.2-2.6c0-3,2.1-5.1,5.6-5.1c4.5,0,7.4,3.4,10.4,3.4
		c1.2,0,1.8-0.4,1.8-1.2c0-0.7-0.5-1.2-1.2-1.4L242,1C242.5,1.5,243.1,2.3,243.1,3.3L243.1,3.3z M237.4,21.2V6.9
		c-0.2,0-0.3-0.1-0.5-0.1c-1,0.9-1.2,1.7-1.2,3.4v5.9c0,2-1.1,2.8-3.6,4.3c1.2,0.6,2.6,0.9,4.2,0.9
		C236.7,21.3,237.1,21.2,237.4,21.2L237.4,21.2z"/>
	<path class="st0" d="M203.7,10.1c-0.4,0.1-0.6,0.6-0.6,1.2v8.2c0,0.5,0.1,0.9,0.5,1.1l0,0c-1.7,0.5-4.2,1.9-6.2,3.6
		c-2.7-1.4-4.2-2.7-4.2-5.1v-6.2c0-0.5-0.2-0.9-0.7-1.1l0,0c2-1.1,4.8-3.3,6.2-4.6C199.7,7.8,202.2,9.4,203.7,10.1L203.7,10.1
		L203.7,10.1z M199.7,22V11.5c-0.8-0.4-2.5-1.4-3-2l0,0v9.1C196.6,20.2,198.3,21.4,199.7,22L199.7,22L199.7,22z"/>
	<path class="st0" d="M172.8,20.8c0,0-2.3,2.7-3,3.5c-1.2-0.4-2.5-1.2-3-2.6l-2.7,2.8c-3.6-1-6.3-2.6-6.3-6V5.6
		c0-1.1-0.4-1.7-1.2-1.7c-0.7,0-1.3,0.3-1.3,1.2c0,0.5,0.2,0.9,0.4,1.4h-0.5c-0.2-0.3-0.4-0.8-0.4-1.4c0-2.3,1.6-3.6,3.7-3.6
		c1.8,0,3,1.5,3,3.6v12.6c0,1.1,0.3,1.7,1.1,2.3V3.9c0-0.6-0.2-0.9-0.4-1.1c0.3-0.3,0.6-0.7,0.8-1.1h0.1v8.8
		c0.6,0.3,1.2,0.4,1.8,0.4c0.6,0,1.2-0.1,1.8-0.4V5.9c-0.3-0.6-0.7-1.1-1.2-1.1c-0.3,0-0.4,0.1-0.7,0.4L164.5,5l3.1-3.4l3.8,3.3l0,0
		c-0.6,0.2-1,0.7-1,1.5v13.1c0,1.1,0.8,1.8,1.4,1.8c0.1,0,0.3-0.1,0.5-0.3l0.4-0.4L172.8,20.8L172.8,20.8z M166.6,13.3v-2.4
		c-0.5,0.2-1.1,0.3-1.8,0.3c-0.7,0-1.2-0.1-1.8-0.3v2.4c0.5-0.2,1.1-0.3,1.8-0.3C165.5,12.9,166.1,13.1,166.6,13.3L166.6,13.3z
		 M166.7,21.3c-0.1-0.4-0.1-0.8-0.1-1.1v-6.5c-0.5-0.3-1.2-0.4-1.8-0.4s-1.1,0.1-1.8,0.4v6.6c0.1,0.1,0.3,0.2,0.5,0.3
		c0.9,0.5,1.9,0.8,2.6,0.8C166.4,21.4,166.5,21.3,166.7,21.3L166.7,21.3z"/>
	<path class="st0" d="M114.1,3.3c-0.9,0.8-1.8,1.8-2.7,2.8c-1.1-1.1-1.6-1.6-2-1.6c-0.3,0-0.5,0.1-0.7,0.3l-0.3-0.3
		c0.9-0.8,2.2-2.2,2.7-2.7c0.9,1,1.7,1.6,2,1.6s0.5-0.1,0.8-0.3L114.1,3.3L114.1,3.3z"/>
	<path class="st0" d="M116,20.5l-3.2,3.5c-1-0.9-2.4-2-3.2-2.6l0,0c0.4-0.2,0.6-0.7,0.6-1.7v-8.5c-0.2-0.6-0.6-0.8-0.9-0.8
		c-0.2,0-0.4,0.1-0.8,0.5l-0.3-0.3c1-0.9,2.4-2.2,3.3-3.2c0.6,0.7,1.9,2.1,2.9,2.9l0,0c-0.5,0.2-0.8,0.5-0.8,1.2V20
		c0.5,0.6,0.8,0.9,1.2,0.9c0.2,0,0.5,0,0.9-0.5L116,20.5L116,20.5z"/>
	<path class="st0" d="M86.6,20.9c-0.7,0.8-2,2.3-2.6,3.1c-1.8-0.6-2.8-1.9-2.8-3.5v-8.6c-0.9-0.5-2.3-1.6-2.9-2.2l0,0V20
		c0.2,0.5,0.8,0.9,1.3,0.9c0.3,0,0.4-0.1,0.8-0.5l0.2,0.2c-0.9,0.9-2.4,2.6-3.2,3.5c-1.1-1-2.2-1.8-3.2-2.6l0,0
		c0.5-0.3,0.7-0.8,0.7-1.6v-8.6c-0.2-0.4-0.6-0.8-0.9-0.8c-0.3,0-0.4,0.1-0.7,0.4l-0.2-0.2c1.1-1.1,2.3-2.4,3-3.2l2.1,2
		c0.6-0.4,1.7-1.4,2.3-2c0.9,0.8,3,2.2,4.7,3.3l0,0c-0.4,0.3-0.7,0.6-0.7,1.2v8.1c0,0.7,0.6,1.3,1.1,1.3c0.3,0,0.5-0.2,0.8-0.6
		L86.6,20.9L86.6,20.9z"/>
	<path class="st0" d="M29.8,20.9c-0.7,0.8-2,2.3-2.6,3.1c-1.8-0.6-2.8-1.9-2.8-3.5v-8.6c-0.9-0.5-2.3-1.6-2.9-2.2l0,0v10.2
		c0.2,0.5,0.8,0.9,1.2,0.9s0.5-0.1,0.9-0.5l0.2,0.2c-0.9,0.9-2.4,2.6-3.2,3.5c-0.8-0.8-2.1-1.8-3.2-2.6l0,0c0.5-0.2,0.6-0.8,0.6-1.6
		V6.6c0-2.7,2.6-4.5,4.3-5.5l0.2,0.3C21.8,2,21.3,3,21.3,5v4.4c0.5-0.4,1.7-1.5,2.3-2c0.9,0.8,3,2.2,4.7,3.3l0,0
		c-0.4,0.3-0.7,0.6-0.7,1.2V20c0,0.7,0.6,1.3,1.1,1.3c0.3,0,0.5-0.2,0.8-0.6L29.8,20.9L29.8,20.9z"/>
	<path class="st0" d="M149.4,10.2c-0.4,0.1-0.6,0.5-0.6,1.1v8c0,0.5,0.1,0.9,0.5,1.1l0,0c-1.7,0.5-4.1,1.8-6.1,3.5
		c-2.7-1.3-4.1-2.7-4.1-5v-6c0-0.5-0.2-0.9-0.6-1.1l0,0c1.9-1,4.7-3.2,6-4.5C145.4,8,148,9.5,149.4,10.2L149.4,10.2L149.4,10.2z
		 M145.5,21.8V11.6c-0.8-0.4-2.4-1.4-2.9-1.9l0,0v8.9C142.5,20.1,144.2,21.2,145.5,21.8L145.5,21.8L145.5,21.8z"/>
	<path class="st0" d="M137.5,23.9c0,0.8-0.7,1.6-3,3.2c-1.4,1-3.9,2-4.5,2.5c-0.7-1.1-0.8-1.6-1.6-1.6c-1.2,0-3.5,0.5-3.9,0.9
		l-0.2-0.2c0.5-1.1,3.3-3.1,5.6-3.1c1.5,0,3,0.8,3.5,1.5c0.6-0.6,1-0.9,1-1.7c0-1.4-0.9-1.7-1.2-3.6l0,0c-0.6,0.5-1.7,1.5-2.3,2
		c-1.9-1.5-3.6-2.6-4.7-3.3l0,0c0.4-0.2,0.7-0.6,0.7-1.3v-6.4c0-0.5-0.2-0.9-0.6-1.1l0,0c1.9-1,4.7-3.2,6-4.5
		c0.9,0.7,3.4,2.2,4.9,2.9l0,0c-0.4,0.1-0.6,0.5-0.6,1.1v9.4C136.6,22.1,137.5,22.3,137.5,23.9L137.5,23.9z M133.2,21.6v-10
		c-0.8-0.4-2.4-1.4-2.9-1.9l0,0v9.8C130.8,19.7,132,20.7,133.2,21.6L133.2,21.6L133.2,21.6z"/>
	<path class="st0" d="M125.8,11.4c-0.8,0.5-5.6,3.6-5.9,5.4V19c0,1.4,2.1,2.3,3.2,2.3c0.5,0,1.1-0.6,1.7-1.3l0.3,0.3l-3.7,3.6
		c-3.2-0.6-5-2.5-5-4.4v-6.4c0-0.6-0.3-1-0.9-1.2l0,0c1.6-0.9,4.7-3.1,6.5-4.6C123.1,8.4,124.8,10.3,125.8,11.4L125.8,11.4z
		 M122.6,12.8c-0.9-0.9-2.1-2.5-2.7-3.2l0,0v5.8l0,0C120.5,14.4,121.7,13.4,122.6,12.8L122.6,12.8z"/>
	<path class="st0" d="M107.8,19.1c-2.2,1.4-5,3.5-6.6,5c-0.9-1.2-2.5-2.5-4.8-2.5c-2.2,0-3.7,1-4.7,2.3l-0.3-0.3
		c2.1-2.7,2.9-3.5,2.9-5.3v-7c0-2.2,1.4-3.3,4-5l0.3,0.3c-1,0.9-1.2,1.7-1.2,3.3v6.6c0,1.3-0.7,2.4-1.4,3l0,0
		c0.6-0.3,1.7-0.6,2.8-0.6c0.3,0,0.5,0,0.8,0.1V5.6C98.3,5.8,97,6,95.4,6c-1.9,0-3.2-1.2-3.2-3c0-2,1.2-2.9,3.2-3l0.2,0.8
		c-0.8-0.1-2.2,0-2.2,1c0,0.8,0.6,0.9,2,0.9c1.5,0,4.1-0.7,6.2-0.7c4.1,0,5.6,2.2,5.6,5.4v10C107.2,18.8,107.4,19,107.8,19.1
		L107.8,19.1L107.8,19.1z M103.5,10.5V8.8c0-2.3-0.4-3.3-2.1-3.3c-0.5,0-0.9,0-1.3,0.1v4.9c0.6,0.3,1.2,0.4,1.7,0.4
		C102.3,10.9,103,10.8,103.5,10.5L103.5,10.5z M103.5,13.3v-2.4c-0.5,0.2-1.1,0.3-1.7,0.3c-0.7,0-1.2-0.1-1.7-0.3v2.4
		c0.5-0.2,1.1-0.3,1.7-0.3C102.4,13,103,13.1,103.5,13.3L103.5,13.3z M103.5,20.9v-7.2c-0.5-0.3-1.2-0.4-1.7-0.4
		c-0.6,0-1.1,0.1-1.7,0.4v5.4C101.5,19.4,102.6,20,103.5,20.9L103.5,20.9L103.5,20.9z"/>
	<path class="st0" d="M73.7,20.5c-2.9,3.2-3.2,3.5-3.2,3.5c-0.8-0.8-1.9-1.7-2.5-2.1c-0.8,0.8-1.1,1.2-2,2.1c-2.5-0.3-4-2.1-4-4.4
		c0-3.2,2.8-5.2,4.6-6c-1.2-1.7-2.9-3.2-3.8-3.8l0,0l2.4-2.4c0.4,0.7,1.2,1.3,1.8,1.3c0.9,0,1.7-0.6,2.2-1.3c0.5,0.6,2.2,2.1,3,2.9
		l0,0c-0.6,0.4-0.8,0.5-0.8,1.6V20c0.2,0.2,0.6,0.9,1.2,0.9c0.4,0,0.6-0.2,0.9-0.5L73.7,20.5L73.7,20.5z M68,14.5v-4.1l-0.6-0.7
		c-0.7,0.7-1.8,0.8-2.5,0.8l0,0C65.8,11.4,67.6,13.5,68,14.5L68,14.5L68,14.5z M68,21.2V17c0-1-0.4-2.1-1.1-3c-1,0.6-1.9,1.8-1.9,4
		c0,1.9,1.1,3.4,2.6,3.4C67.7,21.4,67.9,21.3,68,21.2L68,21.2z"/>
	<path class="st0" d="M61.9,13.9c0,3.9-4.4,7.6-7.3,10.4c-0.8-0.9-2.7-2.4-4.7-2.4c-2.4,0-3.5,0.9-4.5,2.2L45.2,24
		c0.7-2.7,2.8-4.9,5.7-4.9s4.8,1.3,5.8,2.2c2.5-2.6,3.2-3.7,3.2-5.3c0-1.1-0.2-2.4-2.6-3.6c-0.7-0.4-1.7-0.7-2.9-1L54,12.1
		c1.5,0.4,2.5,0.8,3.3,1.2c1.5,0.9,1.8,1.9,1.8,3.3c0,0.8-0.7,2-1.4,2.5l0,0c-0.1-1.9-0.7-2.8-5.3-3.8L52,15.2
		c-0.3,0.4-0.5,0.8-0.7,1.2c-0.9,1.4-2.1,1.4-2.1,1.4c-0.7,0-1.2-0.5-1.2-1c0-0.7,0.5-1.1,1.1-1.1s1.1,0.7,1.4,0.7
		c0.1,0,0.2,0,0.3-0.2l0.7-1.1C49.4,14.6,47,13.6,47,11c0-1.1,0.4-1.9,0.9-2.5l0,0c0.3,1.6,1.3,2.3,5.7,3.4l0.4-0.7l-0.3-0.1
		c-2.7-0.7-5.5-1.4-5.5-4.6c0-3.1,2.7-4.8,6.2-4.8c2.5,0,4,0.8,5.1,1.5L60,2.5l0.4,0.3c-1.3,1.8-2.6,3.7-3.8,5.5
		c0.4,0.1,0.8,0.2,1.2,0.4C61.1,9.8,61.9,11.2,61.9,13.9L61.9,13.9z M57.6,5.7c-0.9-1-2.7-2.2-4.6-2.2c-2.6,0-3.5,0.8-3.5,1.8
		c0,1.5,2.1,1.8,5.2,2.6c0.4,0.1,0.8,0.2,1.1,0.3C56.5,7.3,57.1,6.4,57.6,5.7L57.6,5.7z"/>
	<path class="st0" d="M39.8,11.4c-0.8,0.5-5.6,3.6-5.9,5.4V19c0,1.4,2.1,2.3,3.2,2.3c0.5,0,1.1-0.6,1.7-1.3l0.3,0.3l-3.7,3.6
		c-3.2-0.6-5-2.5-5-4.4v-6.4c0-0.6-0.3-1-0.9-1.2l0,0c1.6-0.9,4.7-3.1,6.5-4.6C37,8.4,38.8,10.3,39.8,11.4L39.8,11.4z M36.6,12.8
		c-0.9-0.9-2.1-2.5-2.7-3.2l0,0v5.8l0,0C34.5,14.4,35.7,13.4,36.6,12.8L36.6,12.8z"/>
	<path class="st0" d="M17.9,3.6c0,2.1-1.4,3.7-3.7,3.7c-0.5,0-0.9-0.1-1.4-0.2v13.8c2.3-0.4,3.4-1.7,4.2-3.2l0.4,0.3
		c-1.3,3-3.5,6.1-7.8,6.1c-4.9,0-8.4-3.5-8.4-8.8c0-4.9,3.3-7.8,6.8-9.7l0.3,0.3c-1.9,1.5-3.7,4.5-3.7,8.4c0,3,0.9,4.7,2.3,5.7
		c0.7-0.7,0.9-1.5,0.9-2.7v-5.7c0-2.1,1.9-3.6,3.7-4.8C9.1,6,6.8,4.5,4.2,4.5c-2.4,0-3.6,0.8-3.6,2.1c0,1,0.7,1.6,1.4,1.6
		c0.5,0,0.8-0.1,1.1-0.3L2.9,8.7C2.7,8.8,2.4,8.8,2.2,8.8C0.9,8.8,0,8,0,6.3c0-3.1,2.1-5,5.5-5c4.4,0,7.2,3.3,10.1,3.3
		c1.2,0,1.7-0.4,1.7-1.2c0-0.7-0.4-1.1-1.2-1.3l0.6-0.5C17.4,1.8,17.9,2.7,17.9,3.6L17.9,3.6z M12.4,21V7c-0.2,0-0.3-0.1-0.5-0.1
		c-1,0.9-1.2,1.7-1.2,3.3V16c0,2-1.2,2.8-3.5,4.3c1.1,0.6,2.6,0.8,4.1,0.8C11.7,21.1,12.1,21,12.4,21L12.4,21z"/>
</g>
</svg>
