<?xml version="1.0" encoding="utf-8"?>
<!-- Generator: Adobe Illustrator 20.1.0, SVG Export Plug-In . SVG Version: 6.00 Build 0)  -->
<svg version="1.1" id="Isolation_Mode" xmlns="http://www.w3.org/2000/svg" xmlns:xlink="http://www.w3.org/1999/xlink" x="0px"
	 y="0px" viewBox="0 0 80 80" style="enable-background:new 0 0 80 80;" xml:space="preserve">
<style type="text/css">
	.st0{fill:#ffffff;}
</style>
<path class="st0" d="M40.6,79.2C20.8,80-1.5,61.4,1.2,36.1c2-18.8,17.7-35.5,39.2-35.4C62.9,0.8,79.9,19.9,79,42.8
	C78.3,62.5,59.9,79.9,40.6,79.2z M43,40c-1.3,1.6-2.2,3-3.3,4.2c-3.4,3.4-6.8,6.9-10.5,10c-3.8,3.2-2.2,5.5,0.4,8.2
	c2.6,2.7,5.1,5.9,9.1,2.1c7-6.8,13.8-13.9,20.8-20.8c2.5-2.5,2.3-4.8-0.2-7.3c-6.9-6.8-13.8-13.5-20.4-20.5
	c-4.3-4.5-6.6-0.5-9.4,1.8c-3.1,2.5-3.2,5.1-0.3,8c3.7,3.6,7.3,7.2,10.9,10.9C41.1,37.5,41.9,38.7,43,40z"/>
</svg>
