<?xml version="1.0" encoding="utf-8"?>
<!-- Generator: Adobe Illustrator 21.1.0, SVG Export Plug-In . SVG Version: 6.00 Build 0)  -->
<svg version="1.1" id="Layer_1" xmlns="http://www.w3.org/2000/svg" xmlns:xlink="http://www.w3.org/1999/xlink" x="0px" y="0px"
	 width="295px" height="70px" viewBox="0 0 295 70" style="enable-background:new 0 0 295 70;" xml:space="preserve">
<style type="text/css">
	.st0{fill:#004E87;}
	.st1{fill:#FFFFFF;}
</style>
<path class="st0" d="M291,69H4c-1.7,0-3-1.3-3-3V4c0-1.7,1.3-3,3-3h287c1.6,0,3,1.3,3,3v62C294,67.7,292.6,69,291,69z"/>
<path class="st1" d="M213.7,48.3c-6.9,0.3-14.6-6.2-13.6-14.9c0.7-6.5,6.1-12.3,13.6-12.2c7.8,0,13.7,6.7,13.4,14.6
	C226.7,42.5,220.4,48.5,213.7,48.3z M214.5,34.7c-0.4,0.6-0.7,1-1.1,1.4c-1.2,1.2-2.3,2.4-3.6,3.5c-1.3,1.1-0.8,1.9,0.1,2.8
	c0.9,0.9,1.8,2.1,3.1,0.7c2.4-2.4,4.8-4.8,7.2-7.2c0.9-0.9,0.8-1.7-0.1-2.5c-2.4-2.3-4.8-4.7-7.1-7.1c-1.5-1.6-2.3-0.2-3.3,0.6
	c-1.1,0.9-1.1,1.8-0.1,2.8c1.3,1.2,2.5,2.5,3.8,3.8C213.9,33.8,214.2,34.2,214.5,34.7z"/>
<g>
	<path class="st1" d="M81.2,27.2c-0.1,0.2-0.2,0.4-0.4,0.4c-0.1,0.1-0.3,0.1-0.5,0.1c-0.2,0-0.4-0.1-0.6-0.2
		c-0.2-0.1-0.5-0.3-0.8-0.5c-0.3-0.2-0.7-0.3-1.1-0.5c-0.4-0.1-0.9-0.2-1.5-0.2c-0.5,0-1,0.1-1.4,0.2c-0.4,0.1-0.7,0.3-1,0.5
		c-0.3,0.2-0.5,0.5-0.6,0.8c-0.1,0.3-0.2,0.7-0.2,1c0,0.5,0.1,0.9,0.4,1.2c0.3,0.3,0.6,0.6,1.1,0.8c0.4,0.2,0.9,0.4,1.5,0.6
		s1.1,0.4,1.7,0.6c0.6,0.2,1.2,0.4,1.7,0.7s1.1,0.6,1.5,1c0.4,0.4,0.8,0.9,1.1,1.5c0.3,0.6,0.4,1.3,0.4,2.1c0,0.9-0.2,1.8-0.5,2.6
		s-0.8,1.5-1.4,2.1s-1.3,1.1-2.2,1.4c-0.9,0.3-1.9,0.5-3,0.5c-0.6,0-1.3-0.1-1.9-0.2c-0.6-0.1-1.2-0.3-1.8-0.5
		c-0.6-0.2-1.1-0.5-1.6-0.8c-0.5-0.3-0.9-0.7-1.3-1.1l1.1-1.8c0.1-0.1,0.2-0.2,0.4-0.3c0.1-0.1,0.3-0.1,0.5-0.1
		c0.2,0,0.5,0.1,0.8,0.3c0.3,0.2,0.6,0.4,1,0.6s0.8,0.4,1.3,0.6c0.5,0.2,1.1,0.3,1.8,0.3c1.1,0,1.9-0.3,2.5-0.8
		c0.6-0.5,0.9-1.2,0.9-2.2c0-0.5-0.1-1-0.4-1.3c-0.3-0.3-0.6-0.6-1.1-0.8c-0.4-0.2-0.9-0.4-1.5-0.6s-1.1-0.3-1.7-0.5
		c-0.6-0.2-1.1-0.4-1.7-0.7s-1.1-0.6-1.5-1c-0.4-0.4-0.8-0.9-1.1-1.6c-0.3-0.6-0.4-1.4-0.4-2.3c0-0.7,0.1-1.5,0.4-2.2
		s0.7-1.3,1.3-1.9c0.6-0.5,1.3-1,2.1-1.3s1.8-0.5,2.8-0.5c1.2,0,2.3,0.2,3.3,0.6c1,0.4,1.9,0.9,2.6,1.6L81.2,27.2z"/>
	<path class="st1" d="M88.3,29.4v9.1c0,0.9,0.2,1.6,0.6,2c0.4,0.5,1,0.7,1.8,0.7c0.6,0,1.2-0.1,1.7-0.4c0.5-0.3,1-0.6,1.5-1.1V29.4
		h3.5v14.4h-2.1c-0.4,0-0.7-0.2-0.9-0.6L94.1,42c-0.3,0.3-0.6,0.6-0.9,0.8c-0.3,0.2-0.7,0.5-1,0.6c-0.4,0.2-0.7,0.3-1.2,0.4
		C90.6,44,90.2,44,89.7,44c-0.8,0-1.5-0.1-2.1-0.4c-0.6-0.3-1.1-0.6-1.5-1.1s-0.7-1.1-0.9-1.7c-0.2-0.7-0.3-1.4-0.3-2.2v-9.1H88.3z"
		/>
	<path class="st1" d="M101.1,43.8V23h3.5v8.2c0.6-0.6,1.2-1.1,1.9-1.4s1.6-0.5,2.5-0.5c0.8,0,1.5,0.2,2.1,0.5
		c0.6,0.3,1.2,0.8,1.7,1.4c0.5,0.6,0.8,1.4,1.1,2.3c0.3,0.9,0.4,1.9,0.4,3.1c0,1.1-0.1,2.1-0.4,3c-0.3,0.9-0.7,1.7-1.2,2.4
		c-0.5,0.7-1.2,1.2-1.9,1.6s-1.6,0.6-2.6,0.6c-0.4,0-0.8,0-1.2-0.1c-0.4-0.1-0.7-0.2-1-0.4s-0.6-0.4-0.8-0.6
		c-0.3-0.2-0.5-0.5-0.7-0.8l-0.2,1c-0.1,0.2-0.2,0.4-0.3,0.5c-0.1,0.1-0.3,0.2-0.6,0.2H101.1z M107.8,31.9c-0.7,0-1.3,0.2-1.8,0.5
		s-1,0.7-1.4,1.3v6.4c0.4,0.5,0.8,0.8,1.3,1s1,0.3,1.5,0.3c0.5,0,1-0.1,1.4-0.3c0.4-0.2,0.8-0.5,1.1-0.9s0.5-0.9,0.7-1.5
		s0.2-1.3,0.2-2.2c0-0.8-0.1-1.6-0.2-2.1c-0.1-0.6-0.3-1.1-0.6-1.4c-0.3-0.4-0.6-0.6-0.9-0.8S108.3,31.9,107.8,31.9z"/>
	<path class="st1" d="M125.6,32.2c-0.1,0.1-0.2,0.3-0.3,0.3c-0.1,0.1-0.2,0.1-0.4,0.1c-0.2,0-0.3,0-0.5-0.1s-0.4-0.2-0.7-0.3
		s-0.5-0.2-0.9-0.3c-0.3-0.1-0.7-0.1-1.1-0.1c-0.7,0-1.2,0.1-1.6,0.4c-0.4,0.3-0.6,0.7-0.6,1.1c0,0.3,0.1,0.6,0.3,0.8
		s0.5,0.4,0.8,0.6c0.3,0.2,0.7,0.3,1.1,0.4c0.4,0.1,0.8,0.3,1.3,0.4c0.4,0.1,0.9,0.3,1.3,0.5s0.8,0.4,1.1,0.7s0.6,0.6,0.8,1.1
		c0.2,0.4,0.3,0.9,0.3,1.5c0,0.7-0.1,1.3-0.4,1.9c-0.3,0.6-0.6,1.1-1.1,1.5c-0.5,0.4-1.1,0.8-1.8,1c-0.7,0.2-1.5,0.4-2.5,0.4
		c-0.5,0-1,0-1.4-0.1c-0.5-0.1-0.9-0.2-1.4-0.4s-0.8-0.3-1.2-0.6s-0.7-0.4-1-0.7l0.8-1.3c0.1-0.2,0.2-0.3,0.4-0.4s0.3-0.1,0.5-0.1
		c0.2,0,0.4,0.1,0.6,0.2c0.2,0.1,0.4,0.3,0.7,0.4s0.5,0.3,0.9,0.4s0.8,0.2,1.3,0.2c0.4,0,0.8,0,1.1-0.1c0.3-0.1,0.5-0.2,0.7-0.4
		s0.3-0.3,0.4-0.6s0.1-0.4,0.1-0.7c0-0.3-0.1-0.6-0.3-0.8c-0.2-0.2-0.5-0.4-0.8-0.6c-0.3-0.2-0.7-0.3-1.1-0.4
		c-0.4-0.1-0.9-0.3-1.3-0.4c-0.4-0.1-0.9-0.3-1.3-0.5c-0.4-0.2-0.8-0.5-1.1-0.8c-0.3-0.3-0.6-0.7-0.8-1.1c-0.2-0.4-0.3-1-0.3-1.6
		c0-0.6,0.1-1.1,0.4-1.7c0.2-0.5,0.6-1,1-1.4c0.5-0.4,1-0.7,1.7-1c0.7-0.2,1.5-0.4,2.3-0.4c1,0,1.9,0.2,2.7,0.5
		c0.8,0.3,1.5,0.8,2,1.3L125.6,32.2z"/>
	<path class="st1" d="M139.4,32.5c-0.1,0.1-0.2,0.2-0.3,0.3c-0.1,0.1-0.2,0.1-0.4,0.1c-0.2,0-0.4-0.1-0.5-0.2s-0.4-0.2-0.6-0.4
		c-0.2-0.1-0.5-0.3-0.8-0.4c-0.3-0.1-0.7-0.2-1.2-0.2c-0.6,0-1.1,0.1-1.6,0.3c-0.5,0.2-0.8,0.5-1.1,0.9c-0.3,0.4-0.5,0.9-0.7,1.5
		s-0.2,1.2-0.2,2c0,0.8,0.1,1.4,0.2,2c0.2,0.6,0.4,1.1,0.7,1.5c0.3,0.4,0.7,0.7,1.1,0.9c0.4,0.2,0.9,0.3,1.5,0.3s1-0.1,1.3-0.2
		s0.6-0.3,0.9-0.4c0.2-0.2,0.4-0.3,0.6-0.4c0.2-0.1,0.4-0.2,0.6-0.2c0.3,0,0.5,0.1,0.6,0.3l1,1.3c-0.4,0.4-0.8,0.8-1.2,1.1
		c-0.4,0.3-0.9,0.5-1.4,0.7c-0.5,0.2-1,0.3-1.5,0.4c-0.5,0.1-1,0.1-1.5,0.1c-0.9,0-1.7-0.2-2.5-0.5c-0.8-0.3-1.5-0.8-2.1-1.4
		c-0.6-0.6-1-1.4-1.4-2.3c-0.3-0.9-0.5-2-0.5-3.1c0-1.1,0.2-2,0.5-2.9c0.3-0.9,0.7-1.7,1.3-2.3c0.6-0.7,1.3-1.2,2.2-1.5
		c0.9-0.4,1.9-0.6,3-0.6c1.1,0,2,0.2,2.8,0.5c0.8,0.3,1.5,0.8,2.2,1.5L139.4,32.5z"/>
	<path class="st1" d="M142.6,43.8V29.4h2c0.4,0,0.6,0.1,0.7,0.2c0.1,0.1,0.2,0.4,0.3,0.7l0.2,1.7c0.5-0.9,1.1-1.6,1.8-2.1
		c0.7-0.5,1.5-0.8,2.3-0.8c0.7,0,1.3,0.2,1.8,0.5l-0.4,2.6c0,0.2-0.1,0.3-0.2,0.4c-0.1,0.1-0.2,0.1-0.4,0.1c-0.1,0-0.3,0-0.6-0.1
		c-0.2-0.1-0.6-0.1-1-0.1c-0.7,0-1.3,0.2-1.8,0.6c-0.5,0.4-0.9,1-1.3,1.7v8.9H142.6z"/>
	<path class="st1" d="M158.3,25.3c0,0.3-0.1,0.6-0.2,0.8c-0.1,0.3-0.3,0.5-0.5,0.7c-0.2,0.2-0.4,0.4-0.7,0.5
		c-0.3,0.1-0.6,0.2-0.9,0.2c-0.3,0-0.6-0.1-0.8-0.2c-0.3-0.1-0.5-0.3-0.7-0.5c-0.2-0.2-0.4-0.4-0.5-0.7s-0.2-0.5-0.2-0.8
		c0-0.3,0.1-0.6,0.2-0.9c0.1-0.3,0.3-0.5,0.5-0.7c0.2-0.2,0.4-0.4,0.7-0.5s0.5-0.2,0.8-0.2c0.3,0,0.6,0.1,0.9,0.2
		c0.3,0.1,0.5,0.3,0.7,0.5c0.2,0.2,0.4,0.4,0.5,0.7C158.2,24.7,158.3,24.9,158.3,25.3z M157.7,29.4v14.4h-3.5V29.4H157.7z"/>
	<path class="st1" d="M161.7,43.8V23h3.5v8.2c0.6-0.6,1.2-1.1,1.9-1.4s1.6-0.5,2.5-0.5c0.8,0,1.5,0.2,2.1,0.5
		c0.6,0.3,1.2,0.8,1.7,1.4c0.5,0.6,0.8,1.4,1.1,2.3c0.3,0.9,0.4,1.9,0.4,3.1c0,1.1-0.1,2.1-0.4,3c-0.3,0.9-0.7,1.7-1.2,2.4
		c-0.5,0.7-1.2,1.2-1.9,1.6s-1.6,0.6-2.6,0.6c-0.4,0-0.8,0-1.2-0.1c-0.4-0.1-0.7-0.2-1-0.4s-0.6-0.4-0.8-0.6
		c-0.3-0.2-0.5-0.5-0.7-0.8l-0.2,1c-0.1,0.2-0.2,0.4-0.3,0.5c-0.1,0.1-0.3,0.2-0.6,0.2H161.7z M168.4,31.9c-0.7,0-1.3,0.2-1.8,0.5
		s-1,0.7-1.4,1.3v6.4c0.4,0.5,0.8,0.8,1.3,1s1,0.3,1.5,0.3c0.5,0,1-0.1,1.4-0.3c0.4-0.2,0.8-0.5,1.1-0.9s0.5-0.9,0.7-1.5
		s0.2-1.3,0.2-2.2c0-0.8-0.1-1.6-0.2-2.1c-0.1-0.6-0.3-1.1-0.6-1.4c-0.3-0.4-0.6-0.6-0.9-0.8S168.9,31.9,168.4,31.9z"/>
	<path class="st1" d="M183.5,29.2c0.9,0,1.7,0.1,2.5,0.4c0.8,0.3,1.4,0.7,2,1.3c0.6,0.6,1,1.2,1.3,2c0.3,0.8,0.5,1.7,0.5,2.8
		c0,0.3,0,0.5,0,0.7c0,0.2-0.1,0.3-0.1,0.4s-0.1,0.2-0.2,0.2c-0.1,0-0.2,0.1-0.4,0.1h-8.9c0.1,1.5,0.5,2.6,1.2,3.2
		c0.7,0.7,1.6,1,2.7,1c0.6,0,1-0.1,1.4-0.2c0.4-0.1,0.8-0.3,1.1-0.4c0.3-0.2,0.6-0.3,0.8-0.4c0.2-0.1,0.5-0.2,0.7-0.2
		c0.1,0,0.3,0,0.4,0.1c0.1,0.1,0.2,0.1,0.3,0.2l1,1.3c-0.4,0.4-0.8,0.8-1.3,1.1c-0.5,0.3-1,0.5-1.5,0.7c-0.5,0.2-1,0.3-1.6,0.4
		c-0.5,0.1-1.1,0.1-1.6,0.1c-1,0-1.9-0.2-2.8-0.5c-0.9-0.3-1.6-0.8-2.2-1.5c-0.6-0.6-1.1-1.5-1.5-2.4c-0.4-1-0.5-2.1-0.5-3.3
		c0-1,0.2-1.9,0.5-2.8s0.8-1.6,1.4-2.3c0.6-0.6,1.3-1.1,2.2-1.5C181.5,29.4,182.5,29.2,183.5,29.2z M183.6,31.7
		c-1,0-1.8,0.3-2.4,0.9s-0.9,1.4-1.1,2.4h6.5c0-0.4-0.1-0.9-0.2-1.3c-0.1-0.4-0.3-0.7-0.6-1c-0.3-0.3-0.6-0.5-1-0.7
		C184.6,31.8,184.1,31.7,183.6,31.7z"/>
</g>
</svg>
