<svg id="Layer_1" data-name="Layer 1" xmlns="http://www.w3.org/2000/svg" width="130" height="130" viewBox="0 0 130 130"><defs><style>.cls-1{fill:#fff;}</style></defs><title>Artboard 1</title><path class="cls-1" d="M65,3a62,62,0,1,0,62,62A62,62,0,0,0,65,3Zm40.51,47.61L55.24,90.14a11.27,11.27,0,0,1-8.58,2.26l-.52-.09a11.29,11.29,0,0,1-7-4.58L24.76,67.27A5.15,5.15,0,0,1,26.14,60l5.32-3.52a5.48,5.48,0,0,1,7.48,1.42L49.51,73,94.62,37.49a5.49,5.49,0,0,1,7.57.82l4.08,4.92A5.15,5.15,0,0,1,105.51,50.61Z"/></svg>