<?xml version="1.0" encoding="utf-8"?>
<!-- Generator: Adobe Illustrator 21.1.0, SVG Export Plug-In . SVG Version: 6.00 Build 0)  -->
<svg version="1.1" id="Layer_1" xmlns="http://www.w3.org/2000/svg" xmlns:xlink="http://www.w3.org/1999/xlink" x="0px" y="0px"
	 width="346.4px" height="50.1px" viewBox="0 0 346.4 50.1" style="enable-background:new 0 0 346.4 50.1;" xml:space="preserve">
<style type="text/css">
	.st0{fill:#1E1E1E;}
</style>
<g>
	<path class="st0" d="M10.1,18.6c0.5,0,1,0,1.5-0.1s0.9-0.1,1.3-0.2c0.4-0.1,0.8-0.2,1.1-0.4c0.4-0.1,0.7-0.3,1.1-0.5V13H12
		c-0.2,0-0.3-0.1-0.4-0.2c-0.1-0.1-0.2-0.2-0.2-0.4V11h6.2v7.7c-0.5,0.4-1,0.7-1.6,1c-0.5,0.3-1.1,0.5-1.8,0.7
		c-0.6,0.2-1.3,0.3-2,0.4c-0.7,0.1-1.5,0.1-2.3,0.1c-1.5,0-2.8-0.2-4-0.7c-1.2-0.5-2.3-1.2-3.1-2.1c-0.9-0.9-1.6-2-2.1-3.2
		C0.2,13.5,0,12.1,0,10.6c0-1.5,0.2-2.9,0.7-4.2c0.5-1.3,1.2-2.3,2.1-3.2c0.9-0.9,2-1.6,3.2-2.1s2.7-0.7,4.2-0.7
		c0.8,0,1.5,0.1,2.2,0.2s1.3,0.3,1.9,0.5s1.1,0.5,1.6,0.8c0.5,0.3,1,0.7,1.4,1.1l-0.8,1.2c-0.2,0.3-0.4,0.4-0.6,0.4
		c-0.1,0-0.3-0.1-0.5-0.2C15.3,4.2,15,4,14.7,3.9c-0.3-0.2-0.6-0.4-1.1-0.5c-0.4-0.2-0.9-0.3-1.5-0.4c-0.6-0.1-1.2-0.2-2-0.2
		C9,2.7,8,2.9,7.1,3.2C6.2,3.6,5.4,4.1,4.8,4.8S3.6,6.3,3.3,7.3c-0.3,1-0.5,2.1-0.5,3.3C2.8,11.9,3,13,3.3,14s0.9,1.8,1.5,2.5
		c0.7,0.7,1.4,1.2,2.3,1.6C8.1,18.5,9,18.6,10.1,18.6z"/>
	<path class="st0" d="M27,6.2c0.8,0,1.6,0.1,2.4,0.4s1.3,0.7,1.9,1.2c0.5,0.5,0.9,1.2,1.2,2s0.4,1.7,0.4,2.7c0,0.4,0,0.7-0.1,0.8
		c-0.1,0.1-0.2,0.2-0.5,0.2h-9.4c0,0.9,0.1,1.7,0.4,2.3c0.2,0.7,0.5,1.2,0.9,1.7s0.9,0.8,1.4,1c0.5,0.2,1.1,0.3,1.8,0.3
		c0.6,0,1.2-0.1,1.6-0.2s0.8-0.3,1.2-0.5s0.6-0.3,0.8-0.5s0.4-0.2,0.6-0.2c0.2,0,0.4,0.1,0.5,0.2l0.7,0.9c-0.3,0.4-0.7,0.7-1.1,1
		c-0.4,0.3-0.9,0.5-1.4,0.7c-0.5,0.2-1,0.3-1.5,0.4c-0.5,0.1-1,0.1-1.6,0.1c-1,0-1.9-0.2-2.7-0.5c-0.8-0.3-1.5-0.8-2.1-1.5
		c-0.6-0.6-1.1-1.4-1.4-2.4s-0.5-2-0.5-3.2c0-1,0.2-1.9,0.5-2.8c0.3-0.9,0.7-1.6,1.3-2.2c0.6-0.6,1.3-1.1,2.1-1.5
		C25,6.4,25.9,6.2,27,6.2z M27,8.1c-1.2,0-2.2,0.3-2.8,1c-0.7,0.7-1.1,1.7-1.3,2.9h7.7c0-0.6-0.1-1.1-0.2-1.6
		c-0.2-0.5-0.4-0.9-0.7-1.2S29,8.5,28.5,8.3C28.1,8.1,27.6,8.1,27,8.1z"/>
	<path class="st0" d="M40.3,20.8c-1.1,0-2-0.3-2.6-0.9c-0.6-0.6-0.9-1.5-0.9-2.7V8.5h-1.7c-0.1,0-0.3,0-0.4-0.1
		c-0.1-0.1-0.2-0.2-0.2-0.4V7l2.3-0.3l0.6-4.4c0-0.1,0.1-0.3,0.2-0.3c0.1-0.1,0.2-0.1,0.4-0.1h1.3v4.9h4.1v1.8h-4.1V17
		c0,0.6,0.1,1,0.4,1.3c0.3,0.3,0.7,0.4,1.1,0.4c0.3,0,0.5,0,0.7-0.1c0.2-0.1,0.4-0.1,0.5-0.2c0.1-0.1,0.3-0.2,0.4-0.2
		c0.1-0.1,0.2-0.1,0.3-0.1c0.1,0,0.2,0.1,0.4,0.2l0.7,1.2c-0.4,0.4-0.9,0.7-1.6,0.9C41.6,20.7,40.9,20.8,40.3,20.8z"/>
	<path class="st0" d="M60,18.5c0.8,0,1.6-0.1,2.2-0.4c0.7-0.3,1.2-0.7,1.7-1.2c0.5-0.5,0.8-1.1,1-1.8c0.2-0.7,0.4-1.5,0.4-2.3V0.6
		H68v12.2c0,1.2-0.2,2.2-0.6,3.2c-0.4,1-0.9,1.8-1.6,2.6c-0.7,0.7-1.5,1.3-2.5,1.7s-2.1,0.6-3.3,0.6s-2.3-0.2-3.3-0.6
		s-1.8-1-2.5-1.7C53.5,17.8,53,17,52.6,16s-0.6-2.1-0.6-3.2V0.6h2.7v12.2c0,0.8,0.1,1.6,0.4,2.3c0.2,0.7,0.6,1.3,1,1.8
		s1,0.9,1.7,1.2S59.2,18.5,60,18.5z"/>
	<path class="st0" d="M72.3,20.6V6.4h1.5c0.4,0,0.6,0.2,0.7,0.5l0.2,1.5c0.6-0.7,1.3-1.2,2.1-1.7s1.6-0.6,2.6-0.6
		c0.8,0,1.5,0.1,2.1,0.4s1.1,0.6,1.5,1.1c0.4,0.5,0.7,1,0.9,1.7c0.2,0.7,0.3,1.4,0.3,2.2v9h-2.5v-9c0-1.1-0.2-1.9-0.7-2.5
		c-0.5-0.6-1.2-0.9-2.2-0.9c-0.7,0-1.4,0.2-2.1,0.5c-0.6,0.4-1.2,0.8-1.8,1.4v10.4H72.3z"/>
	<path class="st0" d="M90.6,0v20.6h-2.5V0H90.6z"/>
	<path class="st0" d="M98.4,2c0,0.2,0,0.5-0.1,0.7S98,3.1,97.8,3.2c-0.2,0.2-0.4,0.3-0.6,0.4c-0.2,0.1-0.4,0.1-0.7,0.1
		s-0.5,0-0.7-0.1c-0.2-0.1-0.4-0.2-0.6-0.4c-0.2-0.2-0.3-0.4-0.4-0.6S94.8,2.2,94.8,2s0-0.5,0.1-0.7c0.1-0.2,0.2-0.4,0.4-0.6
		c0.2-0.2,0.3-0.3,0.6-0.4c0.2-0.1,0.4-0.1,0.7-0.1s0.5,0,0.7,0.1c0.2,0.1,0.4,0.2,0.6,0.4s0.3,0.4,0.4,0.6
		C98.3,1.5,98.4,1.7,98.4,2z M97.8,6.4v14.2h-2.5V6.4H97.8z"/>
	<path class="st0" d="M102.2,20.6V6.4h1.5c0.4,0,0.6,0.2,0.7,0.5l0.2,1.5c0.5-0.6,1.1-1.2,1.8-1.6c0.6-0.4,1.4-0.6,2.3-0.6
		c1,0,1.7,0.3,2.3,0.8c0.6,0.5,1,1.3,1.3,2.2c0.2-0.5,0.5-1,0.8-1.3c0.3-0.4,0.7-0.7,1.1-0.9s0.8-0.4,1.3-0.5
		c0.5-0.1,0.9-0.2,1.4-0.2c0.7,0,1.4,0.1,2,0.4c0.6,0.2,1.1,0.6,1.5,1c0.4,0.5,0.7,1,0.9,1.7s0.3,1.4,0.3,2.3v9h-2.5v-9
		c0-1.1-0.2-2-0.7-2.5c-0.5-0.6-1.2-0.9-2.1-0.9c-0.4,0-0.8,0.1-1.2,0.2c-0.4,0.1-0.7,0.4-1,0.6c-0.3,0.3-0.5,0.6-0.7,1.1
		c-0.2,0.4-0.2,0.9-0.2,1.5v9h-2.5v-9c0-1.1-0.2-2-0.7-2.5c-0.5-0.6-1.1-0.8-2-0.8c-0.6,0-1.2,0.2-1.7,0.5c-0.5,0.3-1,0.8-1.4,1.4
		v10.6H102.2z"/>
	<path class="st0" d="M128.5,2c0,0.2,0,0.5-0.1,0.7s-0.2,0.4-0.4,0.6c-0.2,0.2-0.4,0.3-0.6,0.4c-0.2,0.1-0.4,0.1-0.7,0.1
		s-0.5,0-0.7-0.1c-0.2-0.1-0.4-0.2-0.6-0.4c-0.2-0.2-0.3-0.4-0.4-0.6S125,2.2,125,2s0-0.5,0.1-0.7c0.1-0.2,0.2-0.4,0.4-0.6
		c0.2-0.2,0.3-0.3,0.6-0.4c0.2-0.1,0.4-0.1,0.7-0.1s0.5,0,0.7,0.1c0.2,0.1,0.4,0.2,0.6,0.4s0.3,0.4,0.4,0.6
		C128.5,1.5,128.5,1.7,128.5,2z M128,6.4v14.2h-2.5V6.4H128z"/>
	<path class="st0" d="M136.7,20.8c-1.1,0-2-0.3-2.6-0.9c-0.6-0.6-0.9-1.5-0.9-2.7V8.5h-1.7c-0.1,0-0.3,0-0.4-0.1
		c-0.1-0.1-0.2-0.2-0.2-0.4V7l2.3-0.3l0.6-4.4c0-0.1,0.1-0.3,0.2-0.3c0.1-0.1,0.2-0.1,0.4-0.1h1.3v4.9h4.1v1.8h-4.1V17
		c0,0.6,0.1,1,0.4,1.3c0.3,0.3,0.7,0.4,1.1,0.4c0.3,0,0.5,0,0.7-0.1c0.2-0.1,0.4-0.1,0.5-0.2c0.1-0.1,0.3-0.2,0.4-0.2
		c0.1-0.1,0.2-0.1,0.3-0.1c0.1,0,0.2,0.1,0.4,0.2l0.7,1.2c-0.4,0.4-0.9,0.7-1.6,0.9C137.9,20.7,137.3,20.8,136.7,20.8z"/>
	<path class="st0" d="M148.4,6.2c0.8,0,1.6,0.1,2.4,0.4s1.3,0.7,1.9,1.2c0.5,0.5,0.9,1.2,1.2,2s0.4,1.7,0.4,2.7c0,0.4,0,0.7-0.1,0.8
		c-0.1,0.1-0.2,0.2-0.5,0.2h-9.4c0,0.9,0.1,1.7,0.4,2.3c0.2,0.7,0.5,1.2,0.9,1.7s0.9,0.8,1.4,1c0.5,0.2,1.1,0.3,1.8,0.3
		c0.6,0,1.2-0.1,1.6-0.2s0.8-0.3,1.2-0.5s0.6-0.3,0.8-0.5s0.4-0.2,0.6-0.2c0.2,0,0.4,0.1,0.5,0.2l0.7,0.9c-0.3,0.4-0.7,0.7-1.1,1
		c-0.4,0.3-0.9,0.5-1.4,0.7c-0.5,0.2-1,0.3-1.5,0.4c-0.5,0.1-1,0.1-1.6,0.1c-1,0-1.9-0.2-2.7-0.5c-0.8-0.3-1.5-0.8-2.1-1.5
		c-0.6-0.6-1.1-1.4-1.4-2.4s-0.5-2-0.5-3.2c0-1,0.2-1.9,0.5-2.8c0.3-0.9,0.7-1.6,1.3-2.2c0.6-0.6,1.3-1.1,2.1-1.5
		C146.5,6.4,147.4,6.2,148.4,6.2z M148.5,8.1c-1.2,0-2.2,0.3-2.8,1c-0.7,0.7-1.1,1.7-1.3,2.9h7.7c0-0.6-0.1-1.1-0.2-1.6
		c-0.2-0.5-0.4-0.9-0.7-1.2s-0.7-0.6-1.1-0.8C149.5,8.1,149,8.1,148.5,8.1z"/>
	<path class="st0" d="M167.5,20.6c-0.4,0-0.6-0.2-0.7-0.5l-0.2-1.7c-0.6,0.7-1.3,1.3-2.1,1.8c-0.8,0.4-1.7,0.7-2.7,0.7
		c-0.8,0-1.5-0.2-2.2-0.5c-0.7-0.3-1.2-0.8-1.7-1.4c-0.5-0.6-0.8-1.4-1.1-2.3c-0.3-0.9-0.4-1.9-0.4-3.1c0-1,0.1-2,0.4-2.9
		c0.3-0.9,0.7-1.7,1.2-2.3c0.5-0.7,1.2-1.2,1.9-1.6c0.8-0.4,1.6-0.6,2.6-0.6c0.9,0,1.6,0.1,2.2,0.4c0.6,0.3,1.2,0.7,1.7,1.2V0h2.5
		v20.6H167.5z M162.6,18.8c0.8,0,1.5-0.2,2.1-0.6c0.6-0.4,1.2-0.9,1.7-1.6V9.8c-0.5-0.6-1-1-1.5-1.3c-0.5-0.2-1.2-0.4-1.8-0.4
		c-1.3,0-2.3,0.5-3.1,1.4c-0.7,0.9-1.1,2.3-1.1,4c0,0.9,0.1,1.7,0.2,2.4c0.2,0.7,0.4,1.2,0.7,1.6s0.7,0.7,1.1,0.9
		C161.5,18.7,162,18.8,162.6,18.8z"/>
	<path class="st0" d="M196.3,10.6c0,1.5-0.2,2.9-0.7,4.1s-1.1,2.3-2,3.2c-0.9,0.9-1.9,1.6-3.1,2c-1.2,0.5-2.6,0.7-4,0.7h-7.5V0.6
		h7.5c1.5,0,2.8,0.2,4,0.7c1.2,0.5,2.3,1.2,3.1,2c0.9,0.9,1.5,1.9,2,3.2S196.3,9.1,196.3,10.6z M193.5,10.6c0-1.2-0.2-2.3-0.5-3.3
		s-0.8-1.8-1.4-2.5c-0.6-0.7-1.4-1.2-2.2-1.5c-0.9-0.4-1.9-0.5-2.9-0.5h-4.8v15.7h4.8c1.1,0,2-0.2,2.9-0.5c0.9-0.4,1.6-0.9,2.2-1.5
		c0.6-0.7,1.1-1.5,1.4-2.5C193.4,12.9,193.5,11.8,193.5,10.6z"/>
	<path class="st0" d="M202.9,2c0,0.2,0,0.5-0.1,0.7s-0.2,0.4-0.4,0.6c-0.2,0.2-0.4,0.3-0.6,0.4c-0.2,0.1-0.4,0.1-0.7,0.1
		s-0.5,0-0.7-0.1c-0.2-0.1-0.4-0.2-0.6-0.4c-0.2-0.2-0.3-0.4-0.4-0.6s-0.1-0.4-0.1-0.7s0-0.5,0.1-0.7c0.1-0.2,0.2-0.4,0.4-0.6
		c0.2-0.2,0.3-0.3,0.6-0.4c0.2-0.1,0.4-0.1,0.7-0.1s0.5,0,0.7,0.1c0.2,0.1,0.4,0.2,0.6,0.4s0.3,0.4,0.4,0.6
		C202.9,1.5,202.9,1.7,202.9,2z M202.4,6.4v14.2h-2.5V6.4H202.4z"/>
	<path class="st0" d="M211.6,6.2c0.6,0,1.2,0.1,1.7,0.2s1,0.3,1.5,0.6h3.9v0.9c0,0.3-0.2,0.5-0.6,0.6l-1.6,0.2
		c0.3,0.6,0.5,1.3,0.5,2c0,0.7-0.1,1.3-0.4,1.9c-0.3,0.6-0.6,1-1.1,1.4s-1,0.7-1.7,0.9c-0.6,0.2-1.4,0.3-2.1,0.3
		c-0.7,0-1.3-0.1-1.9-0.2c-0.3,0.2-0.5,0.4-0.7,0.6c-0.2,0.2-0.2,0.4-0.2,0.7c0,0.3,0.1,0.6,0.4,0.8c0.3,0.2,0.6,0.3,1.1,0.4
		c0.4,0.1,1,0.1,1.5,0.1s1.2,0,1.7,0c0.6,0,1.2,0.1,1.7,0.2c0.6,0.1,1.1,0.3,1.5,0.5c0.4,0.2,0.8,0.6,1.1,1c0.3,0.4,0.4,1,0.4,1.6
		c0,0.6-0.2,1.2-0.5,1.8c-0.3,0.6-0.7,1.1-1.3,1.5s-1.3,0.8-2.1,1.1c-0.8,0.3-1.8,0.4-2.8,0.4c-1,0-1.9-0.1-2.7-0.3
		c-0.8-0.2-1.4-0.5-1.9-0.8c-0.5-0.3-0.9-0.7-1.2-1.2s-0.4-0.9-0.4-1.4c0-0.7,0.2-1.3,0.7-1.8c0.4-0.5,1.1-0.9,1.8-1.2
		c-0.4-0.2-0.7-0.4-1-0.7c-0.2-0.3-0.4-0.7-0.4-1.3c0-0.2,0-0.4,0.1-0.6s0.2-0.4,0.3-0.6c0.2-0.2,0.3-0.4,0.6-0.6
		c0.2-0.2,0.5-0.4,0.8-0.5c-0.7-0.4-1.2-0.9-1.6-1.6c-0.4-0.6-0.6-1.4-0.6-2.3c0-0.7,0.1-1.3,0.4-1.9c0.3-0.6,0.6-1,1.1-1.4
		c0.5-0.4,1-0.7,1.7-0.9C210,6.3,210.8,6.2,211.6,6.2z M216,21.3c0-0.4-0.1-0.7-0.3-0.9c-0.2-0.2-0.5-0.4-0.8-0.5s-0.7-0.2-1.2-0.3
		c-0.4-0.1-0.9-0.1-1.4-0.1s-1,0-1.5,0c-0.5,0-1-0.1-1.4-0.2c-0.5,0.3-1,0.6-1.3,0.9c-0.3,0.4-0.5,0.8-0.5,1.3
		c0,0.3,0.1,0.6,0.2,0.9c0.2,0.3,0.4,0.5,0.7,0.7c0.3,0.2,0.8,0.4,1.3,0.5c0.5,0.1,1.1,0.2,1.8,0.2c0.7,0,1.3-0.1,1.8-0.2
		c0.5-0.1,1-0.3,1.4-0.5c0.4-0.2,0.7-0.5,0.8-0.8C215.9,22.1,216,21.7,216,21.3z M211.6,13.7c0.5,0,0.9-0.1,1.3-0.2
		c0.4-0.1,0.7-0.3,1-0.6s0.5-0.6,0.6-0.9s0.2-0.7,0.2-1.2c0-0.9-0.3-1.6-0.8-2.1c-0.5-0.5-1.3-0.8-2.3-0.8c-1,0-1.8,0.3-2.3,0.8
		s-0.8,1.2-0.8,2.1c0,0.4,0.1,0.8,0.2,1.2s0.3,0.7,0.6,0.9c0.3,0.3,0.6,0.4,1,0.6C210.6,13.6,211.1,13.7,211.6,13.7z"/>
	<path class="st0" d="M224.4,2c0,0.2,0,0.5-0.1,0.7s-0.2,0.4-0.4,0.6c-0.2,0.2-0.4,0.3-0.6,0.4c-0.2,0.1-0.4,0.1-0.7,0.1
		s-0.5,0-0.7-0.1c-0.2-0.1-0.4-0.2-0.6-0.4c-0.2-0.2-0.3-0.4-0.4-0.6s-0.1-0.4-0.1-0.7s0-0.5,0.1-0.7c0.1-0.2,0.2-0.4,0.4-0.6
		c0.2-0.2,0.3-0.3,0.6-0.4c0.2-0.1,0.4-0.1,0.7-0.1s0.5,0,0.7,0.1c0.2,0.1,0.4,0.2,0.6,0.4s0.3,0.4,0.4,0.6
		C224.4,1.5,224.4,1.7,224.4,2z M223.9,6.4v14.2h-2.5V6.4H223.9z"/>
	<path class="st0" d="M232.6,20.8c-1.1,0-2-0.3-2.6-0.9c-0.6-0.6-0.9-1.5-0.9-2.7V8.5h-1.7c-0.1,0-0.3,0-0.4-0.1
		c-0.1-0.1-0.2-0.2-0.2-0.4V7l2.3-0.3l0.6-4.4c0-0.1,0.1-0.3,0.2-0.3c0.1-0.1,0.2-0.1,0.4-0.1h1.3v4.9h4.1v1.8h-4.1V17
		c0,0.6,0.1,1,0.4,1.3c0.3,0.3,0.7,0.4,1.1,0.4c0.3,0,0.5,0,0.7-0.1c0.2-0.1,0.4-0.1,0.5-0.2c0.1-0.1,0.3-0.2,0.4-0.2
		c0.1-0.1,0.2-0.1,0.3-0.1c0.1,0,0.2,0.1,0.4,0.2l0.7,1.2c-0.4,0.4-0.9,0.7-1.6,0.9C233.8,20.7,233.2,20.8,232.6,20.8z"/>
	<path class="st0" d="M249.1,20.6H248c-0.2,0-0.4,0-0.6-0.1c-0.1-0.1-0.2-0.2-0.3-0.5l-0.3-1.3c-0.4,0.3-0.7,0.6-1.1,0.9
		c-0.4,0.3-0.7,0.5-1.1,0.7s-0.8,0.3-1.3,0.4s-0.9,0.1-1.5,0.1c-0.6,0-1.1-0.1-1.5-0.2c-0.5-0.2-0.9-0.4-1.3-0.7
		c-0.4-0.3-0.6-0.7-0.8-1.2c-0.2-0.5-0.3-1-0.3-1.7c0-0.6,0.2-1.1,0.5-1.6c0.3-0.5,0.8-1,1.5-1.4c0.7-0.4,1.6-0.7,2.7-1
		c1.1-0.3,2.5-0.4,4.1-0.4v-1.1c0-1.1-0.2-1.9-0.7-2.5c-0.5-0.6-1.2-0.9-2.1-0.9c-0.6,0-1.1,0.1-1.5,0.2c-0.4,0.2-0.8,0.3-1.1,0.5
		c-0.3,0.2-0.6,0.4-0.8,0.5c-0.2,0.2-0.4,0.2-0.7,0.2c-0.2,0-0.3,0-0.4-0.1c-0.1-0.1-0.2-0.2-0.3-0.3l-0.4-0.8
		c0.8-0.8,1.6-1.3,2.5-1.7c0.9-0.4,1.9-0.6,3-0.6c0.8,0,1.5,0.1,2.1,0.4c0.6,0.3,1.1,0.6,1.6,1.1c0.4,0.5,0.7,1,1,1.7
		c0.2,0.7,0.3,1.4,0.3,2.2V20.6z M242.6,19.1c0.4,0,0.8,0,1.2-0.1c0.4-0.1,0.7-0.2,1-0.4c0.3-0.2,0.6-0.4,0.9-0.6s0.6-0.5,0.9-0.8
		v-2.9c-1.1,0-2.1,0.1-2.9,0.2s-1.5,0.3-2,0.6c-0.5,0.2-0.9,0.5-1.1,0.8c-0.2,0.3-0.3,0.7-0.3,1.1c0,0.4,0.1,0.7,0.2,1
		c0.1,0.3,0.3,0.5,0.5,0.7c0.2,0.2,0.4,0.3,0.7,0.4C242,19.1,242.3,19.1,242.6,19.1z"/>
	<path class="st0" d="M255.7,0v20.6h-2.5V0H255.7z"/>
	<path class="st0" d="M282.4,20.6h-2.1c-0.2,0-0.4-0.1-0.6-0.2c-0.1-0.1-0.3-0.3-0.3-0.5l-1.9-4.8h-9l-1.9,4.8
		c-0.1,0.2-0.2,0.3-0.3,0.4c-0.2,0.1-0.4,0.2-0.6,0.2h-2.1l8-20.1h2.8L282.4,20.6z M269.2,13.2h7.5L273.6,5
		c-0.2-0.5-0.4-1.1-0.6-1.9c-0.1,0.4-0.2,0.7-0.3,1.1c-0.1,0.3-0.2,0.6-0.3,0.8L269.2,13.2z"/>
	<path class="st0" d="M294.2,9c-0.1,0.1-0.1,0.2-0.2,0.2c-0.1,0.1-0.2,0.1-0.3,0.1c-0.1,0-0.3-0.1-0.5-0.2c-0.2-0.1-0.4-0.2-0.6-0.4
		c-0.3-0.1-0.6-0.3-0.9-0.4c-0.4-0.1-0.8-0.2-1.3-0.2c-0.7,0-1.3,0.1-1.8,0.4c-0.5,0.2-1,0.6-1.3,1.1c-0.4,0.5-0.6,1-0.8,1.7
		c-0.2,0.7-0.3,1.4-0.3,2.2c0,0.9,0.1,1.6,0.3,2.3c0.2,0.7,0.5,1.2,0.8,1.7c0.4,0.5,0.8,0.8,1.3,1c0.5,0.2,1.1,0.4,1.7,0.4
		c0.6,0,1.1-0.1,1.5-0.2c0.4-0.1,0.7-0.3,1-0.5s0.5-0.3,0.6-0.5s0.3-0.2,0.5-0.2c0.2,0,0.4,0.1,0.5,0.2l0.7,0.9
		c-0.6,0.8-1.4,1.3-2.3,1.7c-0.9,0.4-1.9,0.5-2.9,0.5c-0.9,0-1.7-0.2-2.5-0.5c-0.8-0.3-1.4-0.8-2-1.4c-0.6-0.6-1-1.4-1.3-2.3
		c-0.3-0.9-0.5-1.9-0.5-3.1c0-1.1,0.1-2,0.4-2.9s0.7-1.7,1.3-2.3c0.6-0.6,1.3-1.2,2.1-1.5c0.8-0.4,1.8-0.5,2.9-0.5
		c1,0,1.9,0.2,2.6,0.5c0.8,0.3,1.4,0.8,2,1.4L294.2,9z"/>
	<path class="st0" d="M307.3,9c-0.1,0.1-0.1,0.2-0.2,0.2c-0.1,0.1-0.2,0.1-0.3,0.1c-0.1,0-0.3-0.1-0.5-0.2c-0.2-0.1-0.4-0.2-0.6-0.4
		c-0.3-0.1-0.6-0.3-0.9-0.4c-0.4-0.1-0.8-0.2-1.3-0.2c-0.7,0-1.3,0.1-1.8,0.4c-0.5,0.2-1,0.6-1.3,1.1c-0.4,0.5-0.6,1-0.8,1.7
		c-0.2,0.7-0.3,1.4-0.3,2.2c0,0.9,0.1,1.6,0.3,2.3c0.2,0.7,0.5,1.2,0.8,1.7c0.4,0.5,0.8,0.8,1.3,1c0.5,0.2,1.1,0.4,1.7,0.4
		c0.6,0,1.1-0.1,1.5-0.2c0.4-0.1,0.7-0.3,1-0.5s0.5-0.3,0.6-0.5s0.3-0.2,0.5-0.2c0.2,0,0.4,0.1,0.5,0.2l0.7,0.9
		c-0.6,0.8-1.4,1.3-2.3,1.7c-0.9,0.4-1.9,0.5-2.9,0.5c-0.9,0-1.7-0.2-2.5-0.5c-0.8-0.3-1.4-0.8-2-1.4c-0.6-0.6-1-1.4-1.3-2.3
		c-0.3-0.9-0.5-1.9-0.5-3.1c0-1.1,0.1-2,0.4-2.9s0.7-1.7,1.3-2.3c0.6-0.6,1.3-1.2,2.1-1.5c0.8-0.4,1.8-0.5,2.9-0.5
		c1,0,1.9,0.2,2.6,0.5c0.8,0.3,1.4,0.8,2,1.4L307.3,9z"/>
	<path class="st0" d="M316.3,6.2c0.8,0,1.6,0.1,2.4,0.4s1.3,0.7,1.9,1.2c0.5,0.5,0.9,1.2,1.2,2s0.4,1.7,0.4,2.7c0,0.4,0,0.7-0.1,0.8
		c-0.1,0.1-0.2,0.2-0.5,0.2h-9.4c0,0.9,0.1,1.7,0.4,2.3c0.2,0.7,0.5,1.2,0.9,1.7s0.9,0.8,1.4,1c0.5,0.2,1.1,0.3,1.8,0.3
		c0.6,0,1.2-0.1,1.6-0.2s0.8-0.3,1.2-0.5s0.6-0.3,0.8-0.5s0.4-0.2,0.6-0.2c0.2,0,0.4,0.1,0.5,0.2l0.7,0.9c-0.3,0.4-0.7,0.7-1.1,1
		c-0.4,0.3-0.9,0.5-1.4,0.7c-0.5,0.2-1,0.3-1.5,0.4c-0.5,0.1-1,0.1-1.6,0.1c-1,0-1.9-0.2-2.7-0.5c-0.8-0.3-1.5-0.8-2.1-1.5
		c-0.6-0.6-1.1-1.4-1.4-2.4s-0.5-2-0.5-3.2c0-1,0.2-1.9,0.5-2.8c0.3-0.9,0.7-1.6,1.3-2.2c0.6-0.6,1.3-1.1,2.1-1.5
		C314.3,6.4,315.2,6.2,316.3,6.2z M316.3,8.1c-1.2,0-2.2,0.3-2.8,1c-0.7,0.7-1.1,1.7-1.3,2.9h7.7c0-0.6-0.1-1.1-0.2-1.6
		c-0.2-0.5-0.4-0.9-0.7-1.2s-0.7-0.6-1.1-0.8C317.4,8.1,316.9,8.1,316.3,8.1z"/>
	<path class="st0" d="M333.4,8.8c-0.1,0.2-0.3,0.3-0.5,0.3c-0.1,0-0.3-0.1-0.5-0.2s-0.4-0.2-0.7-0.3c-0.3-0.1-0.6-0.2-0.9-0.3
		c-0.4-0.1-0.8-0.2-1.3-0.2c-0.4,0-0.8,0.1-1.1,0.2s-0.6,0.3-0.9,0.4c-0.2,0.2-0.4,0.4-0.5,0.7c-0.1,0.2-0.2,0.5-0.2,0.8
		c0,0.4,0.1,0.7,0.3,0.9c0.2,0.2,0.5,0.5,0.8,0.6s0.7,0.3,1.2,0.5c0.4,0.1,0.9,0.3,1.4,0.4s0.9,0.3,1.4,0.5c0.4,0.2,0.8,0.4,1.2,0.7
		c0.3,0.3,0.6,0.6,0.8,1c0.2,0.4,0.3,0.9,0.3,1.5c0,0.7-0.1,1.3-0.4,1.8s-0.6,1-1,1.4c-0.5,0.4-1,0.7-1.7,1s-1.4,0.4-2.3,0.4
		c-1,0-1.9-0.2-2.7-0.5c-0.8-0.3-1.5-0.7-2-1.2l0.6-1c0.1-0.1,0.2-0.2,0.3-0.3c0.1-0.1,0.2-0.1,0.4-0.1s0.3,0.1,0.5,0.2
		c0.2,0.1,0.4,0.3,0.7,0.4c0.3,0.2,0.6,0.3,1,0.4c0.4,0.1,0.9,0.2,1.4,0.2c0.5,0,0.9-0.1,1.3-0.2s0.7-0.3,0.9-0.5
		c0.2-0.2,0.4-0.5,0.5-0.7c0.1-0.3,0.2-0.6,0.2-0.9c0-0.4-0.1-0.7-0.3-1s-0.5-0.5-0.8-0.7c-0.3-0.2-0.7-0.3-1.2-0.5
		c-0.4-0.1-0.9-0.3-1.4-0.4s-0.9-0.3-1.4-0.5c-0.4-0.2-0.8-0.4-1.2-0.7c-0.3-0.3-0.6-0.6-0.8-1.1c-0.2-0.4-0.3-0.9-0.3-1.5
		c0-0.5,0.1-1.1,0.3-1.6c0.2-0.5,0.6-0.9,1-1.3s1-0.7,1.6-0.9c0.6-0.2,1.3-0.3,2.1-0.3c0.9,0,1.8,0.1,2.5,0.4
		c0.7,0.3,1.4,0.7,1.9,1.2L333.4,8.8z"/>
	<path class="st0" d="M345.6,8.8c-0.1,0.2-0.3,0.3-0.5,0.3c-0.1,0-0.3-0.1-0.5-0.2s-0.4-0.2-0.7-0.3c-0.3-0.1-0.6-0.2-0.9-0.3
		c-0.4-0.1-0.8-0.2-1.3-0.2c-0.4,0-0.8,0.1-1.1,0.2s-0.6,0.3-0.9,0.4c-0.2,0.2-0.4,0.4-0.5,0.7c-0.1,0.2-0.2,0.5-0.2,0.8
		c0,0.4,0.1,0.7,0.3,0.9c0.2,0.2,0.5,0.5,0.8,0.6s0.7,0.3,1.2,0.5c0.4,0.1,0.9,0.3,1.4,0.4s0.9,0.3,1.4,0.5c0.4,0.2,0.8,0.4,1.2,0.7
		c0.3,0.3,0.6,0.6,0.8,1c0.2,0.4,0.3,0.9,0.3,1.5c0,0.7-0.1,1.3-0.4,1.8s-0.6,1-1,1.4c-0.5,0.4-1,0.7-1.7,1s-1.4,0.4-2.3,0.4
		c-1,0-1.9-0.2-2.7-0.5c-0.8-0.3-1.5-0.7-2-1.2l0.6-1c0.1-0.1,0.2-0.2,0.3-0.3c0.1-0.1,0.2-0.1,0.4-0.1s0.3,0.1,0.5,0.2
		c0.2,0.1,0.4,0.3,0.7,0.4c0.3,0.2,0.6,0.3,1,0.4c0.4,0.1,0.9,0.2,1.4,0.2c0.5,0,0.9-0.1,1.3-0.2s0.7-0.3,0.9-0.5
		c0.2-0.2,0.4-0.5,0.5-0.7c0.1-0.3,0.2-0.6,0.2-0.9c0-0.4-0.1-0.7-0.3-1s-0.5-0.5-0.8-0.7c-0.3-0.2-0.7-0.3-1.2-0.5
		c-0.4-0.1-0.9-0.3-1.4-0.4s-0.9-0.3-1.4-0.5c-0.4-0.2-0.8-0.4-1.2-0.7c-0.3-0.3-0.6-0.6-0.8-1.1c-0.2-0.4-0.3-0.9-0.3-1.5
		c0-0.5,0.1-1.1,0.3-1.6c0.2-0.5,0.6-0.9,1-1.3s1-0.7,1.6-0.9c0.6-0.2,1.3-0.3,2.1-0.3c0.9,0,1.8,0.1,2.5,0.4
		c0.7,0.3,1.4,0.7,1.9,1.2L345.6,8.8z"/>
</g>
<g>
	<path class="st0" d="M10.1,42h2.4v1.1c0,0.1,0,0.2-0.1,0.3c-0.1,0.1-0.2,0.1-0.3,0.1h-2v4.1H8.4v-4.1h-7c-0.1,0-0.3,0-0.4-0.1
		c-0.1-0.1-0.2-0.2-0.2-0.3l-0.2-1l7.7-10.2h1.8V42z M8.4,35.5c0-0.2,0-0.4,0-0.6c0-0.2,0-0.4,0.1-0.7L2.7,42h5.6V35.5z"/>
	<path class="st0" d="M17.3,36.5h1.5c0.2,0,0.3,0,0.4,0.1s0.2,0.2,0.2,0.3l2.1,7.2c0.1,0.3,0.1,0.5,0.2,0.8c0.1,0.2,0.1,0.5,0.1,0.7
		c0.1-0.2,0.1-0.5,0.2-0.7c0.1-0.2,0.1-0.5,0.2-0.8l2.4-7.2c0-0.1,0.1-0.2,0.2-0.3c0.1-0.1,0.2-0.1,0.3-0.1h0.8c0.1,0,0.3,0,0.4,0.1
		c0.1,0.1,0.2,0.2,0.2,0.3l2.3,7.2c0.1,0.3,0.2,0.5,0.2,0.8c0.1,0.2,0.1,0.5,0.2,0.7c0-0.2,0.1-0.5,0.1-0.8c0.1-0.3,0.1-0.5,0.2-0.7
		l2.2-7.2c0-0.1,0.1-0.2,0.2-0.3c0.1-0.1,0.2-0.1,0.4-0.1h1.5l-3.6,11.1h-1.6c-0.2,0-0.3-0.1-0.4-0.4l-2.5-7.6
		c-0.1-0.2-0.1-0.3-0.1-0.5s-0.1-0.3-0.1-0.5c0,0.2-0.1,0.3-0.1,0.5c0,0.2-0.1,0.3-0.1,0.5l-2.5,7.5c-0.1,0.2-0.2,0.4-0.5,0.4h-1.5
		L17.3,36.5z"/>
	<path class="st0" d="M40.1,36.3c0.7,0,1.3,0.1,1.8,0.3c0.6,0.2,1.1,0.5,1.5,1c0.4,0.4,0.7,0.9,1,1.6c0.2,0.6,0.3,1.3,0.3,2.1
		c0,0.3,0,0.5-0.1,0.6c-0.1,0.1-0.2,0.2-0.4,0.2h-7.4c0,0.7,0.1,1.3,0.3,1.8c0.2,0.5,0.4,1,0.7,1.3c0.3,0.3,0.7,0.6,1.1,0.8
		s0.9,0.3,1.4,0.3c0.5,0,0.9-0.1,1.3-0.2c0.4-0.1,0.7-0.2,0.9-0.4c0.3-0.1,0.5-0.3,0.6-0.4s0.3-0.2,0.4-0.2c0.2,0,0.3,0.1,0.4,0.2
		l0.6,0.7c-0.2,0.3-0.5,0.5-0.9,0.8s-0.7,0.4-1.1,0.5c-0.4,0.1-0.8,0.2-1.2,0.3c-0.4,0.1-0.8,0.1-1.2,0.1c-0.8,0-1.5-0.1-2.1-0.4
		s-1.2-0.6-1.7-1.1s-0.8-1.1-1.1-1.9s-0.4-1.6-0.4-2.6c0-0.8,0.1-1.5,0.4-2.2c0.2-0.7,0.6-1.3,1-1.8c0.4-0.5,1-0.9,1.6-1.2
		C38.5,36.5,39.2,36.3,40.1,36.3z M40.1,37.8c-0.9,0-1.7,0.3-2.2,0.8c-0.5,0.5-0.9,1.3-1,2.3h6.1c0-0.5-0.1-0.9-0.2-1.2
		c-0.1-0.4-0.3-0.7-0.5-1c-0.2-0.3-0.5-0.5-0.9-0.6S40.5,37.8,40.1,37.8z"/>
	<path class="st0" d="M51.6,36.3c0.7,0,1.3,0.1,1.8,0.3c0.6,0.2,1.1,0.5,1.5,1c0.4,0.4,0.7,0.9,1,1.6c0.2,0.6,0.3,1.3,0.3,2.1
		c0,0.3,0,0.5-0.1,0.6c-0.1,0.1-0.2,0.2-0.4,0.2h-7.4c0,0.7,0.1,1.3,0.3,1.8c0.2,0.5,0.4,1,0.7,1.3c0.3,0.3,0.7,0.6,1.1,0.8
		s0.9,0.3,1.4,0.3c0.5,0,0.9-0.1,1.3-0.2c0.4-0.1,0.7-0.2,0.9-0.4c0.3-0.1,0.5-0.3,0.6-0.4s0.3-0.2,0.4-0.2c0.2,0,0.3,0.1,0.4,0.2
		l0.6,0.7c-0.2,0.3-0.5,0.5-0.9,0.8s-0.7,0.4-1.1,0.5c-0.4,0.1-0.8,0.2-1.2,0.3c-0.4,0.1-0.8,0.1-1.2,0.1c-0.8,0-1.5-0.1-2.1-0.4
		s-1.2-0.6-1.7-1.1s-0.8-1.1-1.1-1.9s-0.4-1.6-0.4-2.6c0-0.8,0.1-1.5,0.4-2.2c0.2-0.7,0.6-1.3,1-1.8c0.4-0.5,1-0.9,1.6-1.2
		C50,36.5,50.8,36.3,51.6,36.3z M51.6,37.8c-0.9,0-1.7,0.3-2.2,0.8c-0.5,0.5-0.9,1.3-1,2.3h6.1c0-0.5-0.1-0.9-0.2-1.2
		c-0.1-0.4-0.3-0.7-0.5-1c-0.2-0.3-0.5-0.5-0.9-0.6S52.1,37.8,51.6,37.8z"/>
	<path class="st0" d="M60.7,31.5V41h0.5c0.1,0,0.3,0,0.4-0.1c0.1,0,0.2-0.1,0.3-0.2l3.5-3.8c0.1-0.1,0.2-0.2,0.3-0.3
		c0.1-0.1,0.3-0.1,0.4-0.1H68l-4.1,4.4c-0.1,0.1-0.2,0.2-0.3,0.3s-0.2,0.2-0.3,0.3c0.1,0.1,0.3,0.2,0.4,0.3c0.1,0.1,0.2,0.2,0.3,0.4
		l4.4,5.5h-1.8c-0.2,0-0.3,0-0.4-0.1c-0.1-0.1-0.2-0.2-0.3-0.3l-3.7-4.6c-0.1-0.2-0.2-0.3-0.3-0.3s-0.3-0.1-0.5-0.1h-0.5v5.3h-2
		V31.5H60.7z"/>
	<path class="st0" d="M76.6,38.4c-0.1,0.2-0.2,0.2-0.4,0.2c-0.1,0-0.2,0-0.4-0.1c-0.1-0.1-0.3-0.2-0.5-0.3s-0.4-0.2-0.7-0.3
		c-0.3-0.1-0.6-0.1-1-0.1c-0.3,0-0.6,0-0.9,0.1c-0.3,0.1-0.5,0.2-0.7,0.3c-0.2,0.1-0.3,0.3-0.4,0.5c-0.1,0.2-0.1,0.4-0.1,0.6
		c0,0.3,0.1,0.5,0.2,0.7s0.4,0.4,0.7,0.5c0.3,0.1,0.6,0.3,0.9,0.4c0.3,0.1,0.7,0.2,1.1,0.3c0.4,0.1,0.7,0.3,1.1,0.4
		c0.3,0.1,0.7,0.3,0.9,0.5c0.3,0.2,0.5,0.5,0.7,0.8c0.2,0.3,0.2,0.7,0.2,1.1c0,0.5-0.1,1-0.3,1.4c-0.2,0.4-0.5,0.8-0.8,1.1
		s-0.8,0.6-1.3,0.8c-0.5,0.2-1.1,0.3-1.8,0.3c-0.8,0-1.5-0.1-2.1-0.4c-0.6-0.3-1.2-0.6-1.6-1l0.5-0.7c0.1-0.1,0.1-0.2,0.2-0.2
		s0.2-0.1,0.3-0.1c0.1,0,0.3,0.1,0.4,0.2c0.1,0.1,0.3,0.2,0.5,0.3c0.2,0.1,0.5,0.2,0.8,0.3c0.3,0.1,0.7,0.2,1.1,0.2
		c0.4,0,0.7,0,1-0.1c0.3-0.1,0.5-0.2,0.7-0.4c0.2-0.2,0.3-0.4,0.4-0.6c0.1-0.2,0.1-0.5,0.1-0.7c0-0.3-0.1-0.6-0.2-0.8
		s-0.4-0.4-0.7-0.5c-0.3-0.1-0.6-0.3-0.9-0.4c-0.3-0.1-0.7-0.2-1.1-0.3c-0.4-0.1-0.7-0.3-1.1-0.4c-0.3-0.2-0.7-0.3-0.9-0.6
		c-0.3-0.2-0.5-0.5-0.7-0.8c-0.2-0.3-0.2-0.7-0.2-1.2c0-0.4,0.1-0.8,0.3-1.2c0.2-0.4,0.4-0.7,0.8-1c0.3-0.3,0.8-0.5,1.2-0.7
		c0.5-0.2,1.1-0.3,1.7-0.3c0.7,0,1.4,0.1,2,0.3s1.1,0.5,1.5,1L76.6,38.4z"/>
	<path class="st0" d="M84.5,47.7v-9.5L83.2,38c-0.2,0-0.3-0.1-0.4-0.2c-0.1-0.1-0.1-0.2-0.1-0.3v-0.8h1.8v-1.1
		c0-0.6,0.1-1.2,0.3-1.7c0.2-0.5,0.4-0.9,0.8-1.3c0.3-0.3,0.7-0.6,1.2-0.8s1-0.3,1.6-0.3c0.5,0,1,0.1,1.4,0.2l0,1
		c0,0.1-0.1,0.2-0.2,0.3s-0.3,0-0.5,0h-0.3c-0.3,0-0.6,0-0.9,0.1s-0.5,0.2-0.7,0.4c-0.2,0.2-0.4,0.5-0.5,0.8s-0.2,0.7-0.2,1.2v1h3.2
		v1.4h-3.2v9.5H84.5z"/>
	<path class="st0" d="M95.9,36.3c0.8,0,1.5,0.1,2.2,0.4c0.7,0.3,1.2,0.7,1.7,1.2c0.5,0.5,0.8,1.1,1.1,1.8c0.2,0.7,0.4,1.5,0.4,2.4
		c0,0.9-0.1,1.7-0.4,2.4c-0.2,0.7-0.6,1.3-1.1,1.8c-0.5,0.5-1,0.9-1.7,1.1s-1.4,0.4-2.2,0.4c-0.8,0-1.5-0.1-2.2-0.4
		c-0.7-0.3-1.2-0.7-1.7-1.1s-0.8-1.1-1.1-1.8c-0.2-0.7-0.4-1.5-0.4-2.4c0-0.9,0.1-1.7,0.4-2.4c0.2-0.7,0.6-1.3,1.1-1.8
		s1-0.9,1.7-1.2C94.4,36.5,95.1,36.3,95.9,36.3z M95.9,46.3c1.1,0,1.9-0.4,2.5-1.1c0.5-0.7,0.8-1.8,0.8-3.1c0-1.3-0.3-2.4-0.8-3.1
		c-0.5-0.7-1.4-1.1-2.5-1.1c-0.6,0-1,0.1-1.5,0.3c-0.4,0.2-0.8,0.5-1,0.8c-0.3,0.4-0.5,0.8-0.6,1.3s-0.2,1.1-0.2,1.8
		s0.1,1.3,0.2,1.8s0.3,1,0.6,1.3c0.3,0.4,0.6,0.6,1,0.8C94.9,46.2,95.4,46.3,95.9,46.3z"/>
	<path class="st0" d="M103.7,47.7V36.5h1.1c0.2,0,0.4,0,0.4,0.1s0.1,0.2,0.2,0.4l0.1,1.7c0.4-0.8,0.9-1.4,1.4-1.8
		c0.6-0.4,1.2-0.7,2-0.7c0.3,0,0.6,0,0.8,0.1c0.2,0.1,0.5,0.2,0.7,0.3l-0.3,1.5c-0.1,0.2-0.2,0.3-0.3,0.3c-0.1,0-0.3,0-0.5-0.1
		s-0.5-0.1-0.9-0.1c-0.7,0-1.3,0.2-1.7,0.6s-0.8,1-1.1,1.7v7.1H103.7z"/>
	<path class="st0" d="M121.2,41.2c-0.6,0-1.2-0.1-1.7-0.3c-0.5-0.2-1-0.5-1.4-0.9c-0.4-0.4-0.7-0.9-1-1.4s-0.4-1.2-0.4-1.9
		c0-0.7,0.1-1.3,0.4-1.9c0.3-0.6,0.6-1.1,1.1-1.6c0.5-0.4,1-0.8,1.7-1.1c0.6-0.3,1.3-0.4,2.1-0.4c0.8,0,1.4,0.1,2.1,0.4
		c0.6,0.2,1.1,0.6,1.6,1s0.8,1,1,1.6c0.2,0.6,0.4,1.3,0.4,2.1c0,0.5,0,0.9-0.1,1.3c-0.1,0.4-0.2,0.8-0.4,1.2
		c-0.2,0.4-0.4,0.8-0.6,1.2c-0.2,0.4-0.5,0.8-0.8,1.2l-3.8,5.5c-0.1,0.1-0.2,0.3-0.4,0.3c-0.2,0.1-0.4,0.1-0.6,0.1h-1.8l4.8-6.3
		c0.2-0.2,0.3-0.4,0.5-0.6c0.1-0.2,0.3-0.4,0.4-0.6c-0.4,0.3-0.9,0.6-1.4,0.7C122.3,41.1,121.8,41.2,121.2,41.2z M125.1,36.6
		c0-0.5-0.1-0.9-0.2-1.3c-0.2-0.4-0.4-0.7-0.7-1c-0.3-0.3-0.6-0.5-1-0.6c-0.4-0.1-0.8-0.2-1.3-0.2c-0.5,0-0.9,0.1-1.3,0.2
		c-0.4,0.2-0.7,0.4-1,0.7c-0.3,0.3-0.5,0.6-0.7,1c-0.2,0.4-0.2,0.8-0.2,1.3c0,0.5,0.1,0.9,0.2,1.3c0.1,0.4,0.3,0.7,0.6,1
		c0.3,0.3,0.6,0.5,1,0.6c0.4,0.1,0.8,0.2,1.3,0.2c0.5,0,1-0.1,1.4-0.3c0.4-0.2,0.8-0.4,1-0.7c0.3-0.3,0.5-0.6,0.6-1
		C125.1,37.4,125.1,37,125.1,36.6z"/>
	<path class="st0" d="M134,41.2c-0.6,0-1.2-0.1-1.7-0.3c-0.5-0.2-1-0.5-1.4-0.9c-0.4-0.4-0.7-0.9-1-1.4s-0.4-1.2-0.4-1.9
		c0-0.7,0.1-1.3,0.4-1.9c0.3-0.6,0.6-1.1,1.1-1.6c0.5-0.4,1-0.8,1.7-1.1c0.6-0.3,1.3-0.4,2.1-0.4c0.8,0,1.4,0.1,2.1,0.4
		c0.6,0.2,1.1,0.6,1.6,1s0.8,1,1,1.6c0.2,0.6,0.4,1.3,0.4,2.1c0,0.5,0,0.9-0.1,1.3c-0.1,0.4-0.2,0.8-0.4,1.2
		c-0.2,0.4-0.4,0.8-0.6,1.2c-0.2,0.4-0.5,0.8-0.8,1.2l-3.8,5.5c-0.1,0.1-0.2,0.3-0.4,0.3c-0.2,0.1-0.4,0.1-0.6,0.1h-1.8l4.8-6.3
		c0.2-0.2,0.3-0.4,0.5-0.6c0.1-0.2,0.3-0.4,0.4-0.6c-0.4,0.3-0.9,0.6-1.4,0.7C135.1,41.1,134.5,41.2,134,41.2z M137.9,36.6
		c0-0.5-0.1-0.9-0.2-1.3c-0.2-0.4-0.4-0.7-0.7-1c-0.3-0.3-0.6-0.5-1-0.6c-0.4-0.1-0.8-0.2-1.3-0.2c-0.5,0-0.9,0.1-1.3,0.2
		c-0.4,0.2-0.7,0.4-1,0.7c-0.3,0.3-0.5,0.6-0.7,1c-0.2,0.4-0.2,0.8-0.2,1.3c0,0.5,0.1,0.9,0.2,1.3c0.1,0.4,0.3,0.7,0.6,1
		c0.3,0.3,0.6,0.5,1,0.6c0.4,0.1,0.8,0.2,1.3,0.2c0.5,0,1-0.1,1.4-0.3c0.4-0.2,0.8-0.4,1-0.7c0.3-0.3,0.5-0.6,0.6-1
		C137.8,37.4,137.9,37,137.9,36.6z"/>
	<path class="st0" d="M146.9,47.8c-0.7-0.1-1.3-0.3-1.9-0.5c-0.6-0.3-1.1-0.7-1.5-1.2c-0.4-0.5-0.7-1.1-1-1.7
		c-0.2-0.7-0.3-1.4-0.3-2.3c0-0.8,0.1-1.6,0.4-2.3c0.2-0.7,0.6-1.3,1.1-1.8s1-0.9,1.7-1.2c0.7-0.3,1.4-0.4,2.3-0.4l0.1-2
		c0-0.2,0.1-0.3,0.2-0.4c0.1-0.1,0.2-0.2,0.4-0.2h0.7l-0.2,2.6c0.6,0.1,1.1,0.2,1.6,0.5c0.5,0.2,0.9,0.5,1.3,0.9l-0.5,0.7
		c-0.1,0.1-0.1,0.1-0.2,0.2c-0.1,0-0.1,0.1-0.2,0.1c-0.1,0-0.2,0-0.3-0.1c-0.1-0.1-0.3-0.1-0.4-0.2c-0.2-0.1-0.4-0.2-0.6-0.3
		c-0.2-0.1-0.5-0.2-0.8-0.2l-0.6,8.4c0.5,0,0.8-0.1,1.2-0.2c0.3-0.1,0.6-0.2,0.8-0.4s0.4-0.2,0.5-0.3c0.1-0.1,0.3-0.2,0.4-0.2
		c0.1,0,0.2,0,0.2,0c0.1,0,0.1,0.1,0.2,0.1l0.5,0.7c-0.4,0.5-1,1-1.7,1.2s-1.4,0.4-2.2,0.4l-0.1,2c0,0.1-0.1,0.3-0.2,0.4
		c-0.1,0.1-0.2,0.2-0.4,0.2h-0.7L146.9,47.8z M144.2,42.1c0,1.2,0.2,2.1,0.7,2.8c0.5,0.7,1.2,1.1,2.1,1.3l0.6-8.4
		c-0.6,0-1,0.2-1.5,0.4c-0.4,0.2-0.8,0.5-1.1,0.9c-0.3,0.4-0.5,0.8-0.6,1.3C144.2,40.9,144.2,41.5,144.2,42.1z"/>
</g>
</svg>
